<svg xmlns="http://www.w3.org/2000/svg" viewBox="0 0 1280 720" overflow="hidden" preserveAspectRatio="xMidYMid meet" id="eaf-910b-0"><defs><clipPath id="eaf-910b-1"><rect x="0" y="0" width="1280" height="720"></rect></clipPath><linearGradient gradientUnits="userSpaceOnUse" x1="229.4205" y1="351.0639" x2="271.6687" y2="249.1931" id="eaf-910b-2"><stop stop-color="#9856fb" offset="0"></stop><stop stop-color="#19fb9b" offset="1"></stop></linearGradient></defs><g clip-path="url('#eaf-910b-1')" style="isolation: isolate;"><g><g transform="matrix(1.0718 0 0 1.0718 265.6166 -10.3755)"><path fill="#887aff" stroke="#000" stroke-width="3" stroke-linecap="round" d="m178.47 257.27l-7.96 4.24c10.15 33.43 33.67 61.3 60.01 84.26c26.34 22.96 55.9 41.93 82.87 64.15c22.69 18.69 43.46 39.59 63.96 60.67c23.84 24.5 47.92 50.11 60.7 81.82c4.32 10.73 7.5 22.39 15.4 30.84c7.9 8.45 22.72 11.98 30.8 3.7c3.4 -3.48 4.96 -8.33 6.1 -13.06c7.26 -30.12 1.81 -62.87 13.23 -91.67c2.03 -5.11 4.75 -10.23 9.29 -13.33c13.67 -9.3 31.63 4.96 48.11 3.61c32.1 -2.62 36.03 -57.55 67.63 -63.77c7.04 -1.39 14.29 0.07 21.45 0.43c17.98 0.89 36.21 -5.54 49.66 -17.51c3.22 -2.87 6.38 -6.54 6.24 -10.85c-0.11 -3.5 -2.38 -6.53 -4.64 -9.2c-20.52 -24.31 -48.79 -41.97 -79.63 -49.75c-14.08 -3.55 -28.63 -5.1 -42.57 -9.18c-16.33 -4.77 -31.47 -12.92 -45.96 -21.81c-26.71 -16.39 -51.66 -35.5 -75.77 -55.52c-18.97 -15.76 -37.63 -32.22 -59.2 -44.18c-21.57 -11.96 -46.72 -19.22 -71 -14.9c-37.34 6.65 -64.78 38.38 -99.39 53.9c-23.75 10.65 -54.76 17.32 -62.26 42.24" transform="translate(-18.9022 63.4091)"><animate keyTimes="0;0.5;1" calcMode="linear" dur="1000ms" repeatCount="indefinite" attributeName="d" values="m178.47 257.27l-7.96 4.24c10.15 33.43 33.67 61.3 60.01 84.26c26.34 22.96 55.9 41.93 82.87 64.15c22.69 18.69 43.46 39.59 63.96 60.67c23.84 24.5 47.92 50.11 60.7 81.82c4.32 10.73 7.5 22.39 15.4 30.84c7.9 8.45 22.72 11.98 30.8 3.7c3.4 -3.48 4.96 -8.33 6.1 -13.06c7.26 -30.12 1.81 -62.87 13.23 -91.67c2.03 -5.11 4.75 -10.23 9.29 -13.33c13.67 -9.3 31.63 4.96 48.11 3.61c32.1 -2.62 36.03 -57.55 67.63 -63.77c7.04 -1.39 14.29 0.07 21.45 0.43c17.98 0.89 36.21 -5.54 49.66 -17.51c3.22 -2.87 6.38 -6.54 6.24 -10.85c-0.11 -3.5 -2.38 -6.53 -4.64 -9.2c-20.52 -24.31 -48.79 -41.97 -79.63 -49.75c-14.08 -3.55 -28.63 -5.1 -42.57 -9.18c-16.33 -4.77 -31.47 -12.92 -45.96 -21.81c-26.71 -16.39 -51.66 -35.5 -75.77 -55.52c-18.97 -15.76 -37.63 -32.22 -59.2 -44.18c-21.57 -11.96 -46.72 -19.22 -71 -14.9c-37.34 6.65 -64.78 38.38 -99.39 53.9c-23.75 10.65 -54.76 17.32 -62.26 42.24;m178.47 257.27l-7.96 4.24c10.15 33.43 40.938 57.6084 67.278 80.5685c26.34 22.96 50.7022 30.5828 77.6722 52.8028c22.69 18.69 53.6241 38.9587 74.1241 60.0387c23.84 24.5 41.1722 13.2252 53.9523 44.9352c4.32 10.73 10.1828 23.4072 18.0828 31.8572c7.9 8.45 21.9013 13.6673 28.2578 14.1697c4.4054 0.3482 12.6686 -1.5083 7.9656 -14.2817c-10.7049 -29.0745 -4.5586 -36.0253 -1.9869 -39.9442c7.4235 -11.3127 22.7808 -14.6785 30.0809 -15.4455c41.246 -4.3334 54.2936 9.9546 77.024 -7.1977c22.8266 -17.2248 -1.8524 -32.8844 18.5618 -50.0437c18.6191 -15.6504 34.3501 -5.6148 41.255 -13.0933c14.6717 -15.8904 23.4924 -2.2558 36.9423 -14.2258c3.22 -2.87 6.38 -6.54 6.24 -10.85c-0.11 -3.5 -2.38 -6.53 -4.64 -9.2c-20.52 -24.31 -48.79 -41.97 -79.63 -49.75c-14.08 -3.55 -28.63 -5.1 -42.57 -9.18c-16.33 -4.77 -31.47 -12.92 -45.96 -21.81c-26.71 -16.39 -51.66 -35.5 -75.77 -55.52c-18.97 -15.76 -37.63 -32.22 -59.2 -44.18c-21.57 -11.96 -46.72 -19.22 -71 -14.9c-37.34 6.65 -64.78 38.38 -99.39 53.9c-23.75 10.65 -54.76 17.32 -62.26 42.24;m178.47 257.27l-7.96 4.24c10.15 33.43 33.67 61.3 60.01 84.26c26.34 22.96 55.9 41.93 82.87 64.15c22.69 18.69 43.46 39.59 63.96 60.67c23.84 24.5 47.92 50.11 60.7 81.82c4.32 10.73 7.5 22.39 15.4 30.84c7.9 8.45 22.72 11.98 30.8 3.7c3.4 -3.48 4.96 -8.33 6.1 -13.06c7.26 -30.12 1.81 -62.87 13.23 -91.67c2.03 -5.11 4.75 -10.23 9.29 -13.33c13.67 -9.3 31.63 4.96 48.11 3.61c32.1 -2.62 36.03 -57.55 67.63 -63.77c7.04 -1.39 14.29 0.07 21.45 0.43c17.98 0.89 36.21 -5.54 49.66 -17.51c3.22 -2.87 6.38 -6.54 6.24 -10.85c-0.11 -3.5 -2.38 -6.53 -4.64 -9.2c-20.52 -24.31 -48.79 -41.97 -79.63 -49.75c-14.08 -3.55 -28.63 -5.1 -42.57 -9.18c-16.33 -4.77 -31.47 -12.92 -45.96 -21.81c-26.71 -16.39 -51.66 -35.5 -75.77 -55.52c-18.97 -15.76 -37.63 -32.22 -59.2 -44.18c-21.57 -11.96 -46.72 -19.22 -71 -14.9c-37.34 6.65 -64.78 38.38 -99.39 53.9c-23.75 10.65 -54.76 17.32 -62.26 42.24"></animate></path><g transform="translate(0 0)"><path fill="#5a8e34" d="m289.15 240.32c-40.22 4.17 -78.37 29.99 -118.11 22.54c-1.38 -0.26 -2.84 -0.6 -3.86 -1.57c-1.28 -1.22 -1.57 -3.12 -1.81 -4.87c-1.44 -10.63 -3.6 -21.16 -6.47 -31.5c-0.45 -1.61 -0.95 -3.28 -2.09 -4.51c-1.44 -1.55 -3.61 -2.1 -5.64 -2.69c-9.83 -2.84 -13.8579 -3.4558 -29.4775 -18.0873c-17.1445 -16.0599 -27.8241 -10.111 -46.836 -25.5708c-2.3356 -1.8992 -13.7303 -2.7939 -15.6803 -5.0939c-0.82 -0.97 -1.1888 -4.7637 -1.8288 -5.8637c-7.77 -13.51 -10.0674 -30.1944 -5.1674 -44.9844c4.9 -14.79 16.34 -27.28 30.64 -33.48c-1.14 -8.06 84.9835 -33.8608 129.866 -42.3023c44.8547 -8.4362 94.894 8.2323 96.984 8.6723c12.61 2.71 23.9 13.94 32.05 23.94c8.15 10 14.41 20.99 19.99 32.62c7.65 15.93 13.72 32.18 13.18 48.93c-0.48 14.94 -3.5 17.12 -6.92 19.23c-4.35 2.68 -2.58 8.99 -3.31 14.05c-2.37 16.65 -15.83 30.02 -31.15 36.96c-15.32 6.94 -32.42 8.55 -49.17 10.07l4.8 3.52l0.01 -0.01z" transform="translate(-18.9022 63.4091)"></path><path fill="#fff" d="m51.71 133.35c-5.97 4.9 -5.01 13.86 -1.07 20.51c3.94 6.65 9.83 11.14 17.46 12.4c7.63 1.26 15.93 1.38 23.54 0.11c17.55 -2.93 34.41 -8.19 51.44 -13.37c4.49 -1.37 9.02 -2.84 12.95 -5.4c5.13 -3.33 9.01 -8.35 14.23 -11.53c10.59 -6.45 18.44 -1.25 30.48 -4.21c10.14 -2.49 25.2 -10.36 33.71 -16.42c14.72 -10.48 29.23 -23.7 40.97 -37.43c-9.83 -1.92 -20.52 -4.17 -30.52 -4.68c-29.28 -1.47 -58.35 11.74 -79.05 32.51c-3.1502 3.1577 -6.1235 6.5438 -9.5061 9.4251c-1.0951 0.9328 -2.2331 1.8127 -3.4339 2.6149c-8.27 5.54 -19.22 4.84 -29.17 4.72c-9.95 -0.12 -19.35 0.51 -29.27 1.26c-8.68 0.66 -15.85 0.51 -24.25 2.79c-6.7 1.82 -14.7 6.1 -21.4 7.92" transform="translate(-18.9022 63.4091)"></path><g><path fill="#000" stroke="#000" stroke-width="3" stroke-linecap="round" stroke-linejoin="round" d="m55.71 137.47c0.19 7.27 1.5 11.84 6.98 16.46c3.81 3.21 9.26 3.9 14.29 3.21c5.03 -0.69 9.84 -2.6 14.72 -4.12c5 -1.56 10.66 -3.12 13.32 -7.66c1.92 -3.27 1.72 -7.27 1.34 -10.98c-0.37 -3.66 -1.04 -7.63 -3.82 -9.98c-3.51 -2.97 -5.31 -2.27 -10 -1.88c-6.98 0.57 -9.73 1.12 -17.51 2.82c-2.35 0.52 -11.95 3.97 -14.05 5.17c-2.1 1.2 -4.98 2.31 -5.35 4.69l0.07 2.27l0.01 0z" transform="translate(-18.9022 63.4091)"></path><path fill="#fff" d="m75.71 144.84c-1.69 -0.65 -3.8 0.09 -4.71 1.66c-0.87 1.5 -0.51 3.66 0.91 4.66c1.42 1 3.69 0.56 4.49 -0.99c0.8 -1.55 -0.31 -3.76 -2.04 -3.93l1.35 -1.41l0 0.01z" transform="translate(-18.9022 63.4091)"></path><path fill="#fff" d="m76.11 143.39c-1.88 -0.7 -4.1 -0.11 -5.53 1.24c-1.43 1.35 -1.94 3.61 -1.23 5.46c0.39 1.01 1.01 1.87 1.94 2.45c0.77 0.48 1.77 0.72 2.67 0.64c2.04 -0.17 3.87 -1.5 4.16 -3.62c0.14 -1.04 -0.13 -2.17 -0.73 -3.03c-0.35 -0.5 -0.75 -0.91 -1.27 -1.24c-0.52 -0.33 -1.12 -0.48 -1.75 -0.55l1.06 2.56l1.35 -1.41c0.54 -0.57 0.61 -1.57 0 -2.12c-0.61 -0.55 -1.54 -0.61 -2.12 0l-1.35 1.41c-0.42 0.44 -0.55 1.08 -0.31 1.64c0.25 0.59 0.76 0.85 1.37 0.92c-0.53 -0.06 -0.02 0.02 0.12 0.06c0.27 0.08 -0.33 -0.18 -0.08 -0.03c0.04 0.03 0.09 0.05 0.13 0.07c0.06 0.04 0.12 0.09 0.19 0.12c-0.32 -0.16 -0.19 -0.15 -0.07 -0.04c0.04 0.03 0.07 0.07 0.11 0.11c0.11 0.11 0.22 0.36 0.01 -0.01c0.07 0.12 0.16 0.23 0.23 0.36c0.03 0.05 0.05 0.12 0.09 0.17c-0.2 -0.28 -0.09 -0.24 -0.03 -0.07c0.04 0.12 0.08 0.25 0.1 0.37c0.03 0.16 -0.02 0.3 0 -0.09c0 0.1 0.02 0.2 0.02 0.31c0 0.06 -0.01 0.13 0 0.19c0.01 0.19 0.08 -0.41 0.02 -0.13c-0.03 0.14 -0.1 0.3 -0.13 0.44c0 -0.03 0.17 -0.34 0.06 -0.15c-0.04 0.07 -0.08 0.14 -0.12 0.2c-0.1 0.15 -0.21 0.15 0.05 -0.05c-0.06 0.05 -0.1 0.12 -0.16 0.17c-0.06 0.05 -0.11 0.1 -0.17 0.16c-0.21 0.2 0.31 -0.2 0.06 -0.05c-0.11 0.07 -0.22 0.14 -0.33 0.2c-0.14 0.07 -0.3 0.06 0.07 -0.02c-0.07 0.02 -0.15 0.06 -0.22 0.08c-0.15 0.05 -0.31 0.06 -0.46 0.11c0.37 -0.12 0.25 -0.03 0.09 -0.02c-0.07 0 -0.13 0 -0.2 0c-0.14 0 -0.29 -0.02 -0.43 -0.02c0.49 0 0.1 0 -0.06 -0.03c-0.08 -0.02 -0.15 -0.05 -0.22 -0.07c-0.24 -0.07 0.35 0.18 0 0c-0.11 -0.05 -0.23 -0.17 -0.34 -0.2l0.17 0.13c0 0 -0.09 -0.07 -0.13 -0.11c-0.06 -0.06 -0.12 -0.11 -0.18 -0.17c-0.04 -0.04 -0.07 -0.08 -0.11 -0.12c-0.21 -0.22 0.19 0.3 0.03 0.04c-0.09 -0.14 -0.17 -0.28 -0.25 -0.43c-0.15 -0.27 0.12 0.34 0.02 0.05c-0.03 -0.08 -0.06 -0.16 -0.08 -0.24c-0.04 -0.13 -0.07 -0.27 -0.1 -0.41c-0.07 -0.3 0.03 0.38 0 0.07c0 -0.08 -0.01 -0.17 -0.02 -0.25c0 -0.17 0 -0.34 0.02 -0.5c0.02 -0.31 -0.08 0.37 0 0.07c0.02 -0.07 0.03 -0.14 0.05 -0.2c0.04 -0.14 0.12 -0.29 0.14 -0.44c-0.05 0.33 -0.09 0.21 -0.01 0.05c0.03 -0.05 0.05 -0.1 0.08 -0.15c0.04 -0.07 0.09 -0.14 0.14 -0.22c0.09 -0.13 0.06 -0.09 -0.08 0.1c0.04 -0.04 0.07 -0.09 0.11 -0.13c0.11 -0.13 0.24 -0.24 0.36 -0.36c0.23 -0.21 -0.29 0.2 -0.03 0.02c0.07 -0.05 0.14 -0.1 0.21 -0.14c0.17 -0.11 0.36 -0.17 0.53 -0.28c-0.3 0.19 -0.21 0.09 -0.08 0.04c0.09 -0.03 0.19 -0.06 0.29 -0.09c0.08 -0.02 0.17 -0.04 0.25 -0.06c0.06 -0.01 0.11 -0.02 0.17 -0.03c-0.24 0.03 -0.31 0.04 -0.19 0.02c0.19 -0.01 0.37 -0.03 0.56 -0.02c0.07 0 0.14 0.01 0.21 0.01c0.12 0.01 0.06 0 -0.19 -0.03c0.06 0 0.11 0.02 0.17 0.03c0.2 0.04 0.39 0.1 0.58 0.17c0.74 0.27 1.68 -0.31 1.85 -1.05c0.19 -0.85 -0.26 -1.55 -1.05 -1.85l-0.03 -0.01z" transform="translate(-18.9022 63.4091)"></path><path fill="#fff" d="m82.51 129.79c-1.96 -0.03 -3.15 2.72 -1.99 4.3c1.16 1.58 3.79 1.56 5.17 0.17c1 -1 1.38 -2.68 0.63 -3.88c-0.75 -1.2 -2.69 -1.53 -3.62 -0.46l-0.19 -0.13l0 0z" transform="translate(-18.9022 63.4091)"></path><path fill="#fff" d="m82.51 128.29c-1.89 0 -3.47 1.53 -3.83 3.34c-0.2 0.98 -0.11 1.95 0.33 2.85c0.44 0.9 1.23 1.53 2.1 1.9c1.83 0.77 3.92 0.4 5.43 -0.86c1.63 -1.36 2.21 -4.01 1.1 -5.86c-1.2 -2 -4.35 -2.63 -6 -0.8l1.82 -0.23l-0.19 -0.13c-0.65 -0.44 -1.69 -0.14 -2.05 0.54c-0.4 0.76 -0.16 1.58 0.54 2.05l0.19 0.13c0.52 0.36 1.4 0.23 1.82 -0.23c0.05 -0.05 0.1 -0.1 0.15 -0.15c0.19 -0.19 -0.32 0.2 -0.09 0.07c0.06 -0.03 0.12 -0.07 0.18 -0.1c0.23 -0.14 -0.37 0.12 -0.11 0.04c0.07 -0.02 0.13 -0.04 0.2 -0.06c0.15 -0.04 0.32 0 -0.13 0c0.16 0 0.32 -0.01 0.49 0c0.28 0.01 -0.39 -0.08 -0.12 -0.01c0.07 0.02 0.14 0.03 0.21 0.05c0.07 0.02 0.13 0.04 0.2 0.07c0.26 0.09 -0.34 -0.17 -0.1 -0.04c0.12 0.07 0.24 0.15 0.36 0.22c-0.35 -0.19 -0.2 -0.16 -0.09 -0.06c0.06 0.06 0.11 0.12 0.17 0.18c0.13 0.12 -0.22 -0.33 -0.09 -0.11c0.04 0.07 0.08 0.13 0.12 0.2l0.04 0.07c0.07 0.14 0.05 0.1 -0.05 -0.13c0 0.07 0.06 0.16 0.08 0.23c0.02 0.08 0.04 0.16 0.05 0.24c0.07 0.3 -0.02 -0.38 -0.01 -0.07c0 0.19 -0.02 0.38 -0.02 0.57c0 -0.41 0.03 -0.22 0 -0.07c-0.02 0.08 -0.04 0.16 -0.06 0.24c-0.02 0.08 -0.05 0.16 -0.08 0.24c-0.1 0.29 0.17 -0.32 0.02 -0.05c-0.08 0.15 -0.16 0.3 -0.25 0.44l-0.05 0.07c-0.09 0.13 -0.06 0.09 0.08 -0.1c-0.08 0.06 -0.15 0.17 -0.22 0.25c-0.09 0.09 -0.19 0.16 -0.27 0.24c0.31 -0.3 0.18 -0.13 0.07 -0.06c-0.06 0.04 -0.12 0.08 -0.19 0.12c-0.07 0.04 -0.13 0.07 -0.19 0.1c-0.12 0.06 -0.32 0.09 0.09 -0.03c-0.17 0.05 -0.32 0.12 -0.49 0.16c-0.07 0.02 -0.14 0.03 -0.22 0.05c-0.14 0.03 -0.35 0 0.11 0c-0.15 0 -0.29 0.02 -0.44 0.02c-0.15 0 -0.29 -0.02 -0.44 -0.03c0.46 0.02 0.25 0.04 0.11 0c-0.09 -0.02 -0.19 -0.04 -0.28 -0.07c-0.12 -0.03 -0.22 -0.08 -0.34 -0.12c0.49 0.16 0.05 0.01 -0.09 -0.07c-0.06 -0.04 -0.12 -0.09 -0.18 -0.12c0.34 0.18 0.2 0.16 0.08 0.06c-0.05 -0.05 -0.11 -0.1 -0.16 -0.15c-0.11 -0.11 -0.21 -0.35 0 0.03c-0.06 -0.11 -0.14 -0.22 -0.2 -0.34c-0.13 -0.23 0.13 0.37 0.05 0.12c-0.02 -0.06 -0.04 -0.12 -0.06 -0.19c-0.02 -0.07 -0.03 -0.13 -0.04 -0.19c-0.06 -0.26 0.03 0.41 0.02 0.14c0 -0.15 -0.01 -0.31 0 -0.46c0 -0.14 0.09 -0.32 -0.02 0.14c0.02 -0.06 0.02 -0.13 0.04 -0.2c0.03 -0.15 0.08 -0.3 0.13 -0.44c0.09 -0.25 -0.17 0.35 -0.05 0.12c0.04 -0.08 0.08 -0.16 0.12 -0.23c0.03 -0.06 0.07 -0.11 0.1 -0.17c0.2 -0.3 -0.2 0.23 -0.04 0.05c0.1 -0.11 0.2 -0.21 0.32 -0.32c0.19 -0.17 -0.32 0.22 -0.1 0.08c0.07 -0.04 0.14 -0.09 0.22 -0.13c0.14 -0.07 0.27 -0.05 -0.13 0.05c0.08 -0.02 0.16 -0.05 0.24 -0.07c0.15 -0.04 0.3 0 -0.15 0c0.09 0 0.17 -0.01 0.26 -0.01c0.78 0 1.54 -0.69 1.5 -1.5c-0.04 -0.81 -0.66 -1.5 -1.5 -1.5l-0.02 -0.01z" transform="translate(-18.9022 63.4091)"></path></g><g><path fill="#000" stroke="#000" stroke-width="3" stroke-linecap="round" stroke-linejoin="round" d="m163.7 109.04c0.18 2.66 0.4 5.46 1.92 7.66c1.46 2.12 3.91 3.35 6.4 4.02c5.76 1.55 11.89 0.5 17.68 -0.96c7.54 -1.9 14.65 -3.62 21.72 -6.87c1.61 -0.74 4.33 -2.41 5.26 -3.9c0.74 -1.18 0.7 -2.81 0.92 -4.19c0.51 -3.17 0.62 -5.46 0.45 -8.36c-0.29 -4.74 -2.56 -10.23 -6.6 -12.73c-4.92 -3.05 -11.27 -0.46 -16.43 2.15c-9.87 4.99 -19.87 10.1 -28.01 17.59c-1.75 1.61 -3.52 3.55 -3.65 5.93l0.35 -0.36l-0.01 0.02z" transform="translate(-18.9022 63.4091)"></path><path fill="#fff" d="m182.92 111.68c-1.52 -0.41 -3.1 1.19 -2.92 2.75c0.18 1.56 1.76 2.73 3.34 2.74c1.58 0.01 3.04 -0.96 3.95 -2.24c0.46 -0.64 0.81 -1.39 0.81 -2.18c0 -1.67 -1.68 -3.01 -3.35 -3.03c-1.67 -0.02 -3.21 1 -4.27 2.29l2.44 -0.34l0 0.01z" transform="translate(-18.9022 63.4091)"></path><path fill="#fff" d="m183.32 110.23c-2.49 -0.59 -5.04 1.64 -4.81 4.2c0.23 2.56 2.54 4.3 4.96 4.24c2.42 -0.06 4.71 -1.76 5.67 -3.95c0.57 -1.28 0.61 -2.63 -0.03 -3.9c-0.56 -1.09 -1.61 -1.87 -2.73 -2.3c-2.54 -0.96 -5.34 0.47 -6.95 2.43c-0.41 0.5 -0.62 1.22 -0.23 1.82c0.39 0.6 1 0.79 1.69 0.69c0.81 -0.11 1.63 -0.23 2.44 -0.34c0.81 -0.11 1.27 -1.14 1.05 -1.85c-0.28 -0.85 -1.01 -1.17 -1.85 -1.05c-0.84 0.12 -1.63 0.23 -2.44 0.34l1.46 2.51c0.24 -0.29 0.5 -0.57 0.78 -0.83c0.09 -0.09 0.19 -0.17 0.29 -0.25c-0.04 0.04 -0.23 0.16 0 0c0.17 -0.12 0.35 -0.24 0.53 -0.34c0.09 -0.05 0.18 -0.1 0.28 -0.15c0.07 -0.04 0.33 -0.14 0.04 -0.03c0.15 -0.06 0.31 -0.11 0.47 -0.16c0.1 -0.03 0.2 -0.05 0.3 -0.07c0.09 -0.02 0.36 -0.04 0.03 -0.02c0.2 -0.02 0.41 -0.01 0.61 -0.02c0.36 -0.02 -0.22 -0.06 0 0c0.09 0.02 0.19 0.04 0.28 0.06c0.15 0.04 0.29 0.09 0.44 0.14c-0.35 -0.13 0.18 0.11 0.26 0.16c0.06 0.04 0.13 0.09 0.19 0.13c-0.29 -0.19 -0.02 -0.01 0.05 0.05c0.07 0.06 0.14 0.13 0.2 0.2c0.06 0.07 0.2 0.28 0.01 0c0.08 0.12 0.15 0.25 0.23 0.38c0.18 0.29 -0.05 -0.21 0 0c0.02 0.09 0.05 0.18 0.08 0.27c0.07 0.22 -0.07 -0.02 0 -0.07c0 0 0 0.36 0 0.36c0 0.39 0.07 -0.13 -0.01 0.08c-0.04 0.1 -0.06 0.23 -0.09 0.33c-0.01 0.05 -0.11 0.26 0 0.03c-0.04 0.08 -0.08 0.17 -0.12 0.25c-0.11 0.21 -0.24 0.4 -0.37 0.59c-0.04 0.06 -0.18 0.21 0 0c-0.08 0.09 -0.16 0.19 -0.25 0.28c-0.14 0.15 -0.29 0.3 -0.45 0.44c-0.06 0.05 -0.13 0.11 -0.19 0.16c0.23 -0.18 0.05 -0.04 0 -0.01c-0.18 0.11 -0.35 0.22 -0.53 0.32c-0.07 0.04 -0.15 0.07 -0.22 0.11c0.29 -0.16 -0.03 0 -0.1 0.03c-0.19 0.07 -0.39 0.11 -0.59 0.16c-0.09 0.02 -0.26 0 0.03 0c-0.08 0 -0.16 0.01 -0.25 0.01c-0.1 0 -0.2 0 -0.29 0l-0.06 0c-0.17 -0.02 -0.15 -0.02 0.06 0c-0.13 0.04 -0.41 -0.1 -0.55 -0.14c-0.27 -0.08 0 0.02 0.04 0.03c-0.08 -0.02 -0.18 -0.09 -0.25 -0.13c-0.15 -0.08 -0.29 -0.17 -0.43 -0.27c0.31 0.23 -0.13 -0.15 -0.19 -0.21c-0.18 -0.17 0.05 0.04 0.02 0.05c-0.02 0 -0.17 -0.26 -0.18 -0.28c0 -0.01 -0.11 -0.16 -0.1 -0.19c0.08 0.19 0.08 0.21 0.03 0.05l-0.03 -0.11c-0.03 -0.09 -0.04 -0.18 -0.06 -0.27c-0.02 -0.11 -0.01 -0.07 0.02 0.12c0 -0.07 0 -0.15 0 -0.22c-0.01 -0.23 0.07 0.03 -0.02 0.07c0 0 0.08 -0.3 0.08 -0.32c0.08 -0.29 -0.03 0.03 -0.03 0.05c0 -0.09 0.12 -0.21 0.16 -0.29c0.16 -0.31 -0.14 0.14 0 -0.01c0.08 -0.08 0.15 -0.17 0.23 -0.24l0.04 -0.04c0.13 -0.11 0.11 -0.1 -0.04 0.03c0.03 -0.07 0.22 -0.13 0.28 -0.17c0.27 -0.16 -0.06 0.02 -0.06 0.02c0 -0.01 0.29 -0.11 0.31 -0.08c-0.05 -0.05 -0.31 0 -0.02 0.02c0.4 0.02 -0.22 -0.06 0.09 0c0.76 0.18 1.66 -0.24 1.85 -1.05c0.17 -0.77 -0.23 -1.65 -1.05 -1.85l-0.01 0z" transform="translate(-18.9022 63.4091)"></path><path fill="#fff" d="m206.11 91.46c-2.36 0.87 -4.59 2.08 -6.61 3.58c-1.22 0.9 -2.47 2.19 -2.25 3.69c0.25 1.61 2.21 2.49 3.8 2.13c1.59 -0.36 2.83 -1.57 3.91 -2.8c0.68 -0.77 1.35 -1.63 1.47 -2.65c0.12 -1.02 -0.56 -2.2 -1.58 -2.24l1.26 -1.71z" transform="translate(-18.9022 63.4091)"></path><path fill="#fff" d="m205.71 90.01c-2.32 0.87 -4.54 1.99 -6.56 3.43c-1.89 1.35 -4.04 3.38 -3.28 5.97c0.66 2.25 3.17 3.3 5.35 2.94c2.32 -0.39 4.17 -2.34 5.54 -4.13c0.86 -1.14 1.41 -2.52 1.07 -3.95c-0.34 -1.43 -1.51 -2.47 -2.98 -2.6l1.3 2.26l1.26 -1.71c0.47 -0.63 0.13 -1.7 -0.54 -2.05c-0.78 -0.41 -1.55 -0.14 -2.05 0.54l-1.26 1.71c-0.31 0.42 -0.25 1.09 0 1.51c0.28 0.49 0.76 0.7 1.3 0.74c-0.31 -0.03 -0.13 -0.01 -0.05 0c-0.25 -0.06 -0.13 -0.07 -0.04 0c-0.32 -0.21 0.18 0.24 -0.02 -0.04c0.05 0.07 0.09 0.14 0.13 0.21c0.14 0.23 0.02 0.05 0 -0.02c0.02 0.08 0.05 0.16 0.07 0.24c0.1 0.37 0 -0.28 0 0.1c0 0.25 0 0.07 0.02 0c-0.01 0.1 -0.04 0.2 -0.07 0.3c-0.03 0.1 -0.06 0.2 -0.1 0.29c0.08 -0.2 -0.02 0.03 -0.04 0.06c-0.1 0.18 -0.2 0.36 -0.32 0.53c-0.06 0.09 -0.12 0.17 -0.18 0.25c0.13 -0.17 -0.16 0.19 -0.16 0.18c-0.53 0.63 -1.1 1.24 -1.73 1.77c-0.04 0.04 -0.3 0.23 -0.1 0.09c-0.08 0.06 -0.16 0.11 -0.24 0.17c-0.16 0.11 -0.33 0.21 -0.5 0.3c-0.09 0.05 -0.17 0.09 -0.26 0.13c0.06 -0.03 0.24 -0.08 -0.05 0.02c-0.2 0.07 -0.42 0.11 -0.62 0.18c-0.2 0.07 0.25 0 0.04 0c-0.08 0 -0.16 0.01 -0.24 0.01c-0.06 0 -0.53 -0.03 -0.35 0c0.18 0.03 -0.27 -0.06 -0.34 -0.08c-0.08 -0.02 -0.15 -0.06 -0.23 -0.07c-0.16 -0.03 0.21 0.12 -0.03 -0.01c-0.09 -0.05 -0.17 -0.1 -0.26 -0.14c-0.04 -0.02 -0.25 -0.16 -0.09 -0.05c0.15 0.1 -0.19 -0.2 -0.23 -0.23c-0.15 -0.11 0.1 0.21 0.02 0.04c-0.03 -0.06 -0.07 -0.15 -0.12 -0.19c-0.13 -0.13 0.05 0.23 0.01 0.05c-0.02 -0.09 -0.05 -0.19 -0.08 -0.28c0.08 0.25 0 0.11 0 0c0 -0.09 0 -0.18 0 -0.27c-0.01 0.29 0.05 -0.15 0.09 -0.26c-0.08 0.25 0.09 -0.17 0.15 -0.26c0.05 -0.08 0.1 -0.16 0.16 -0.24c0.24 -0.35 -0.17 0.17 0.12 -0.15c0.27 -0.29 0.55 -0.56 0.85 -0.81c0.22 -0.19 0.09 -0.08 0.04 -0.04c0.08 -0.06 0.17 -0.12 0.25 -0.19c0.23 -0.16 0.45 -0.33 0.68 -0.48c0.85 -0.58 1.74 -1.12 2.65 -1.6c0.99 -0.52 1.81 -0.89 2.78 -1.25c0.73 -0.27 1.31 -1.03 1.05 -1.85c-0.23 -0.72 -1.06 -1.34 -1.85 -1.05l0.04 -0.02z" transform="translate(-18.9022 63.4091)"></path><path fill="#fff" d="m206.54 107.58c-1.31 -0.06 -2.13 1.79 -1.36 2.86c0.77 1.07 2.49 1.11 3.51 0.28c1.02 -0.83 1.37 -2.28 1.18 -3.59c-1.24 -0.52 -2.8 -0.13 -3.65 0.91l0.33 -0.47l-0.01 0.01z" transform="translate(-18.9022 63.4091)"></path><path fill="#fff" d="m206.54 106.08c-0.81 -0.02 -1.62 0.33 -2.17 0.92c-0.58 0.63 -0.88 1.39 -0.97 2.23c-0.18 1.64 1.09 3.13 2.65 3.46c0.76 0.16 1.59 0.15 2.32 -0.12c0.89 -0.33 1.57 -0.87 2.12 -1.64c0.43 -0.59 0.71 -1.32 0.82 -2.04c0.06 -0.42 0.12 -0.84 0.1 -1.27c-0.01 -0.26 -0.03 -0.57 -0.09 -0.82c-0.07 -0.27 -0.19 -0.53 -0.4 -0.73c-0.22 -0.22 -0.5 -0.33 -0.79 -0.43c-1.69 -0.61 -3.84 -0.03 -4.99 1.35l2.36 1.82l0.33 -0.47c0.21 -0.3 0.25 -0.81 0.15 -1.16c-0.1 -0.35 -0.36 -0.73 -0.69 -0.9c-0.35 -0.18 -0.77 -0.28 -1.16 -0.15c-0.39 0.13 -0.66 0.35 -0.9 0.69l-0.33 0.47c-0.2 0.29 -0.26 0.82 -0.15 1.16c0.11 0.34 0.27 0.58 0.54 0.78c0.55 0.42 1.49 0.46 1.97 -0.12c0.14 -0.17 0.3 -0.33 0.48 -0.46l-0.3 0.23c0.22 -0.16 0.45 -0.3 0.69 -0.4l-0.36 0.15c0.29 -0.12 0.59 -0.2 0.9 -0.24l-0.4 0.05c0.27 -0.03 0.53 -0.03 0.8 0l-0.4 -0.05c0.27 0.04 0.52 0.1 0.77 0.2l-1.05 -1.05l0 0.07c0 -0.13 -0.03 -0.27 -0.04 -0.4c0.05 0.42 0.05 0.84 0 1.25l0.05 -0.4c-0.05 0.35 -0.14 0.68 -0.27 1l0.15 -0.36c-0.12 0.27 -0.26 0.53 -0.44 0.77l0.23 -0.3c-0.15 0.2 -0.33 0.37 -0.52 0.53l0.3 -0.23c-0.18 0.14 -0.37 0.24 -0.58 0.33l0.36 -0.15c-0.23 0.09 -0.46 0.15 -0.71 0.19l0.4 -0.05c-0.24 0.03 -0.48 0.03 -0.73 0l0.4 0.05c-0.2 -0.03 -0.39 -0.08 -0.57 -0.15l0.36 0.15c-0.18 -0.08 -0.35 -0.17 -0.51 -0.29l0.3 0.23c-0.12 -0.1 -0.23 -0.21 -0.33 -0.34l0.23 0.3c-0.08 -0.1 -0.14 -0.21 -0.19 -0.33l0.15 0.36c-0.06 -0.15 -0.1 -0.3 -0.12 -0.46l0.05 0.4c-0.02 -0.16 -0.02 -0.32 0 -0.48l-0.05 0.4c0.03 -0.2 0.08 -0.39 0.15 -0.57l-0.15 0.36c0.07 -0.16 0.16 -0.32 0.26 -0.46l-0.23 0.3c0.1 -0.12 0.2 -0.23 0.33 -0.33l-0.3 0.23c0.1 -0.07 0.19 -0.13 0.3 -0.18l-0.36 0.15c0.11 -0.05 0.22 -0.08 0.34 -0.1l-0.4 0.05c0.09 -0.01 0.17 -0.02 0.26 -0.01c0.79 0.02 1.54 -0.71 1.5 -1.5c-0.04 -0.79 -0.66 -1.48 -1.5 -1.5l0.03 0.01z" transform="translate(-18.9022 63.4091)"></path></g><path fill="#5a8e34" d="m289.15 240.32c-40.22 4.17 -78.37 29.99 -118.11 22.54c-1.38 -0.26 -2.84 -0.6 -3.86 -1.57c-1.28 -1.22 -1.57 -3.12 -1.81 -4.87c-1.44 -10.63 -3.6 -21.16 -6.47 -31.5c-0.45 -1.61 -0.95 -3.28 -2.09 -4.51c-1.44 -1.55 -3.61 -2.1 -5.64 -2.69c-9.83 -2.84 -13.8579 -3.4558 -29.4775 -18.0873c-17.1445 -16.0599 -27.8241 -10.111 -46.836 -25.5708c-2.3356 -1.8992 -11.8501 1.8437 -17.2974 -6.189c-0.7129 -1.0512 2.3706 -2.8624 1.7306 -3.9624c23.7774 8.8926 38.995 1.4444 56.1948 -3.6508c4.4367 -1.3143 36.0317 -2.7351 59.3922 -27.0703c0.7887 -0.8216 13.2378 3.5469 32.5834 -2.906c23.9771 -7.9977 53.6869 -32.7946 70.1704 -52.5774c17.8051 -21.369 21.9753 -29.4472 28.3119 -27.955c30.1419 7.098 50.1876 46.1891 55.7676 57.8191c7.65 15.93 13.72 32.18 13.18 48.93c-0.48 14.94 -3.5 17.12 -6.92 19.23c-4.35 2.68 -2.58 8.99 -3.31 14.05c-2.37 16.65 -15.83 30.02 -31.15 36.96c-15.32 6.94 -32.42 8.55 -49.17 10.07l4.8 3.52l0.01 -0.01z" transform="translate(-18.9022 63.4091)"></path><path fill="#000" d="m161.77 110.84c1.45 8.08 5.79 16.67 12.74 21.35c3.89 2.62 8.33 3.02 12.91 2.85c5.05 -0.2 10.07 -0.86 14.99 -2.01c20.49 -4.79 38.23 -17.14 53.31 -31.41c8.88 -8.41 17.02 -17.56 25.12 -26.72c1.27 -1.44 -0.84 -3.57 -2.12 -2.12c-13.67 15.46 -27.61 31.17 -44.84 42.77c-8.13 5.47 -16.94 10.02 -26.3 12.96c-4.68 1.47 -9.49 2.55 -14.37 3.1c-4.43 0.5 -9.64 1.16 -13.94 -0.34c-4.3 -1.5 -7.27 -4.9 -9.56 -8.44c-2.5 -3.88 -4.22 -8.24 -5.03 -12.78c-0.34 -1.9 -3.23 -1.09 -2.89 0.8l0 0l-0.02 -0.01z" transform="translate(-18.9022 63.4091)"></path><path fill="#000" d="m303.63 50.85c26.58 6.05 42.59 30.38 54.44 52.95c3.23 6.15 6.49 12.32 9.36 18.66c2.99 6.61 5.31 13.54 5.94 20.81c0.32 3.69 0.3 7.41 0.14 11.11c-0.16 3.7 -0.32 7.29 -0.76 10.89c-0.2 1.6 -0.55 3.2 -1.39 4.59c-0.84 1.39 -2.2 2.58 -3.48 3.68c-2.61 2.23 -5.32 4.34 -8.13 6.32c-12.12 8.58 -25.8 14.81 -40.22 18.35c-1.87 0.46 -1.08 3.35 0.8 2.89c13.4 -3.29 26.24 -8.88 37.76 -16.48c2.84 -1.87 5.6 -3.88 8.27 -5.98c2.67 -2.1 5.64 -4.21 7.47 -7.09c1.96 -3.06 1.99 -6.89 2.25 -10.39c0.29 -3.87 0.54 -7.74 0.54 -11.62c0 -7.54 -1.22 -14.85 -3.84 -21.93c-2.62 -7.08 -6.04 -13.53 -9.42 -20.12c-6.52 -12.71 -13.4 -25.41 -22.8 -36.27c-9.4 -10.86 -21.82 -20.01 -36.14 -23.27c-1.88 -0.43 -2.68 2.46 -0.8 2.89l0 0l0.01 0.01z" transform="translate(-18.9022 63.4091)"></path><path fill="#5a8e34" stroke="#000" stroke-width="3" stroke-linecap="round" stroke-linejoin="round" d="m0 0l-55.3797 -15.5623" transform="translate(287.2945 113.3547)"></path><path fill="#5a8e34" d="m162.816 111.2898c-8.072 14.2343 -45.5079 10.5028 -50.2782 10.4152c-5.3653 -0.0986 -33.1801 -1.864 -59.9893 12.7962c-0.8462 -0.988 -6.8573 -2.8125 -1.9029 -8.9912c4.4839 -5.592 4.5403 -15.2862 8.2092 -21.4673c5.3447 -9.0043 9.6651 -13.2026 23.9651 -19.4026c-1.14 -8.06 -2.1 -16.97 2.5 -23.69c3.46 -5.06 9.37 -7.76 14.99 -10.22c13.55 -5.94 27.21 -11.92 41.66 -15.08c14.45 -3.17 29.93 -3.37 43.69 2.07c14.77 -21.34 -9.3059 49.6966 -22.844 73.5698z" transform="translate(-18.9022 63.4091)"></path><g><path fill="#5a8e34" d="m237.8727 71.948c-12.0406 -0.7548 -59.1951 13.6733 -74.0133 36.7738c-1.7333 2.7021 -3.7877 -1.8061 -0.3462 -13.1214c1.4283 -4.6962 8.8432 -11.8377 9.6126 -18.1007c2.2727 -18.5007 7.063 -31.5697 12.5342 -39.7797c14.77 -21.34 50.22 -39.49 68.47 -35.9c18.25 3.59 13.17 3.75 18.83 6.39c11.47 5.34 16.38 14.07 16.38 14.07c0 0 12.76 25.62 14.68 27.13c1.68 1.32 -27.5912 21.8502 -28.904 27.1897c-4.6028 -0.4446 -22.2409 -3.7112 -37.2432 -4.6517z" transform="translate(-18.9022 63.4091)"></path><path fill="#000" d="m164.05 108.01c-1.93 -3.76 -0.77 -8.24 1.09 -11.79c2.07 -3.96 4.98 -7.42 6.94 -11.45c3.75 -7.7 4.5 -16.3 6.1 -24.6c0.79 -4.08 1.8 -8.14 3.47 -11.96c1.5 -3.46 3.43 -6.73 5.65 -9.78c4.59 -6.31 10.47 -11.67 16.7 -16.32c6.63 -4.95 13.75 -9.45 21.17 -13.11c7.42 -3.66 15.3 -6.04 23.59 -6c14.53 0.08 28.97 6.87 38.01 18.29c10.19 12.88 12.72 31.36 27.27 40.8c1.62 1.05 3.35 1.89 5.15 2.58c1.62 0.62 2.58 -1.9 1.16 -2.74c-0.9 -0.53 -1.81 -1.07 -2.71 -1.6c-1.67 -0.98 -3.18 1.61 -1.51 2.59c0.9 0.53 1.81 1.07 2.71 1.6l1.16 -2.74c-7.55 -2.89 -12.81 -9.6 -16.67 -16.43c-4.47 -7.94 -7.53 -16.67 -12.87 -24.12c-8.81 -12.28 -23.22 -19.94 -38.22 -21.09c-17.22 -1.31 -32.87 7.52 -46.53 17.07c-13.66 9.55 -25.03 21.04 -29.22 36.93c-2.23 8.44 -2.57 17.31 -5.49 25.57c-1.54 4.37 -4.14 8.04 -6.6 11.92c-2.33 3.66 -4.31 7.72 -4.3 12.15c0 2.02 0.48 3.97 1.4 5.76c0.92 1.79 3.47 0.2 2.59 -1.51l0 0l-0.0399 -0.02z" transform="translate(-18.9022 63.4091)"></path><path fill="#000" d="m162.9671 111.4823c1.2523 1.5804 6.1729 -7.8823 11.9429 -13.0623c5.77 -5.18 12.98 -8.66 20.06 -11.79c7.7 -3.4 15.45 -6.81 23.49 -9.34c8.04 -2.53 16.97 -3.97 25.79 -3.32c9.17 0.68 18.29 2.44 27.37 3.82c2.26 0.34 4.53 0.68 6.79 1.03c1.89 0.29 2.7 -2.6 0.8 -2.89c-8.98 -1.36 -17.96 -2.81 -26.96 -4.05c-4.53 -0.63 -9.08 -1.13 -13.66 -1.09c-4.2 0.04 -8.4 0.56 -12.51 1.41c-8.33 1.73 -16.29 4.87 -24.1 8.18c-7.25 3.08 -14.65 6.07 -21.39 10.2c-3.28 2.01 -6.41 4.32 -9.15 7.01c-2.74 2.69 -4.93 5.74 -7.19 8.77c-2.26 3.03 -2.5351 3.5419 -1.2829 5.1223z" transform="translate(-18.9022 63.4091)"><animate keyTimes="0;0.217;0.933;1" calcMode="linear" dur="1000ms" repeatCount="indefinite" attributeName="d" values="m162.9671 111.4823c1.2523 1.5804 6.1729 -7.8823 11.9429 -13.0623c5.77 -5.18 12.98 -8.66 20.06 -11.79c7.7 -3.4 15.45 -6.81 23.49 -9.34c8.04 -2.53 16.97 -3.97 25.79 -3.32c9.17 0.68 18.29 2.44 27.37 3.82c2.26 0.34 4.53 0.68 6.79 1.03c1.89 0.29 2.7 -2.6 0.8 -2.89c-8.98 -1.36 -17.96 -2.81 -26.96 -4.05c-4.53 -0.63 -9.08 -1.13 -13.66 -1.09c-4.2 0.04 -8.4 0.56 -12.51 1.41c-8.33 1.73 -16.29 4.87 -24.1 8.18c-7.25 3.08 -14.65 6.07 -21.39 10.2c-3.28 2.01 -6.41 4.32 -9.15 7.01c-2.74 2.69 -4.93 5.74 -7.19 8.77c-2.26 3.03 -2.5351 3.5419 -1.2829 5.1223z;m162.9549 111.4666c1.9079 1.6122 6.1851 -7.8666 11.9551 -13.0466c5.77 -5.18 12.98 -8.66 20.06 -11.79c7.7 -3.4 15.45 -6.81 23.49 -9.34c8.04 -2.53 16.97 -3.97 25.79 -3.32c9.17 0.68 18.29 2.44 27.37 3.82c2.26 0.34 4.53 0.68 6.79 1.03c1.89 0.29 2.7 -2.6 0.8 -2.89c-8.98 -1.36 -17.96 -2.81 -26.96 -4.05c-4.53 -0.63 -9.08 -1.13 -13.66 -1.09c-4.2 0.04 -8.4 0.56 -12.51 1.41c-8.33 1.73 -16.29 4.87 -24.1 8.18c-7.25 3.08 -14.65 6.07 -21.39 10.2c-3.28 2.01 -6.41 4.32 -9.15 7.01c-2.74 2.69 -4.93 5.74 -7.19 8.77c-2.26 3.03 -3.2031 3.4944 -1.2951 5.1066z;m162.9144 111.4149c1.4233 1.3566 6.2256 -7.8149 11.9956 -12.9949c5.77 -5.18 12.98 -8.66 20.06 -11.79c7.7 -3.4 15.45 -6.81 23.49 -9.34c8.04 -2.53 16.97 -3.97 25.79 -3.32c9.17 0.68 18.29 2.44 27.37 3.82c2.26 0.34 4.53 0.68 6.79 1.03c1.89 0.29 2.7 -2.6 0.8 -2.89c-8.98 -1.36 -17.96 -2.81 -26.96 -4.05c-4.53 -0.63 -9.08 -1.13 -13.66 -1.09c-4.2 0.04 -8.4 0.56 -12.51 1.41c-8.33 1.73 -16.29 4.87 -24.1 8.18c-7.25 3.08 -14.65 6.07 -21.39 10.2c-3.28 2.01 -6.41 4.32 -9.15 7.01c-2.74 2.69 -4.93 5.74 -7.19 8.77c-2.26 3.03 -2.7589 3.6982 -1.3356 5.0549z;m162.9144 111.4149c1.4233 1.3566 6.2256 -7.8149 11.9956 -12.9949c5.77 -5.18 12.98 -8.66 20.06 -11.79c7.7 -3.4 15.45 -6.81 23.49 -9.34c8.04 -2.53 16.97 -3.97 25.79 -3.32c9.17 0.68 18.29 2.44 27.37 3.82c2.26 0.34 4.53 0.68 6.79 1.03c1.89 0.29 2.7 -2.6 0.8 -2.89c-8.98 -1.36 -17.96 -2.81 -26.96 -4.05c-4.53 -0.63 -9.08 -1.13 -13.66 -1.09c-4.2 0.04 -8.4 0.56 -12.51 1.41c-8.33 1.73 -16.29 4.87 -24.1 8.18c-7.25 3.08 -14.65 6.07 -21.39 10.2c-3.28 2.01 -6.41 4.32 -9.15 7.01c-2.74 2.69 -4.93 5.74 -7.19 8.77c-2.26 3.03 -2.7589 3.6982 -1.3356 5.0549z"></animate></path><path fill="#000" d="m175.5846 72.5298c0.0876 -0.0201 0.1752 -0.0402 0.2628 -0.0603c4.6528 -1.0706 9.275 -2.2913 13.8226 -3.6195c8.32 -2.43 15.93 -5.59 23.76 -8.75c15.53 -6.28 31.91 -12.7 48.99 -11.44c2.1 0.16 4.18 0.44 6.24 0.85c1.89 0.37 2.69 -2.52 0.8 -2.89c-17.13 -3.39 -34.27 1.7 -50.13 7.91c-8.08 3.16 -16.06 6.62 -24.27 9.45c-6.1368 2.1154 -12.5363 3.8229 -18.9561 5.3105c-0.712 0.165 -1.2199 3.3996 -0.5193 3.2393z" transform="translate(-18.9022 63.4091)"></path></g><path fill="#000" d="m57.8 163.96c0.35 -0.41 0.7 -0.42 1.07 -0.02c-0.46 -0.71 -1.3 -0.92 -2.05 -0.54c-1.86 0.94 -1.51 3.31 -0.5 4.76c1.15 1.66 2.72 3.02 4.45 4.05c3.6 2.15 7.85 2.89 11.96 3.28c4.92 0.46 9.92 0.59 14.86 0.54c5.2 -0.05 10.46 -0.5 15.49 -1.89c5.83 -1.62 11.24 -4.62 16.67 -7.25c1.74 -0.84 0.22 -3.43 -1.51 -2.59c-4.18 2.02 -8.33 4.26 -12.69 5.89c-4.36 1.63 -8.97 2.41 -13.61 2.69c-4.64 0.28 -9.17 0.13 -13.75 -0.06c-3.73 -0.16 -7.5 -0.33 -11.13 -1.28c-1.84 -0.48 -3.61 -1.16 -5.21 -2.19c-0.8 -0.51 -1.52 -1.12 -2.18 -1.81c-0.3 -0.32 -0.63 -0.66 -0.87 -1.04c-0.07 -0.11 -0.15 -0.3 -0.24 -0.41c-0.35 -0.46 0.29 -0.37 -0.23 -0.1l-2.05 -0.54c1.02 1.56 3.07 1.53 4.12 0.02c1.1 -1.59 -1.5 -3.09 -2.59 -1.51l0 0l-0.01 0z" transform="translate(-18.9022 63.4091)"></path><path fill="#000" d="m75.38 176.14c3.2 3.55 7.49 5.68 11.9 7.35c4.72 1.79 9.56 3.2 14.16 5.32c4.6 2.12 9.4 4.87 13.71 7.94c4.31 3.07 8.25 6.8 12.23 10.41c3.98 3.61 8.5 6.9 13.53 9.27c5.03 2.37 10.42 4.26 15.77 5.94c10.72 3.37 21.77 5.65 32.94 6.89c12.72 1.41 29.4344 0.7501 42.1544 -0.6899c1.9 -0.21 1.92 -3.22 0 -3c-22.26 2.52 -48.7744 1.2898 -70.3044 -4.8901c-10.4 -2.99 -21.27 -6.5 -29.64 -13.6c-4.04 -3.42 -7.73 -7.21 -11.9 -10.48c-4.17 -3.27 -8.58 -6.13 -13.27 -8.57c-5.03 -2.62 -10.3 -4.53 -15.65 -6.38c-4.94 -1.71 -9.93 -3.67 -13.51 -7.63c-1.3 -1.44 -3.41 0.69 -2.12 2.12l0 0l0 0z" transform="translate(-18.9022 63.4091)"></path><path fill="#000" d="m49.43 134.55c-2.42 4.58 -3.18 9.9 -2.01 14.97c1.01 4.41 3.57 8.4 6.88 11.44c7.56 6.95 17.99 8.82 27.94 8.14c11.51 -0.79 22.76 -4.09 33.78 -7.29c5.51 -1.6 11.01 -3.22 16.58 -4.62c5.16 -1.3 10.4 -2.31 15.47 -3.95c5.63 -1.83 10.58 -4.58 15.1 -8.4c4.52 -3.82 8.26 -7.83 13.17 -10.75c1.66 -0.99 0.15 -3.58 -1.51 -2.59c-8.31 4.94 -14.07 13.15 -23.03 17.14c-4.55 2.03 -9.46 3.16 -14.29 4.29c-5.24 1.22 -10.44 2.58 -15.62 4.06c-10.48 3 -20.91 6.28 -31.68 8.12c-9.8 1.68 -20.63 2.11 -29.5 -3.12c-4.02 -2.37 -7.52 -5.82 -9.39 -10.15c-2.19 -5.04 -1.86 -10.94 0.7 -15.78c0.9 -1.71 -1.69 -3.22 -2.59 -1.51l0 0l0 0z" transform="translate(-18.9022 63.4091)"></path><path fill="#000" d="m49.15 134.21c1.31 1.22 3.09 2.02 4.84 1.26c1.75 -0.76 3.39 -1.93 5.12 -2.79c3.48 -1.74 7.09 -3.17 10.8 -4.34c7.48 -2.36 15.26 -3.68 23.06 -4.37c7.8 -0.69 15.92 -0.8 23.88 -0.7c7.96 0.1 15.19 0.64 22.74 0c7.55 -0.64 14.57 -2.52 20.24 -7.39c5.67 -4.87 9.31 -12.28 15.08 -17.46c5.77 -5.18 12.98 -8.66 20.06 -11.79c7.7 -3.4 15.45 -6.81 23.49 -9.34c8.04 -2.53 16.97 -3.97 25.79 -3.32c9.17 0.68 18.29 2.44 27.37 3.82c2.26 0.34 4.53 0.68 6.79 1.03c1.89 0.29 2.7 -2.6 0.8 -2.89c-8.98 -1.36 -17.96 -2.81 -26.96 -4.05c-4.53 -0.63 -9.08 -1.13 -13.66 -1.09c-4.2 0.04 -8.4 0.56 -12.51 1.41c-8.33 1.73 -16.29 4.87 -24.1 8.18c-7.25 3.08 -14.65 6.07 -21.39 10.2c-3.28 2.01 -6.41 4.32 -9.15 7.01c-2.74 2.69 -4.93 5.74 -7.19 8.77c-2.26 3.03 -4.69 6.16 -7.81 8.42c-2.89 2.1 -6.18 3.48 -9.64 4.35c-7.2 1.8 -14.75 1.48 -22.11 1.3c-7.88 -0.19 -15.77 -0.31 -23.64 0.03c-15.43 0.66 -31.15 3.08 -44.93 10.4c-0.86 0.46 -1.72 0.93 -2.56 1.43c-0.93 0.55 -1.45 0.59 -2.28 -0.19c-1.41 -1.32 -3.54 0.8 -2.12 2.12l0 0l-0.01 -0.01z" transform="translate(-18.9022 63.4091)"></path><path fill="#000" d="m51.27 132.09c-2.27 -2.2 -0.42 -5.66 1.71 -7.16c2.86 -2.01 6.59 -2.87 9.88 -3.9c7.58 -2.39 15.29 -4.36 23.09 -5.9c15.42 -3.05 31.18 -4.35 46.89 -3.74c8.97 0.35 17.9 1.33 26.72 2.95c1.89 0.35 2.7 -2.54 0.8 -2.89c-16.66 -3.07 -33.68 -3.91 -50.56 -2.6c-16.98 1.32 -33.78 4.73 -49.96 10.01c-3.79 1.24 -8.18 2.41 -10.76 5.67c-2.2 2.77 -2.6 7.09 0.07 9.69c1.39 1.35 3.51 -0.77 2.12 -2.12l0 0l0 -0.01z" transform="translate(-18.9022 63.4091)"></path><path fill="#000" d="m173.52 135.08c7.47 6.29 17.45 8.12 26.99 7.5c11.31 -0.74 22.04 -4.71 33.13 -6.73c6.54 -1.19 13.18 -1.64 19.8 -2.1c1.92 -0.13 1.93 -3.13 0 -3c-5.69 0.39 -11.38 0.8 -17.03 1.62c-5.65 0.82 -10.88 2.13 -16.26 3.49c-9.88 2.48 -20.13 5.02 -30.36 3.27c-5.14 -0.88 -10.13 -2.79 -14.15 -6.17c-1.47 -1.24 -3.6 0.88 -2.12 2.12l0 0l0 0z" transform="translate(-18.9022 63.4091)"></path><path fill="#000" d="m182.62 153.15c1.77 -1.1 4.34 -0.92 6.35 -1.07c2.56 -0.18 5.12 -0.32 7.68 -0.39c5.04 -0.15 10.09 -0.09 15.13 0.16c1.93 0.1 1.92 -2.9 0 -3c-5.37 -0.27 -10.75 -0.32 -16.12 -0.13c-2.65 0.09 -5.29 0.25 -7.93 0.46c-2.23 0.18 -4.67 0.17 -6.63 1.38c-1.64 1.01 -0.13 3.61 1.51 2.59l0 0l0.01 0z" transform="translate(-18.9022 63.4091)"></path><path fill="#000" d="m53.5 123.97c1.01 -6.41 3.12 -12.66 6.2 -18.37c3.08 -5.71 7.07 -10.9 12.55 -14.22c2.96 -1.79 6.26 -2.89 9.67 -3.43c3.6 -0.56 7.27 -0.62 10.89 -1.08c7.9 -1.01 15.59 -3.1 23.27 -5.16c7.68 -2.06 15.46 -4.19 23.4 -5.07c4.02 -0.44 8.01 -0.28 12.04 -0.44c4.26 -0.16 8.51 -0.68 12.71 -1.4c2.9423 -0.499 5.8869 -1.0714 8.823 -1.7066c0.1427 -0.0309 0.2853 -0.0619 0.4279 -0.093c0.7018 -0.1533 1.4031 -0.3102 2.1037 -0.4706c0.0876 -0.0201 0.1752 -0.0402 0.2628 -0.0603c4.6528 -1.0706 9.275 -2.2913 13.8226 -3.6195c8.32 -2.43 15.93 -5.59 23.76 -8.75c15.53 -6.28 31.91 -12.7 48.99 -11.44c2.1 0.16 4.18 0.44 6.24 0.85c1.89 0.37 2.69 -2.52 0.8 -2.89c-17.13 -3.39 -34.27 1.7 -50.13 7.91c-8.08 3.16 -16.06 6.62 -24.27 9.45c-6.1368 2.1154 -12.5363 3.8229 -18.9561 5.3105c-0.712 0.165 -1.4243 0.3273 -2.1365 0.4871c-0.1131 0.0254 -0.2261 0.0507 -0.3392 0.0759c-1.344 0.3002 -2.6875 0.5918 -4.0283 0.8765c-4.41 0.94 -8.86 1.72 -13.34 2.15c-4.18 0.4 -8.34 0.22 -12.52 0.42c-8.1 0.38 -16.07 2.26 -23.89 4.3c-7.82 2.04 -15.93 4.45 -24.08 5.82c-7.24 1.22 -14.83 0.7 -21.69 3.66c-12.27 5.29 -19.48 19.02 -22.53 31.41c-0.38 1.54 -0.69 3.1 -0.94 4.66c-0.3 1.89 2.59 2.7 2.89 0.8l0 0l0.0001 0.02z" transform="translate(-18.9022 63.4091)"></path><path fill="#000" d="m83.03 86.34c1.61 -4.01 1.44 -8.34 1.25 -12.57c-0.18 -3.99 -0.4 -8.28 1.88 -11.77c1.73 -2.63 4.52 -4.5 7.21 -6.03c3.18 -1.81 6.55 -3.3 9.84 -4.9c8.39 -4.08 16.8 -7.89 25.73 -10.67c8.93 -2.78 18.1 -4.91 27.37 -5.73c9.27 -0.82 19.45 -0.39 27.58 4.74c1.64 1.03 3.14 -1.56 1.51 -2.59c-7.48 -4.72 -16.66 -5.76 -25.32 -5.39c-9.47 0.4 -18.92 2.36 -28.03 4.92c-9.85 2.77 -19.18 6.7 -28.37 11.16c-3.17 1.54 -6.37 3.04 -9.52 4.63c-3.15 1.59 -6.52 3.6 -8.99 6.32c-3.13 3.44 -4.03 7.73 -3.99 12.27c0.05 4.98 0.87 10.05 -1.04 14.81c-0.72 1.79 2.18 2.57 2.89 0.8l0 0z" transform="translate(-18.9022 63.4091)"></path><g><path fill="#ad5a84" d="m99 196.89c-0.11 1.63 0.6 3.21 1.67 4.44c1.87 2.15 5.61 2.2 8.43 1.77c2.82 -0.43 8.66 -2.79 11.24 -3.99c17.09 -7.97 32.25 -11.22 51.08 -10.22c9.53 0.51 18.98 2.19 28.53 2.37c16.54 0.32 32.8 -3.87 48.81 -8.03c6.81 -1.77 14.35 -4.07 17.8 -10.21c2.38 -4.23 2.17 -9.73 -0.33 -13.89c-2.5 -4.16 -7.15 -6.88 -11.99 -7.27c-2.88 -0.23 -5.76 0.31 -8.57 0.92c-19.48 4.26 -37.79 13.91 -57.63 15.84c-24.94 2.42 -53.73 0.57 -78.59 9.72c-10.88 4 -22.07 10.55 -33.27 7.57c-0.74 -0.2 -1.54 -0.43 -2.26 -0.15c-0.99 0.39 -1.37 1.6 -1.42 2.66c-0.27 5.49 4.96 10 10.37 10.94c5.41 0.94 10.9 -0.78 16.13 -2.47c12.01 -3.88 24.01 -7.76 36.02 -11.64c6.5 -2.1 13.03 -4.21 19.77 -5.3c5.53 -0.9 11.15 -1.1 16.75 -1.21c7.72 -0.16 15.44 -0.16 23.16 0c6.92 0.14 13.86 0.41 20.77 -0.07c5.71 -0.4 11.39 -1.31 16.94 -2.72l-16.94 2.72l-20.77 0.07l-23.16 0c0 0 -8.67 -0.03 -16.75 1.22c-8.08 1.25 -19.77 5.3 -19.77 5.3l-36.02 11.64l0 -0.01z" transform="translate(-18.9022 63.4091)"></path><path fill="#000" d="m97.5 196.89c-0.05 2.11 0.82 4.25 2.34 5.74c1.35 1.33 3.21 1.9 5.05 2.1c3.58 0.4 7.01 -0.65 10.32 -1.88c3.78 -1.4 7.38 -3.2 11.1 -4.74c4.2 -1.74 8.5 -3.26 12.89 -4.48c8.67 -2.4 17.6 -3.47 26.59 -3.41c10.31 0.07 20.48 1.88 30.77 2.42c10.29 0.54 20.48 -0.68 30.53 -2.68c5.05 -1.01 10.07 -2.21 15.07 -3.48c4.33 -1.1 8.74 -2.09 12.97 -3.55c3.6 -1.24 7.16 -2.89 9.94 -5.56c2.98 -2.86 4.69 -6.8 4.68 -10.94c0 -8.55 -6.98 -15.29 -15.31 -16.07c-4.87 -0.45 -9.96 1.04 -14.62 2.29c-4.66 1.25 -9.38 2.77 -14.01 4.34c-9.1 3.07 -18.16 6.37 -27.55 8.45c-9.39 2.08 -18.34 2.38 -27.56 2.83c-9.22 0.45 -18.8 0.8 -28.16 1.7c-9.36 0.9 -18.81 2.34 -27.88 5.05c-9.07 2.71 -17.64 7.67 -27.03 9.56c-2.27 0.46 -4.59 0.67 -6.91 0.53c-1.17 -0.07 -2.33 -0.23 -3.48 -0.5c-1.15 -0.27 -2.21 -0.66 -3.34 -0.41c-4.15 0.91 -3.03 6.9 -1.6 9.54c1.79 3.33 5.23 5.71 8.81 6.73c4.65 1.33 9.68 0.4 14.23 -0.89c5.04 -1.44 10 -3.18 14.98 -4.79c4.98 -1.61 10.11 -3.27 15.17 -4.9c9.84 -3.18 19.71 -6.93 29.96 -8.56c5.09 -0.81 10.25 -0.99 15.39 -1.11c5.14 -0.12 10.5 -0.16 15.75 -0.13c10.57 0.06 21.21 0.85 31.75 -0.21c4.89 -0.49 9.73 -1.33 14.49 -2.53c1.91 -0.48 1.07 -3.19 -0.8 -2.89c-4.35 0.7 -8.7 1.4 -13.05 2.1l-2.98 0.48c-0.25 0.04 -0.5 0.07 -0.75 0.12c-0.43 0.08 0.35 0 0.17 -0.03c-1.5 -0.23 -3.22 0.01 -4.74 0.02c-7.99 0.03 -15.98 0.05 -23.97 0.06c-11.12 0 -22.46 -0.5 -33.46 1.47c-9.08 1.62 -17.85 4.86 -26.62 7.69c-8.77 2.83 -18.28 5.91 -27.42 8.86l-0.6 0.2c-1.83 0.59 -1.05 3.49 0.8 2.89c8.1 -2.62 16.19 -5.23 24.29 -7.85c8.1 -2.62 16.03 -5.44 24.2 -7.53c11.5 -2.95 23.23 -2.72 34.99 -2.72c8.07 0 16.13 -0.02 24.2 -0.05c3.22 -0.01 6.58 0.27 9.77 -0.24l14.67 -2.35l1.3 -0.21l-0.8 -2.89c-9.67 2.43 -19.45 3.06 -29.4 2.91c-9.95 -0.15 -20.22 -0.38 -30.34 -0.18c-4.89 0.1 -9.78 0.24 -14.64 0.83c-4.86 0.59 -9.5 1.65 -14.14 2.99c-9.67 2.79 -19.21 6.11 -28.78 9.2c-4.74 1.53 -9.48 3.06 -14.22 4.6c-4.74 1.54 -9.42 3.27 -14.37 3.29c-3.87 0.01 -7.69 -1.32 -10.22 -4.35c-1.09 -1.3 -1.85 -2.94 -1.91 -4.65c-0.02 -0.49 -0.08 -1.6 0.41 -1.92c0.56 -0.38 2.47 0.43 3.1 0.55c9.07 1.64 17.83 -2.06 26.04 -5.45c8.43 -3.48 17 -6.07 26 -7.62c17.61 -3.02 35.54 -2.77 53.31 -4.11c9.1 -0.68 17.87 -2.34 26.6 -4.99c8.73 -2.65 17.38 -5.94 26.17 -8.6c4.43 -1.34 8.95 -2.61 13.52 -3.36c4.23 -0.69 8.41 -0.21 12 2.26c6.76 4.64 7.44 14.43 1.28 19.85c-2.77 2.44 -6.37 3.81 -9.85 4.88c-4.23 1.3 -8.56 2.32 -12.86 3.39c-9.53 2.38 -19.16 4.51 -28.96 5.37c-9.8 0.86 -19.59 -0.11 -29.41 -1.14c-9.23 -0.97 -18.48 -1.43 -27.73 -0.41c-8.45 0.94 -16.7 3 -24.65 6.01c-3.81 1.45 -7.46 3.2 -11.21 4.79c-2.94 1.24 -6.13 2.67 -9.32 3.07c-3.5 0.44 -8.05 -0.31 -7.94 -4.8c0.05 -1.93 -2.95 -1.93 -3 0l-0.01 0z" transform="translate(-18.9022 63.4091)"></path></g><animateTransform attributeName="transform" type="translate" from="0 0" to="0 0" calcMode="discrete" dur="1000ms" repeatCount="indefinite"></animateTransform><animateMotion keyTimes="0;0.5;1" calcMode="linear" dur="1000ms" repeatCount="indefinite" attributeName="transform" keyPoints="0;0.5;1" path="m192.848 195.5151l0.5154 4.2938l-0.5154 -4.2938" additive="sum"></animateMotion><animateTransform attributeName="transform" type="translate" from="-192.848 -195.5151" to="-192.848 -195.5151" calcMode="discrete" dur="1000ms" repeatCount="indefinite" additive="sum"></animateTransform></g><path fill="#5a8e34" stroke="#000" stroke-width="3" stroke-linecap="round" stroke-linejoin="round" d="m49.97 264.06c-9.96 -7.27 -18.22 -16.86 -23.92 -27.79c-0.9 -1.73 -1.6238 -3.1675 -3.3738 -4.0075c-1.17 -0.57 -1.5887 -0.7284 -3.8194 -1.2665c-4.8989 -1.3483 -9.9318 -2.1713 -15.5254 -3.4766c5.79 -1.9 12.9672 -3.4448 18.7572 -5.3448c-5.55 -2.08 -10.0408 -8.6276 -15.5908 -10.7076c6.91 -0.54 12.6702 0.1748 20.4554 3.2751q-1.3081 -8.8735 -0.5274 -14.843q9.8376 5.2958 14.8869 15.9409c0.825 -3.5376 8.4798 -6.27 13.2398 -7.22c-0.92 5.85 -3.6641 11.3803 -4.5941 17.2303c-0.09 0.57 0.7816 2.4998 1.1516 2.9498c0.24 0.3 0.63 0.44 1 0.56c5.41 1.82 10.82 3.64 16.23 5.47c-3.81 11.4 -10.25 21.9 -18.69 30.47" transform="translate(-18.9022 63.4091)"><animate keyTimes="0;0.5;1" calcMode="linear" dur="1000ms" repeatCount="indefinite" attributeName="d" values="m49.97 264.06c-9.96 -7.27 -18.22 -16.86 -23.92 -27.79c-0.9 -1.73 -1.6238 -3.1675 -3.3738 -4.0075c-1.17 -0.57 -1.5887 -0.7284 -3.8194 -1.2665c-4.8989 -1.3483 -9.9318 -2.1713 -15.5254 -3.4766c5.79 -1.9 12.9672 -3.4448 18.7572 -5.3448c-5.55 -2.08 -10.0408 -8.6276 -15.5908 -10.7076c6.91 -0.54 12.6702 0.1748 20.4554 3.2751q-1.3081 -8.8735 -0.5274 -14.843q9.8376 5.2958 14.8869 15.9409c0.825 -3.5376 8.4798 -6.27 13.2398 -7.22c-0.92 5.85 -3.6641 11.3803 -4.5941 17.2303c-0.09 0.57 0.7816 2.4998 1.1516 2.9498c0.24 0.3 0.63 0.44 1 0.56c5.41 1.82 10.82 3.64 16.23 5.47c-3.81 11.4 -10.25 21.9 -18.69 30.47;m49.3262 259.3173c-9.96 -7.27 -24.6605 -20.4494 -30.3605 -31.3794c-0.9 -1.73 -1.6238 -3.1675 -3.3738 -4.0075c-1.17 -0.57 -1.5887 -0.7284 -3.8194 -1.2665c-4.8989 -1.3483 -9.9318 -2.1713 -15.5254 -3.4766c5.79 -1.9 12.9672 -3.4448 18.7572 -5.3448c-5.55 -2.08 -10.0408 -8.6276 -15.5908 -10.7076c6.91 -0.54 12.6702 0.1748 20.4554 3.2751q-1.3081 -8.8735 -0.5274 -14.843q9.8376 5.2958 14.8869 15.9409c0.825 -3.5376 8.4798 -6.27 13.2398 -7.22c-0.92 5.85 -3.6641 11.3803 -4.5941 17.2303c-0.09 0.57 0.7816 2.4998 1.1516 2.9498c0.24 0.3 0.63 0.44 1 0.56c5.41 1.82 17.2605 7.2294 22.6705 9.0594c-3.81 11.4 -10.25 21.9 -18.69 30.47;m49.97 264.06c-9.96 -7.27 -18.22 -16.86 -23.92 -27.79c-0.9 -1.73 -1.6238 -3.1675 -3.3738 -4.0075c-1.17 -0.57 -1.5887 -0.7284 -3.8194 -1.2665c-4.8989 -1.3483 -9.9318 -2.1713 -15.5254 -3.4766c5.79 -1.9 12.9672 -3.4448 18.7572 -5.3448c-5.55 -2.08 -10.0408 -8.6276 -15.5908 -10.7076c6.91 -0.54 12.6702 0.1748 20.4554 3.2751q-1.3081 -8.8735 -0.5274 -14.843q9.8376 5.2958 14.8869 15.9409c0.825 -3.5376 8.4798 -6.27 13.2398 -7.22c-0.92 5.85 -3.6641 11.3803 -4.5941 17.2303c-0.09 0.57 0.7816 2.4998 1.1516 2.9498c0.24 0.3 0.63 0.44 1 0.56c5.41 1.82 10.82 3.64 16.23 5.47c-3.81 11.4 -10.25 21.9 -18.69 30.47"></animate></path><path fill="#5a8e34" stroke="#000" stroke-width="3" stroke-linecap="round" stroke-linejoin="round" d="m237.14 229.99c-11.51 -8.59 -15.4121 -14.0624 -20.3996 -16.0866c-7.6173 0.8331 -24.0704 0.0166 -32.0404 -0.1434c6.21 -4.39 13.0265 -6.8288 19.2365 -11.2188c-7.12 -1.95 -14.8465 -5.8612 -21.9665 -7.8112c9.03 -3.29 18.99 -4 28.4 -2.02c-4.89 -6.41 -13.5897 -9.9325 -15.9297 -17.6425c9.53 1.68 23.3797 3.0425 29.5897 10.4625c1.11 -4.46 1.887 -11.6618 1.957 -16.2518c5.9972 3.2736 7.273 11.5018 9.463 16.8418c0.76 1.85 1.44 3.84 2.94 5.16c1.54 1.35 3.66 1.76 5.67 2.12c5.4 0.97 10.81 1.94 16.21 2.91c-1.81 6.69 -3.64 13.43 -6.85 19.57c-3.21 6.14 -7.98 11.69 -14.27 14.58l-2.02 -0.47l0.01 0z" transform="translate(-18.9022 63.4091)"><animate keyTimes="0;0.5;1" calcMode="linear" dur="1000ms" repeatCount="indefinite" attributeName="d" values="m237.14 229.99c-11.51 -8.59 -15.4121 -14.0624 -20.3996 -16.0866c-7.6173 0.8331 -24.0704 0.0166 -32.0404 -0.1434c6.21 -4.39 13.0265 -6.8288 19.2365 -11.2188c-7.12 -1.95 -14.8465 -5.8612 -21.9665 -7.8112c9.03 -3.29 18.99 -4 28.4 -2.02c-4.89 -6.41 -13.5897 -9.9325 -15.9297 -17.6425c9.53 1.68 23.3797 3.0425 29.5897 10.4625c1.11 -4.46 1.887 -11.6618 1.957 -16.2518c5.9972 3.2736 7.273 11.5018 9.463 16.8418c0.76 1.85 1.44 3.84 2.94 5.16c1.54 1.35 3.66 1.76 5.67 2.12c5.4 0.97 10.81 1.94 16.21 2.91c-1.81 6.69 -3.64 13.43 -6.85 19.57c-3.21 6.14 -7.98 11.69 -14.27 14.58l-2.02 -0.47l0.01 0z;m229.9549 225.5406c-11.51 -8.59 -18.464 -14.3462 -23.4516 -16.3704c-7.6173 0.8331 -24.0704 0.0166 -32.0404 -0.1434c6.21 -4.39 13.0265 -6.8288 19.2365 -11.2188c-7.12 -1.95 -14.8465 -5.8612 -21.9665 -7.8112c9.03 -3.29 18.99 -4 28.4 -2.02c-4.89 -6.41 -13.5897 -9.9325 -15.9297 -17.6425c9.53 1.68 23.3797 3.0425 29.5897 10.4625c1.11 -4.46 1.887 -11.6618 1.957 -16.2518c5.9972 3.2736 7.273 11.5018 9.463 16.8418c0.76 1.85 1.44 3.84 2.94 5.16c1.54 1.35 3.66 1.76 5.67 2.12c5.4 0.97 13.8619 2.2238 19.2619 3.1938c-1.81 6.69 -3.64 13.43 -6.85 19.57c-3.21 6.14 -7.98 11.69 -14.27 14.58l-2.02 -0.47l0.01 0z;m237.14 229.99c-11.51 -8.59 -15.4121 -14.0624 -20.3996 -16.0866c-7.6173 0.8331 -24.0704 0.0166 -32.0404 -0.1434c6.21 -4.39 13.0265 -6.8288 19.2365 -11.2188c-7.12 -1.95 -14.8465 -5.8612 -21.9665 -7.8112c9.03 -3.29 18.99 -4 28.4 -2.02c-4.89 -6.41 -13.5897 -9.9325 -15.9297 -17.6425c9.53 1.68 23.3797 3.0425 29.5897 10.4625c1.11 -4.46 1.887 -11.6618 1.957 -16.2518c5.9972 3.2736 7.273 11.5018 9.463 16.8418c0.76 1.85 1.44 3.84 2.94 5.16c1.54 1.35 3.66 1.76 5.67 2.12c5.4 0.97 10.81 1.94 16.21 2.91c-1.81 6.69 -3.64 13.43 -6.85 19.57c-3.21 6.14 -7.98 11.69 -14.27 14.58l-2.02 -0.47l0.01 0z"></animate></path><path fill="#9659fa" stroke="#000" stroke-width="3" stroke-linecap="round" stroke-linejoin="round" d="m101.69 304.51c25.89 14.66 59.29 18.34 77.97 41.5c8.28 10.26 12.48 23.13 18.77 34.71c6.98 12.85 16.53 24.09 26 35.22c40.84 -27.53 58.73 -47.99 94.96 -81.36c13.56 -12.48 38.58 -31.7 54.45 -41.05c20.06 -11.82 50.52 -26.93 67.19 -43.84c-15.38 -21.47 -53.13 -58.94 -76.36 -71.21c4.46 8.38 -4.74 15.23 -13.67 18.44c-8.93 3.21 -18.78 1.23 -28.13 -0.45c-18.71 -3.36 -37.68 -5.33 -56.68 -5.91c-1.7 -0.05 -3.47 -0.08 -5.01 0.65c-1.64 0.77 -2.79 2.29 -3.86 3.75c-9.07 12.31 -18.14 24.62 -27.21 36.93l62.81 18.37c-15.11 -4.42 -31.07 -8.92 -39.26 -11.48c-5.55 -1.74 -28.68 2.21 -34.5 2.4c-24.47 0.83 -38.56 -3.79 -61.24 -15.21c0 0 -0.02 0 -0.03 0c-11.69 9.54 -14.12 13.52 -22.54 26.05c0 0 0 0 -0.01 0c-16.2 -5.5 -22.45 -7.8 -27.03 -9.57c-12.56 -4.85 -33.67 -11.55 -47.28 -15.54c-8.15 12.07 -15.59 24.62 -22.29 37.56c0 0 41.95 28.16 62.91 40.03l0.04 0.0099z" transform="translate(-18.9022 63.4091)"><animate keyTimes="0;0.5;1" calcMode="linear" dur="1000ms" repeatCount="indefinite" attributeName="d" values="m101.69 304.51c25.89 14.66 59.29 18.34 77.97 41.5c8.28 10.26 12.48 23.13 18.77 34.71c6.98 12.85 16.53 24.09 26 35.22c40.84 -27.53 58.73 -47.99 94.96 -81.36c13.56 -12.48 38.58 -31.7 54.45 -41.05c20.06 -11.82 50.52 -26.93 67.19 -43.84c-15.38 -21.47 -53.13 -58.94 -76.36 -71.21c4.46 8.38 -4.74 15.23 -13.67 18.44c-8.93 3.21 -18.78 1.23 -28.13 -0.45c-18.71 -3.36 -37.68 -5.33 -56.68 -5.91c-1.7 -0.05 -3.47 -0.08 -5.01 0.65c-1.64 0.77 -2.79 2.29 -3.86 3.75c-9.07 12.31 -18.14 24.62 -27.21 36.93l62.81 18.37c-15.11 -4.42 -31.07 -8.92 -39.26 -11.48c-5.55 -1.74 -28.68 2.21 -34.5 2.4c-24.47 0.83 -38.56 -3.79 -61.24 -15.21c0 0 -0.02 0 -0.03 0c-11.69 9.54 -14.12 13.52 -22.54 26.05c0 0 0 0 -0.01 0c-16.2 -5.5 -22.45 -7.8 -27.03 -9.57c-12.56 -4.85 -33.67 -11.55 -47.28 -15.54c-8.15 12.07 -15.59 24.62 -22.29 37.56c0 0 41.95 28.16 62.91 40.03l0.04 0.0099z;m99.1243 298.8549c25.89 14.66 54.9561 18.5004 73.6361 41.6604c8.28 10.26 19.7266 35.356 26.033 46.927c6.9967 12.8376 12.4015 20.1677 25.6366 28.4977c40.84 -27.53 57.9432 -47.3938 94.1733 -80.7638c13.56 -12.48 42.9405 -34.859 58.8105 -44.209c20.06 -11.82 45.7977 -23.7663 62.4677 -40.6763c-15.38 -21.47 -51.9815 -59.5409 -75.2115 -71.8109c4.46 8.38 -4.74 15.23 -13.67 18.44c-8.93 3.21 -18.78 1.23 -28.13 -0.45c-18.71 -3.36 -49.3547 -9.4126 -68.3547 -9.9926c-1.7 -0.05 -3.47 -0.08 -5.01 0.65c-1.64 0.77 -2.79 2.29 -3.86 3.75c-9.07 12.31 -18.14 24.62 -27.21 36.93l74.4847 22.4525c-15.11 -4.42 -31.07 -8.92 -39.26 -11.48c-5.55 -1.74 -26.2924 4.4852 -32.1124 4.6752c-24.47 0.83 -40.9476 -6.0652 -63.6276 -17.4852c0 0 -0.02 0 -0.03 0c-11.69 9.54 -14.12 13.52 -22.54 26.05c0 0 0 0 -0.01 0c-16.2 -5.5 -30.7726 -12.8521 -35.3526 -14.6221c-12.56 -4.85 -25.9804 -12.1757 -39.5904 -16.1657c-8.15 12.07 -15.59 24.62 -22.29 37.56c0 0 16.3613 14.5781 37.3213 26.4481l23.6959 13.6145z;m101.69 304.51c25.89 14.66 59.29 18.34 77.97 41.5c8.28 10.26 12.48 23.13 18.77 34.71c6.98 12.85 16.53 24.09 26 35.22c40.84 -27.53 58.73 -47.99 94.96 -81.36c13.56 -12.48 38.58 -31.7 54.45 -41.05c20.06 -11.82 50.52 -26.93 67.19 -43.84c-15.38 -21.47 -53.13 -58.94 -76.36 -71.21c4.46 8.38 -4.74 15.23 -13.67 18.44c-8.93 3.21 -18.78 1.23 -28.13 -0.45c-18.71 -3.36 -37.68 -5.33 -56.68 -5.91c-1.7 -0.05 -3.47 -0.08 -5.01 0.65c-1.64 0.77 -2.79 2.29 -3.86 3.75c-9.07 12.31 -18.14 24.62 -27.21 36.93l62.81 18.37c-15.11 -4.42 -31.07 -8.92 -39.26 -11.48c-5.55 -1.74 -28.68 2.21 -34.5 2.4c-24.47 0.83 -38.56 -3.79 -61.24 -15.21c0 0 -0.02 0 -0.03 0c-11.69 9.54 -14.12 13.52 -22.54 26.05c0 0 0 0 -0.01 0c-16.2 -5.5 -22.45 -7.8 -27.03 -9.57c-12.56 -4.85 -33.67 -11.55 -47.28 -15.54c-8.15 12.07 -15.59 24.62 -22.29 37.56c0 0 41.95 28.16 62.91 40.03l0.04 0.0099z"></animate></path><g><path fill="url('#eaf-910b-2')" stroke="#000" stroke-width="3" stroke-linecap="round" stroke-linejoin="round" d="m211.26 284.29c-2.09 7.27 -4.2 14.53 -6.32 21.79c2.68 -0.69 5.15 -1.91 7.6 -3.13c14.04 -6.98 28.0699 -13.95 42.11 -20.93c3.34 -1.66 6.74 -3.36 9.27 -6.11c2.8199 -3.06 4.35 -7.18 5.8199 -11.2c2.17 -5.92 4.37 -12.18 3.3101 -18.78c-8.92 7.87 -19.59 13.39 -30.17 18.84c-11.5699 5.97 -23.14 11.93 -34.71 17.9l3.08 1.62l0.01 0zm-1.36 28.86c19.73 -11.85 53.67 -30.07 57.62 -31.76c3.95 -1.69 2.41 -1.6 3.95 -1.68c1.43 -0.07 2.99 0.5 4.51 1.08c7.8 2.98 15.58 6.27 23.32 9.84c-24.36 7.88 -43.03 21.95 -68.24 32.23c-1.01 0.65 -2.1 1.33 -3.46 1.16c-1.02 -0.13 -2.06 -0.73 -3.06 -1.31c-5.65 -3.29 -11.29 -6.58 -16.94 -9.87l2.31 0.31l-0.01 0zm17.05 40.07c1.62 -6.21 3.24 -12.42 4.86 -18.63c0.32 -1.24 0.66 -2.5 1.35 -3.55c0.96 -1.45 2.5 -2.35 3.99 -3.21c20.01 -11.42 40.5 -22.03 61.4 -31.8c-3.07 7.23 -5.13 14.97 -6.1 22.9c-0.18 1.5 -0.36 3.09 -1.3 4.21c-0.6 0.72 -1.44 1.16 -2.27 1.59c-2.67 1.39 -5.35 2.78 -8.02 4.17c-18.93 9.84 -37.86 19.68 -56.8 29.51l2.89 -5.21l0 0.02z" transform="translate(-18.9022 63.4091)"></path></g><path fill="#534aff" stroke="#000" stroke-width="3" stroke-linecap="round" stroke-linejoin="round" d="m246.97 429.95c45.07 35.28 83.29 24.86 125.83 63.15c10.3 9.27 19.5587 20.0919 32.5287 24.9619c13.24 4.97 27.95 2.62 42.05 3.67c22.27 1.66 43.7547 12.3128 58.4347 29.1328c-4.49 -6.57 -8.98 -13.15 -13.47 -19.72c6.11 -0.72 12.41 0.22 18.04 2.7c-7.37 -4.27 -14.75 -8.55 -22.12 -12.82c4.71 -4.07 10.6 -6.77 16.76 -7.69c-4.5364 0.0798 -9.0926 0.0684 -13.6485 -0.065c-1.3819 -0.0405 -2.7637 -0.0921 -4.145 -0.1559c-1.061 -0.049 -2.1217 -0.1051 -3.1818 -0.1687c-1.4678 -0.0881 -7.4264 -10.6101 -6.7336 -10.7379c0.6927 -0.1278 -1.6847 10.0762 -3.6873 9.8533c-14.5165 -1.6158 -28.7566 -4.9025 -42.0485 -10.8786c-22.82 -10.26 -42.4987 -29.0519 -48.9786 -53.2119c17.47 -13.67 32.62 -30.3 44.61 -48.96c38.638 12.6273 84.0927 16.6469 124.2605 10.842c3.4469 -0.4981 0.6311 9.1203 0.5681 9.0564c-0.063 -0.0639 9.5628 -10.6718 11.8056 -11.1062c7.866 4.2834 17.543 10.1541 26.2781 12.0311c-5.0193 -6.6605 -9.7677 -9.215 -15.6981 -15.9711c6.125 -1.6264 17.7422 -3.405 25.5381 -4.9216c-8.5838 -1.4359 -13.2925 -4.9062 -19.3777 -8.0799l13.8333 -10.1277c-22.9304 0.2484 -75.166 17.9285 -105.766 -0.5815c-22.6 -13.67 -27.1621 -43.7614 -29.9621 -70.0214c-2.8 -26.26 -13.88 -54.67 -13.88 -54.67c0 0 -140.84 108.37 -197.83 174.49" transform="translate(-18.9022 63.4091)"><animate keyTimes="0;0.5;1" calcMode="linear" dur="1000ms" repeatCount="indefinite" attributeName="d" values="m246.97 429.95c45.07 35.28 83.29 24.86 125.83 63.15c10.3 9.27 19.5587 20.0919 32.5287 24.9619c13.24 4.97 27.95 2.62 42.05 3.67c22.27 1.66 43.7547 12.3128 58.4347 29.1328c-4.49 -6.57 -8.98 -13.15 -13.47 -19.72c6.11 -0.72 12.41 0.22 18.04 2.7c-7.37 -4.27 -14.75 -8.55 -22.12 -12.82c4.71 -4.07 10.6 -6.77 16.76 -7.69c-4.5364 0.0798 -9.0926 0.0684 -13.6485 -0.065c-1.3819 -0.0405 -2.7637 -0.0921 -4.145 -0.1559c-1.061 -0.049 -2.1217 -0.1051 -3.1818 -0.1687c-1.4678 -0.0881 -7.4264 -10.6101 -6.7336 -10.7379c0.6927 -0.1278 -1.6847 10.0762 -3.6873 9.8533c-14.5165 -1.6158 -28.7566 -4.9025 -42.0485 -10.8786c-22.82 -10.26 -42.4987 -29.0519 -48.9786 -53.2119c17.47 -13.67 32.62 -30.3 44.61 -48.96c38.638 12.6273 84.0927 16.6469 124.2605 10.842c3.4469 -0.4981 0.6311 9.1203 0.5681 9.0564c-0.063 -0.0639 9.5628 -10.6718 11.8056 -11.1062c7.866 4.2834 17.543 10.1541 26.2781 12.0311c-5.0193 -6.6605 -9.7677 -9.215 -15.6981 -15.9711c6.125 -1.6264 17.7422 -3.405 25.5381 -4.9216c-8.5838 -1.4359 -13.2925 -4.9062 -19.3777 -8.0799l13.8333 -10.1277c-22.9304 0.2484 -75.166 17.9285 -105.766 -0.5815c-22.6 -13.67 -27.1621 -43.7614 -29.9621 -70.0214c-2.8 -26.26 -13.88 -54.67 -13.88 -54.67c0 0 -140.84 108.37 -197.83 174.49;m246.97 429.95c45.07 35.28 84.1713 20.5703 126.7113 58.8603c10.3 9.27 23.4073 16.6465 36.3773 21.5165c13.24 4.97 26.8937 4.2555 40.9936 5.3055c22.27 1.66 41.0367 13.4858 55.7167 30.3057c-4.49 -6.57 -6.262 -14.323 -10.752 -20.8929c6.11 -0.72 12.1535 -0.9417 17.7835 1.5384c-7.37 -4.27 -14.4935 -7.3883 -21.8635 -11.6584c4.71 -4.07 11.0154 -7.5803 17.1754 -8.5003c-4.5364 0.0798 -9.508 0.8787 -14.0638 0.7453c-1.3819 -0.0405 -2.7637 -0.0921 -4.145 -0.1559c-1.061 -0.049 -2.1217 -0.1051 -3.1818 -0.1687c-1.4678 -0.0881 -4.2589 -11.0452 -3.5662 -11.1729c0.6927 -0.1278 -5.1742 9.4157 -7.1768 9.1928c-14.5165 -1.6158 -26.5645 -5.1341 -39.8565 -11.1102c-22.82 -10.26 -44.1602 -25.0509 -50.6402 -49.2109c17.47 -13.67 35.7042 -28.9317 47.6942 -47.5917c38.638 12.6273 77.4798 12.0794 117.6476 6.2746c3.4469 -0.4981 0.6311 9.1203 0.5681 9.0564c-0.063 -0.0639 9.5628 -10.6718 11.8056 -11.1062c7.866 4.2834 16.1521 12.288 24.8872 14.165c-5.0193 -6.6605 -8.3767 -11.3489 -14.3071 -18.105c6.125 -1.6264 20.0399 -0.2626 27.8358 -1.7792c-8.5838 -1.4359 -15.5902 -8.0486 -21.6754 -11.2223l14.498 -13.1071c-22.9304 0.2484 -73.2845 30.1093 -109.0855 3.4851c-21.1943 -15.7616 -24.8606 -38.2239 -27.6606 -64.4839c-2.8 -26.26 -13.88 -54.67 -13.88 -54.67c0 0 -140.84 108.37 -197.83 174.49;m246.97 429.95c45.07 35.28 83.29 24.86 125.83 63.15c10.3 9.27 19.5587 20.0919 32.5287 24.9619c13.24 4.97 27.95 2.62 42.05 3.67c22.27 1.66 43.7547 12.3128 58.4347 29.1328c-4.49 -6.57 -8.98 -13.15 -13.47 -19.72c6.11 -0.72 12.41 0.22 18.04 2.7c-7.37 -4.27 -14.75 -8.55 -22.12 -12.82c4.71 -4.07 10.6 -6.77 16.76 -7.69c-4.5364 0.0798 -9.0926 0.0684 -13.6485 -0.065c-1.3819 -0.0405 -2.7637 -0.0921 -4.145 -0.1559c-1.061 -0.049 -2.1217 -0.1051 -3.1818 -0.1687c-1.4678 -0.0881 -7.4264 -10.6101 -6.7336 -10.7379c0.6927 -0.1278 -1.6847 10.0762 -3.6873 9.8533c-14.5165 -1.6158 -28.7566 -4.9025 -42.0485 -10.8786c-22.82 -10.26 -42.4987 -29.0519 -48.9786 -53.2119c17.47 -13.67 32.62 -30.3 44.61 -48.96c38.638 12.6273 84.0927 16.6469 124.2605 10.842c3.4469 -0.4981 0.6311 9.1203 0.5681 9.0564c-0.063 -0.0639 9.5628 -10.6718 11.8056 -11.1062c7.866 4.2834 17.543 10.1541 26.2781 12.0311c-5.0193 -6.6605 -9.7677 -9.215 -15.6981 -15.9711c6.125 -1.6264 17.7422 -3.405 25.5381 -4.9216c-8.5838 -1.4359 -13.2925 -4.9062 -19.3777 -8.0799l13.8333 -10.1277c-22.9304 0.2484 -75.166 17.9285 -105.766 -0.5815c-22.6 -13.67 -27.1621 -43.7614 -29.9621 -70.0214c-2.8 -26.26 -13.88 -54.67 -13.88 -54.67c0 0 -140.84 108.37 -197.83 174.49"></animate></path><g><path fill="#73a3ff" d="m220.51 410.94c5.58 9.33 14.37 17.48 25.22 20.86c20.25 -17.41 51.47 -51.75 69.09 -68.68c38.6 -37.08 76.03 -62.23 126.62 -99.17c2.2 -1.61 4.54 -3.65 4.66 -6.38c0.16 -3.46 -3.3 -5.84 -6.33 -7.52c-22.82 15.68 -34.42 23.47 -58.45 37.22c-9.55 5.47 -30.25 19.02 -39.3 25.29c-43.89 30.42 -73.03 76 -121.52 98.38l0 0l0.01 0z" transform="translate(-18.9022 63.4091)"></path><path fill="#000" d="m219.21 411.7c5.26 8.74 12.96 16.18 22.42 20.18c1.14 0.48 2.31 1 3.51 1.3c1.29 0.33 2.08 -0.69 2.97 -1.47c1.51 -1.32 3.01 -2.67 4.49 -4.03c3.33 -3.05 6.59 -6.17 9.82 -9.32c14.06 -13.72 27.54 -28.02 41.28 -42.05c13.74 -14.03 28.13 -27.29 43.22 -39.83c16.67 -13.84 34.04 -26.8 51.54 -39.55c9.58 -6.98 19.21 -13.91 28.82 -20.86c5.08 -3.67 10.19 -7.3 15.21 -11.06c1.98 -1.48 3.98 -3.21 4.78 -5.63c0.74 -2.24 0.14 -4.56 -1.28 -6.38c-1.42 -1.82 -3.45 -3.12 -5.46 -4.24c-0.44 -0.25 -1.07 -0.3 -1.51 0c-15.17 10.42 -30.41 20.71 -46.24 30.11c-7.15 4.24 -14.4 8.29 -21.45 12.7c-7.05 4.41 -13.85 8.83 -20.69 13.37c-6.84 4.54 -12.97 8.73 -19.15 13.52c-7.35 5.69 -14.37 11.8 -21.2 18.1c-13.54 12.48 -26.38 25.7 -40.04 38.05c-13.66 12.35 -28 23.54 -44.23 31.97c-2.06 1.07 -4.15 2.09 -6.26 3.07l2.05 2.05l0 0c1.02 -1.64 -1.57 -3.15 -2.59 -1.51l0 0c-0.86 1.38 0.78 2.64 2.05 2.05c16.71 -7.74 31.7 -18.58 45.57 -30.61c13.87 -12.03 26.75 -25.21 40.1 -37.84c12.81 -12.11 26.16 -23.44 40.79 -33.3c13.19 -8.89 26.6 -17.38 40.35 -25.37c15.7 -9.12 30.88 -18.99 45.86 -29.24c2.2 -1.51 4.4 -3.02 6.6 -4.53l-1.51 0c3.24 1.81 7.67 4.98 4.35 8.91c-1.57 1.85 -3.75 3.17 -5.69 4.58c-2.23 1.62 -4.46 3.25 -6.7 4.87c-8.51 6.17 -17.04 12.32 -25.55 18.48c-15.46 11.2 -30.88 22.47 -45.89 34.27c-14.59 11.47 -28.76 23.49 -42.26 36.23c-11.43 10.79 -22.24 22.23 -33.19 33.51c-11.61 11.96 -23.21 24.01 -35.61 35.17c-1.26 1.13 -2.53 2.26 -3.82 3.36l1.46 -0.39c-10.36 -3.29 -18.78 -10.96 -24.33 -20.17c-1 -1.65 -3.59 -0.15 -2.59 1.51l0 0.0201z" transform="translate(-18.9022 63.4091)"></path></g><g><path fill="#e083ea" stroke="#000" stroke-width="3" stroke-linecap="round" stroke-linejoin="round" d="m373.59 195.29c34.8 17.54 22.82 46.23 48.25 66.99c28.6 23.35 53.22 19.92 81.39 43.81c30.49 25.86 73.57 71.55 113.15 77.23c17.91 2.57 53.19 -16.98 70.37 -11.27c17.18 5.71 31.6749 32.4223 35.4049 50.1323c6.66 -16.11 19.1351 -44.6623 32.5051 -55.8523c-12.6 -15.58 -33.92 -20.24 -53.33 -25.2c-52.65 -13.43 -102.95 -36.03 -147.95 -66.46c-21.02 -14.22 -40.89 -30.12 -62.32 -43.73c-20.45 -12.99 -42.18 -23.81 -63.86 -34.6c-14.39 -7.16 -28.78 -14.32 -43.17 -21.48c-7.09 -3.53 -2.05 -7.31 -9.91 -6.34c-5.97 0.73 -12.6 8.97 -17.67 12.2c-10.08 6.41 -29.72 16.73 -41.54 14.44c6.51 1.26 13.01 4.19 11.6 4.1c4.4 0.29 10.95 1.23 5.95 3.69c15.7 -7.72 41.16 -7.65 41.16 -7.65" transform="translate(-18.9022 63.4091)"><animate keyTimes="0;0.5;1" calcMode="linear" dur="1000ms" repeatCount="indefinite" attributeName="d" values="m373.59 195.29c34.8 17.54 22.82 46.23 48.25 66.99c28.6 23.35 53.22 19.92 81.39 43.81c30.49 25.86 73.57 71.55 113.15 77.23c17.91 2.57 53.19 -16.98 70.37 -11.27c17.18 5.71 31.6749 32.4223 35.4049 50.1323c6.66 -16.11 19.1351 -44.6623 32.5051 -55.8523c-12.6 -15.58 -33.92 -20.24 -53.33 -25.2c-52.65 -13.43 -102.95 -36.03 -147.95 -66.46c-21.02 -14.22 -40.89 -30.12 -62.32 -43.73c-20.45 -12.99 -42.18 -23.81 -63.86 -34.6c-14.39 -7.16 -28.78 -14.32 -43.17 -21.48c-7.09 -3.53 -2.05 -7.31 -9.91 -6.34c-5.97 0.73 -12.6 8.97 -17.67 12.2c-10.08 6.41 -29.72 16.73 -41.54 14.44c6.51 1.26 13.01 4.19 11.6 4.1c4.4 0.29 10.95 1.23 5.95 3.69c15.7 -7.72 41.16 -7.65 41.16 -7.65;m373.59 195.29c34.8 17.54 48.1764 41.4086 73.6064 62.1686c28.6 23.35 60.8684 15.1566 89.409 38.6026c43.1311 35.432 30.8963 56.0209 82.318 66.2152c20.2661 4.0177 45.2897 -10.178 62.4697 -4.468c17.18 5.71 11.9945 22.1274 15.7245 39.8374c6.66 -16.11 56.2933 -43.8062 69.6633 -54.9962c-12.6 -15.58 -51.701 -29.2992 -71.1111 -34.2592c-52.65 -13.43 -56.8272 0.5099 -101.8272 -29.9201c-21.02 -14.22 -69.1866 -50.5209 -90.6166 -64.1309c-20.45 -12.99 -38.0603 -11.3789 -59.7403 -22.1689c-14.39 -7.16 -39.4476 -17.0172 -53.8375 -24.1772c-7.09 -3.53 -7.6682 -0.4433 -15.5282 0.5267c-5.97 0.73 -12.6 8.97 -17.67 12.2c-10.08 6.41 -29.72 16.73 -41.54 14.44c6.51 1.26 13.01 4.19 11.6 4.1c4.4 0.29 10.95 1.23 5.95 3.69c15.7 -7.72 41.16 -7.65 41.16 -7.65;m373.59 195.29c34.8 17.54 22.82 46.23 48.25 66.99c28.6 23.35 53.22 19.92 81.39 43.81c30.49 25.86 73.57 71.55 113.15 77.23c17.91 2.57 53.19 -16.98 70.37 -11.27c17.18 5.71 31.6749 32.4223 35.4049 50.1323c6.66 -16.11 19.1351 -44.6623 32.5051 -55.8523c-12.6 -15.58 -33.92 -20.24 -53.33 -25.2c-52.65 -13.43 -102.95 -36.03 -147.95 -66.46c-21.02 -14.22 -40.89 -30.12 -62.32 -43.73c-20.45 -12.99 -42.18 -23.81 -63.86 -34.6c-14.39 -7.16 -28.78 -14.32 -43.17 -21.48c-7.09 -3.53 -2.05 -7.31 -9.91 -6.34c-5.97 0.73 -12.6 8.97 -17.67 12.2c-10.08 6.41 -29.72 16.73 -41.54 14.44c6.51 1.26 13.01 4.19 11.6 4.1c4.4 0.29 10.95 1.23 5.95 3.69c15.7 -7.72 41.16 -7.65 41.16 -7.65"></animate></path></g></g><polyline points="0,0" fill="#ff8aca" stroke="#000" stroke-width="3" transform="matrix(1.0718 0 0 1.0718 522.9459 389.5947)"></polyline><polyline points="0,0" fill="#9659fa" stroke="#000" stroke-width="3" stroke-linecap="round" stroke-linejoin="round" transform="matrix(1.0718 0 0 1.0718 1050.4314 452.5506)"></polyline></g></g></svg>