<svg xmlns="http://www.w3.org/2000/svg" viewBox="0 0 512 650" overflow="hidden" preserveAspectRatio="xMidYMid meet" id="eaf-6e18-0"><defs><clipPath id="eaf-6e18-1"><rect x="0" y="0" width="512" height="650"></rect></clipPath><linearGradient gradientUnits="userSpaceOnUse" x1="104.78" y1="436.7" x2="86.18" y2="404.49" id="eaf-6e18-2"><stop stop-color="#b07eb7" offset="0"></stop><stop stop-color="#8c3d96" offset="0.5"></stop><stop stop-color="#762a90" offset="1"></stop></linearGradient><linearGradient gradientUnits="userSpaceOnUse" x1="110.45" y1="426.99" x2="93.6" y2="397.81" id="eaf-6e18-3"><stop stop-color="#b07eb7" offset="0"></stop><stop stop-color="#8c3d96" offset="0.5"></stop><stop stop-color="#762a90" offset="1"></stop></linearGradient><linearGradient gradientUnits="userSpaceOnUse" x1="138.64" y1="421.48" x2="125.94" y2="399.5" id="eaf-6e18-4"><stop stop-color="#b07eb7" offset="0"></stop><stop stop-color="#8c3d96" offset="0.5"></stop><stop stop-color="#762a90" offset="1"></stop></linearGradient><linearGradient gradientUnits="userSpaceOnUse" x1="163.96" y1="418.51" x2="150.21" y2="394.7" id="eaf-6e18-5"><stop stop-color="#b07eb7" offset="0"></stop><stop stop-color="#8c3d96" offset="0.5"></stop><stop stop-color="#762a90" offset="1"></stop></linearGradient><linearGradient gradientUnits="userSpaceOnUse" x1="156.31" y1="408.98" x2="151.36" y2="400.4" id="eaf-6e18-6"><stop stop-color="#b07eb7" offset="0"></stop><stop stop-color="#8c3d96" offset="0.5"></stop><stop stop-color="#762a90" offset="1"></stop></linearGradient><linearGradient gradientUnits="userSpaceOnUse" x1="182.19" y1="416.63" x2="168.91" y2="393.64" id="eaf-6e18-7"><stop stop-color="#b07eb7" offset="0"></stop><stop stop-color="#8c3d96" offset="0.5"></stop><stop stop-color="#762a90" offset="1"></stop></linearGradient><linearGradient gradientUnits="userSpaceOnUse" x1="186.38" y1="415.1" x2="172.48" y2="391.02" id="eaf-6e18-8"><stop stop-color="#b07eb7" offset="0"></stop><stop stop-color="#8c3d96" offset="0.5"></stop><stop stop-color="#762a90" offset="1"></stop></linearGradient><linearGradient gradientUnits="userSpaceOnUse" x1="228.2" y1="415.91" x2="211.77" y2="387.45" id="eaf-6e18-9"><stop stop-color="#b07eb7" offset="0"></stop><stop stop-color="#8c3d96" offset="0.5"></stop><stop stop-color="#762a90" offset="1"></stop></linearGradient><linearGradient gradientUnits="userSpaceOnUse" x1="265.85" y1="416.99" x2="251.34" y2="391.86" id="eaf-6e18-10"><stop stop-color="#b07eb7" offset="0"></stop><stop stop-color="#8c3d96" offset="0.5"></stop><stop stop-color="#762a90" offset="1"></stop></linearGradient><linearGradient gradientUnits="userSpaceOnUse" x1="259.25" y1="403.54" x2="256.38" y2="398.57" id="eaf-6e18-11"><stop stop-color="#b07eb7" offset="0"></stop><stop stop-color="#8c3d96" offset="0.5"></stop><stop stop-color="#762a90" offset="1"></stop></linearGradient><linearGradient gradientUnits="userSpaceOnUse" x1="288.1" y1="407.79" x2="277.13" y2="388.78" id="eaf-6e18-12"><stop stop-color="#b07eb7" offset="0"></stop><stop stop-color="#8c3d96" offset="0.5"></stop><stop stop-color="#762a90" offset="1"></stop></linearGradient></defs><g clip-path="url('#eaf-6e18-1')" style="isolation: isolate;"><g><g transform="translate(6.6926 47.7285)"><path fill="#7c694a" d="m31.12 336.6c45.53 1.14 89.82 -14.02 135.12 -18.68c60.93 -6.27 122.01 6.55 183.1 10.92c40.1 2.87 72.69 3.1 112.89 2.32c-0.76 6.51 -0.62 4.72 -0.23 10.38c1.58 23.3 3.15 46.6 4.73 69.9c2.51 37.06 5.03 74.29 12.93 110.59c4.59 21.09 11.12 42.12 23.04 60.12c-55.2 -3.11 -110.39 -6.21 -165.59 -9.32c-120.2 -6.77 -212.31 -17.16 -332.22 -6.44c6.36 -20.45 -5.47 -81.73 -1.37 -102.75c11.42 -58.56 -4.6 -78.21 25.81 -129.54"></path><path fill="#000" d="m31.12 339.23c27.92 0.63 55.45 -4.71 82.73 -10.04c13.6 -2.66 27.21 -5.33 40.93 -7.25c14.44 -2.02 28.99 -2.98 43.56 -3.08c28.84 -0.19 57.57 2.78 86.18 6.01c28.61 3.23 57.13 6.4 85.87 7.89c30.59 1.59 61.22 1.61 91.84 1.02l-2.62 -2.62c-0.7 6.02 -0.14 11.71 0.27 17.76c0.61 9.02 1.22 18.05 1.83 27.07c1.2 17.78 2.36 35.56 3.63 53.34c2.49 34.79 5.63 69.87 14.22 103.77c4.48 17.67 10.82 35.05 20.86 50.37l2.27 -3.95c-34.21 -1.93 -68.42 -3.85 -102.63 -5.78c-33.92 -1.91 -67.85 -3.73 -101.75 -5.88c-31.35 -1.99 -62.68 -4.17 -94.05 -5.86c-30.2 -1.63 -60.43 -2.78 -90.68 -2.86c-32.01 -0.08 -64.02 1.05 -95.93 3.55c-4.26 0.33 -8.52 0.69 -12.78 1.07l2.53 3.32c1.64 -5.42 1.91 -11.28 2 -16.9c0.12 -7.44 -0.29 -14.88 -0.79 -22.3c-1.06 -15.74 -2.86 -31.46 -3.3 -47.24c-0.15 -5.41 -0.26 -10.97 0.72 -16.31c1.81 -9.88 3.28 -19.77 4.09 -29.78c1.22 -15.11 0.78 -30.33 2.38 -45.4c2.05 -19.34 9.25 -37.07 19.07 -53.73c1.72 -2.92 -2.82 -5.56 -4.53 -2.65c-8.95 15.19 -16.06 31.44 -18.81 48.95c-2.31 14.67 -1.99 29.57 -2.79 44.36c-0.5 9.21 -1.38 18.39 -2.82 27.5c-1.11 7.02 -2.54 13.76 -2.63 20.88c-0.18 15.35 1.65 30.72 2.82 46c0.66 8.62 1.27 17.26 1.34 25.91c0.05 6.41 0.05 13.14 -1.82 19.33c-0.46 1.52 0.84 3.47 2.53 3.32c32.28 -2.87 64.67 -4.39 97.08 -4.6c30.45 -0.19 60.89 0.74 91.3 2.26c30.41 1.52 62.19 3.68 93.28 5.68c33.53 2.16 67.08 4.02 100.63 5.91c34.21 1.93 68.42 3.85 102.63 5.78c4.3 0.24 8.59 0.48 12.89 0.73c1.95 0.11 3.33 -2.33 2.27 -3.95c-18.1 -27.59 -24.35 -61.68 -28.77 -93.83c-4.78 -34.83 -6.46 -70.05 -8.83 -105.1c-0.67 -9.85 -1.33 -19.69 -2 -29.54c-0.48 -7.14 -1.33 -14.09 -0.5 -21.21c0.16 -1.39 -1.33 -2.65 -2.62 -2.62c-27.23 0.52 -54.48 0.6 -81.7 -0.54c-28.71 -1.21 -57.24 -3.95 -85.78 -7.21c-28.64 -3.26 -57.34 -6.6 -86.2 -7.12c-14.44 -0.26 -28.89 0.2 -43.25 1.72c-13.69 1.45 -27.27 3.81 -40.79 6.39c-30.86 5.89 -61.79 12.91 -93.4 12.2c-3.38 -0.08 -3.38 5.17 0 5.25l0 0l0.02 0.01z"></path></g><g transform="translate(6.6926 47.7285)"><path fill="#ffa364" d="m61.9 381.85c-11.7 52.23 22.32 104.6 17.33 157.89c25.82 5.37 52.54 6.38 78.69 2.97c13.81 -1.8 27.43 -4.82 41.19 -6.9c13.93 -2.11 27.98 -3.26 42.02 -4.42c64.86 -5.32 129.72 -10.65 194.59 -15.97c-5.3 -32.44 -9.49 -65.05 -12.56 -97.78c-1.38 -14.69 -2.81 -30.18 -11.32 -42.22c-1.38 -1.95 -3 -3.83 -5.13 -4.9c-1.89 -0.95 -4.04 -1.47 -6.15 -1.39c-51.53 2 -69.03 0.66 -176.39 -2.17c-15.07 -0.4 -29.73 -1.16 -44.81 -0.84c-39.94 0.86 -81.11 17.17 -117.44 15.72"></path><path fill="#000" d="m59.37 381.16c-9.25 41.92 9.39 82.69 15.76 123.54c1.81 11.58 2.54 23.35 1.48 35.05c-0.1 1.07 0.88 2.31 1.93 2.53c22.54 4.65 45.72 6.14 68.66 4.21c23.04 -1.94 45.55 -7.71 68.54 -10.17c23.26 -2.5 46.64 -4.04 69.96 -5.95c23.52 -1.93 47.04 -3.86 70.56 -5.79c26.49 -2.17 52.98 -4.35 79.47 -6.52c1.83 -0.15 2.82 -1.55 2.53 -3.32c-3.48 -21.31 -6.49 -42.7 -9 -64.15c-1.26 -10.72 -2.39 -21.45 -3.4 -32.2c-0.87 -9.2 -1.65 -18.52 -4.12 -27.46c-1.2 -4.36 -2.83 -8.65 -5.01 -12.62c-2.18 -3.97 -4.74 -8 -8.69 -10.04c-5.5 -2.84 -12.46 -1.55 -18.44 -1.36c-8.94 0.29 -17.89 0.48 -26.84 0.54c-20.12 0.14 -40.24 -0.39 -60.35 -0.94c-15.39 -0.42 -30.78 -0.86 -46.17 -1.29c-20.72 -0.58 -41.44 -1.4 -62.16 -1.73c-10.34 -0.16 -20.65 0 -30.93 1.13c-10.28 1.13 -19.92 2.83 -29.79 4.75c-19.14 3.72 -38.26 8.38 -57.76 9.65c-4.56 0.3 -9.12 0.38 -13.68 0.22c-3.38 -0.12 -3.37 5.13 0 5.25c18.88 0.7 37.65 -2.98 56.06 -6.69c19.39 -3.9 38.86 -8.19 58.69 -8.96c10.67 -0.41 21.38 -0.07 32.05 0.28c10.52 0.34 21.03 0.63 31.55 0.91c16.79 0.46 33.57 0.94 50.36 1.41c21.33 0.6 42.67 1.25 64.02 1.28c8.63 0.01 17.26 -0.09 25.88 -0.3c4.7 -0.12 9.39 -0.26 14.09 -0.43c2.91 -0.1 6.2 -0.65 9.03 0.15c4.37 1.25 6.84 5.58 8.85 9.36c4.17 7.84 5.89 16.8 6.96 25.53c1.23 10.11 2 20.27 3.09 30.4c2.29 21.21 5.04 42.36 8.25 63.45c0.78 5.09 1.58 10.18 2.41 15.26l2.53 -3.32c-47.04 3.86 -94.08 7.72 -141.11 11.58c-23.39 1.92 -46.8 3.65 -70.17 5.82c-11.38 1.06 -22.71 2.43 -33.97 4.37c-11.26 1.94 -22.57 4.28 -33.96 5.7c-25.48 3.17 -51.43 2.13 -76.57 -3.06l1.93 2.53c3.82 -42.1 -15.66 -81.36 -19.26 -122.7c-1 -11.53 -0.67 -23.16 1.83 -34.49c0.73 -3.29 -4.33 -4.7 -5.06 -1.4l0 0l-0.03 -0.0101z"></path></g><g transform="translate(6.6926 47.7285)"><path fill="#5a8e34" d="m144.4 67.16c-13.4 4.67 -24.81 17.76 -29.41 31.18c-6.71 19.57 -2.78 42.07 -2.91 62.76c-0.05 6.91 -0.07 18.33 1.86 24.97c2.67 9.19 4.23 11.02 10.5 18.25c5.11 5.89 15.04 13.15 21.22 17.92c23.84 18.42 56.51 19.15 86.61 18.03c22.77 -0.85 45.87 -2.36 67.34 -9.99c8.03 -2.85 17.17 -13.95 22.77 -20.38c5.6 -6.43 6.47 -8.24 12.9 -13.81c6.43 -5.57 14.22 -15.48 18.73 -23.72c3.09 -5.64 -0.35 -9.54 3.67 -14.56c2.67 -3.33 4.22 4.7 8.56 -0.67c4.34 -5.37 21.28 -24.99 18.22 -31.17c-0.68 -1.38 -3.58 -4.94 -4.11 -6.39c-1.54 -4.19 2.5 -4.29 3.29 -8.68c1.75 -9.69 -2.3 -27.78 1.27 -32.11c5.86 -7.1 -5.57 -15.24 -14.59 -13.4c1.98 -10.65 -9.75 -23.76 -20.44 -22c-3.42 -18.95 -25.25 -29.92 -44.49 -30.79c-19.24 -0.87 -37.72 6.78 -55.52 14.12c-1.74 0.72 -3.57 1.45 -5.45 1.31c-2.18 -0.16 -3.1 -3.62 -4.95 -4.79c-18.68 -11.9 -34.49 -15.93 -54.83 -7.17c-4.38 1.89 -17.39 6.88 -20.92 10.08c-11.13 10.12 -13.16 24.15 -14.96 39.08l-4.37 1.92l0.01 0.01z"></path></g><g transform="translate(6.6926 47.7285)"><path fill="#bd7e4d" d="m157.54 127.68c-3.46 0.29 -6.42 2.86 -8 5.94c-1.58 3.08 -2.01 6.63 -2.16 10.1c-0.32 7.32 0.68 15.2 5.5 20.72c4.07 4.67 10.19 6.91 16.12 8.7c9.96 3.01 20.13 5.27 30.29 7.52c17.47 3.88 35.25 7.78 53.08 6.29c23.88 -1.99 47.54 -11.58 67.08 -25.46c2.45 -1.74 3.4 -5.5 6.3 -6.32c2.85 -0.81 5.89 -0.6 8.85 -0.38c7.37 0.55 14.75 1.1 22.12 1.65c3 0.22 6.11 0.43 8.9 -0.67c3.63 -1.43 6.07 -4.78 8.31 -7.97c4.25 -6.06 8.65 -12.49 9.32 -19.86c0.14 -1.49 0.09 -3.09 -0.73 -4.35c-1.33 -2.05 -4.3 -2.44 -6.61 -1.64c-2.31 0.8 -4.18 2.5 -6.13 3.98c-14.38 10.9 -34.07 10.32 -51.5 14.96c-10.55 2.81 -20.44 7.62 -30.7 11.33c-27.4 9.88 -57.65 11.68 -86.03 5.13c-6.6 -1.53 -11.01 -2.8 -16.09 -7.29c-4.58 -4.05 -7.08 -12.97 -10.93 -17.73c-3.85 -4.76 -12.2 -6.43 -18.24 -5.45"></path><path fill="#fff" d="m173.99 87.04l-10.9 9.16c6.73 7.81 16.8 11.85 26.7 14.72c9.9 2.87 20.19 4.92 29.23 9.88c3.61 1.98 7.04 4.45 11.03 5.49c4.57 1.2 9.4 0.41 14.06 -0.39c5.13 -0.88 10.29 -1.76 15.22 -3.45c7.9 -2.71 14.94 -7.41 21.88 -12.05c9.54 9.3 22.57 14.52 35.8 16.08c13.23 1.56 26.67 -0.33 39.54 -3.78c5.79 -1.55 11.65 -3.51 16.21 -7.39c6.87 -5.84 9.71 -15.02 12 -23.74c0.46 -1.75 0.91 -3.59 0.45 -5.33c-0.39 -1.51 -1.44 -2.79 -2.67 -3.75c-6.59 -5.16 -16.01 -1.53 -24.33 -0.67c-4.16 0.43 -8.36 0.09 -12.55 0.1c-11.24 0.02 -22.46 2.57 -32.6 7.42c-5.33 2.55 -10.37 5.72 -15.93 7.73c-5.56 2.01 -11.88 2.75 -17.28 0.36c-5.18 -2.29 -8.82 -7.14 -13.83 -9.77c-4.01 -2.11 -8.62 -2.66 -13.12 -3.19c-26.78 -3.12 -53.05 -5.09 -78.91 2.58"></path><path fill="#5a8e34" d="m129.75 318.3c-0.05 15.01 4.27 30.01 12.31 42.7c-2.97 0.11 -5.94 0.22 -8.92 0.32c-0.48 0.02 -1 0.05 -1.38 0.35c-0.51 0.4 -0.59 1.14 -0.62 1.8c-0.36 7.31 -0.73 14.63 -1.09 21.94c-5.07 -4.97 -10.58 -9.49 -16.44 -13.47c-2.55 6.65 -5.11 13.3 -7.66 19.95c-5.11 -5.08 -10.37 -10 -15.78 -14.75l-7.95 12c-4.91 -20.36 -1.62 -42.57 8.98 -60.63"></path><path fill="#000" d="m127.13 318.3c-0.01 15.5 4.4 30.9 12.66 44.02l2.27 -3.95c-3.13 0.11 -6.35 0.03 -9.46 0.37c-1.72 0.18 -3.15 1.03 -3.75 2.73c-0.49 1.39 -0.38 3.03 -0.46 4.49c-0.32 6.48 -0.64 12.97 -0.96 19.45l4.48 -1.86c-5.24 -5.12 -10.93 -9.76 -16.98 -13.89c-1.52 -1.04 -3.29 0.11 -3.86 1.57c-2.55 6.65 -5.11 13.3 -7.66 19.95l4.39 -1.16c-5.11 -5.08 -10.37 -9.99 -15.78 -14.75c-1.32 -1.16 -3.15 -0.94 -4.12 0.53c-2.65 4 -5.3 8 -7.95 12l4.8 0.63c-3.67 -15.41 -2.53 -31.76 2.99 -46.6c1.55 -4.16 3.48 -8.17 5.72 -12.01c1.7 -2.92 -2.83 -5.57 -4.53 -2.65c-8.46 14.51 -12.47 31.57 -11.39 48.34c0.31 4.82 1.03 9.62 2.15 14.31c0.55 2.32 3.61 2.42 4.8 0.63c2.65 -4 5.3 -8 7.95 -12l-4.12 0.53c5.41 4.76 10.67 9.68 15.78 14.75c1.51 1.5 3.7 0.64 4.39 -1.16c2.55 -6.65 5.11 -13.3 7.66 -19.95l-3.86 1.57c5.69 3.88 10.99 8.25 15.91 13.06c1.68 1.64 4.37 0.39 4.48 -1.86c0.27 -5.49 0.54 -10.97 0.82 -16.46c0.07 -1.33 0.13 -2.66 0.2 -3.99c0.01 -0.23 0.24 -1.71 0.1 -1.83c0.18 0.14 -1.07 0.69 -1.01 0.83c0.02 0.04 0.8 -0.04 0.86 -0.04c2.81 -0.11 5.61 -0.2 8.42 -0.3c1.92 -0.07 3.37 -2.2 2.27 -3.95c-7.79 -12.37 -11.96 -26.75 -11.95 -41.37c0 -3.38 -5.25 -3.38 -5.25 0l0 0l-0.01 0.02z"></path><path fill="#5a8e34" d="m311.97 325.35c-4.2 15.94 -10.87 31.23 -19.71 45.14c5.88 0.44 11.77 0.89 17.65 1.33c-0.49 7.19 -2.19 14.3 -5.03 20.93c8.43 -4.48 15.82 -10.91 21.42 -18.64c3.68 4.8 7.36 9.6 11.04 14.4c3.17 -5.85 6.96 -11.36 11.3 -16.41c2.89 4.16 5.78 8.33 8.67 12.49c4.69 -7.15 6.81 -15.94 5.9 -24.44c-0.91 -8.5 -4.84 -16.65 -10.93 -22.65"></path><path fill="#000" d="m309.44 324.65c-4.17 15.75 -10.73 30.75 -19.44 44.52c-1.14 1.8 0.38 3.81 2.27 3.95c5.88 0.44 11.77 0.89 17.65 1.33l-2.62 -2.62c-0.48 6.71 -2.04 13.4 -4.67 19.61c-0.46 1.1 -0.49 2.28 0.41 3.18c0.84 0.84 2.15 0.96 3.18 0.41c8.86 -4.75 16.45 -11.48 22.37 -19.59l-4.53 0c3.68 4.8 7.36 9.6 11.04 14.4c1.13 1.47 3.5 1.91 4.53 0c3.08 -5.65 6.7 -10.98 10.89 -15.88l-4.12 -0.53c2.89 4.16 5.78 8.33 8.67 12.49c1.14 1.64 3.41 1.73 4.53 0c5.03 -7.78 7.33 -17.37 6.16 -26.58c-1.14 -8.95 -5.2 -17.32 -11.6 -23.69c-2.4 -2.39 -6.11 1.32 -3.71 3.71c5.47 5.45 9.15 12.69 10.12 20.38c1.03 8.22 -1.01 16.59 -5.5 23.52l4.53 0c-2.89 -4.16 -5.78 -8.33 -8.67 -12.49c-0.89 -1.28 -2.94 -1.91 -4.12 -0.53c-4.47 5.23 -8.41 10.89 -11.71 16.94l4.53 0c-3.68 -4.8 -7.36 -9.6 -11.04 -14.4c-1.26 -1.64 -3.29 -1.71 -4.53 0c-5.38 7.37 -12.45 13.4 -20.48 17.7l3.59 3.59c3.01 -7.11 4.84 -14.55 5.39 -22.26c0.11 -1.49 -1.29 -2.52 -2.62 -2.62c-5.88 -0.44 -11.77 -0.89 -17.65 -1.33l2.27 3.95c8.94 -14.12 15.7 -29.61 19.97 -45.77c0.87 -3.27 -4.2 -4.66 -5.06 -1.4l0 0l-0.03 0.0099z"></path></g><g transform="translate(6.6926 47.7285)"><path fill="#915cd6" d="m126.26 208.63c-5.04 4.03 -9.3 8.93 -13.49 13.81c-3.88 4.52 -8.16 8.41 -11.46 13.34c-7.32 10.91 -12.88 22.92 -17.17 35.32c-4.98 14.38 -11.33 34.79 -11.83 46.21c-0.43 9.79 -0.65 19.39 -1.92 29.11c-0.26 1.96 1.11 5.68 1 5.97c0 0 4.01 2.59 6.21 2.7c23.45 1.2 45.36 0.72 68.47 -3.42c0.68 -8.27 0.67 -14.21 0.33 -22.5c24.04 -0.02 48.62 -5.47 74.89 -6.1c23.99 -0.57 49.58 3.6 73.71 5.21c-0.75 6.29 -1.39 14.51 -2.15 21.96c28.59 2.01 58.18 3 86.78 5.01c0.11 -21.46 1.69 -43.85 -3.19 -65.16c-1.9 -8.28 -3.25 -16.79 -5.92 -24.85c-2.22 -6.72 -4.44 -14.48 -7.89 -20.67c-3.93 -7.04 -8.99 -14.2 -14.22 -20.33c-5.76 -6.75 -11.44 -14.45 -19.56 -19.44c-15.31 19.29 -39.66 29.46 -63.94 33.64c-48.52 8.34 -101.44 2.43 -138.65 -29.81"></path></g><ellipse fill="#4c3612" rx="36.9" ry="16" transform="translate(290.0626 558.8285)"></ellipse><g transform="translate(6.6926 47.7285)"><path fill="#fff" d="m242.85 558.68c-2 -16.69 -2.91 -35.03 3.64 -50.52c3.67 4.8 8.49 9.64 14.33 11.17c9.01 2.35 22.96 2.48 32.28 2.33c9.32 -0.15 18.77 -2.39 26.5 -7.59c-1.79 8.12 -2.97 16.37 -3.53 24.66c-0.4 5.9 -0.68 12.32 -4.55 16.78c-3.4 3.92 -8.79 5.35 -13.88 6.35c-15.59 3.06 -31.61 3.89 -47.43 2.48c-3.96 -0.36 -8.39 -1.11 -10.71 -4.34"></path><path fill="#000" d="m245.47 558.68c-1.97 -16.54 -3.02 -34.11 3.54 -49.82l-4.8 0.63c3.32 4.31 7.16 8.54 12.14 10.94c4.61 2.22 9.99 2.76 15.03 3.23c5.04 0.47 10.42 0.64 15.64 0.66c5.22 0.02 10.69 -0.07 15.99 -1.01c6.34 -1.12 12.53 -3.41 17.9 -6.98l-3.86 -2.96c-1.77 8.11 -2.97 16.35 -3.57 24.62c-0.43 5.92 -0.35 13.23 -5.49 17.26c-2.41 1.89 -5.45 2.8 -8.38 3.5c-3.8 0.9 -7.69 1.52 -11.56 2.07c-8.03 1.13 -16.16 1.62 -24.27 1.55c-4.54 -0.04 -9.08 -0.25 -13.59 -0.66c-2.76 -0.25 -6.62 -0.63 -8.44 -3.04c-0.85 -1.13 -2.26 -1.72 -3.59 -0.94c-1.11 0.65 -1.8 2.45 -0.94 3.59c2.23 2.95 5.39 4.47 8.99 5.13c4.01 0.73 8.17 0.89 12.24 1.05c8.75 0.35 17.52 0.02 26.21 -0.99c4.42 -0.51 8.82 -1.18 13.19 -2.02c3.59 -0.69 7.17 -1.56 10.44 -3.24c3.27 -1.68 5.97 -4.28 7.54 -7.57c1.57 -3.29 2.2 -6.99 2.54 -10.66c0.42 -4.51 0.64 -9.03 1.2 -13.53c0.61 -4.94 1.49 -9.85 2.55 -14.71c0.46 -2.09 -1.83 -4.31 -3.86 -2.96c-4.37 2.9 -9.21 4.85 -14.33 5.99c-4.84 1.08 -9.73 1.26 -14.68 1.28c-4.89 0.02 -9.78 -0.07 -14.66 -0.4c-4.5 -0.31 -9.12 -0.72 -13.47 -1.98c-5.14 -1.48 -9.21 -5.73 -12.38 -9.86c-1.45 -1.89 -3.89 -1.55 -4.8 0.63c-6.72 16.1 -5.75 34.26 -3.73 51.21c0.17 1.41 1.09 2.62 2.62 2.62c1.29 0 2.79 -1.21 2.62 -2.62l0 0l0.0199 -0.0101z"></path><path fill="#fff" d="m317.88 517.53c1.54 -2.97 4.67 -4.96 7.98 -5.52c3.31 -0.56 6.74 0.2 9.74 1.7c1.88 0.94 3.62 2.18 4.99 3.78c4 4.69 4.08 11.47 3.95 17.64c-0.06 3.05 -0.31 6.49 -2.65 8.45c-1.12 0.94 -2.57 1.37 -3.98 1.76c-6.85 1.89 -13.86 3.19 -20.92 3.89c-0.42 0.04 -0.9 0.06 -1.21 -0.23c-0.24 -0.23 -0.3 -0.58 -0.31 -0.91c-0.14 -3.42 3.09 -5.91 5.96 -7.77c1.62 -1.05 3.25 -2.1 4.87 -3.15c2.76 -1.78 5.62 -3.66 7.31 -6.48c1.69 -2.82 1.8 -6.87 -0.64 -9.07c-2.03 -1.83 -5.09 -1.85 -7.79 -1.47c-2.7 0.38 -5.5 1.06 -8.12 0.27"></path><path fill="#000" d="m320.15 518.86c2.07 -3.8 6.6 -5.02 10.64 -4.1c4.33 0.99 8.32 3.72 9.86 8.01c1.54 4.29 1.4 8.75 1.24 13.11c-0.06 1.74 -0.12 3.93 -1.3 5.34c-1.27 1.53 -4.16 1.83 -5.96 2.28c-3.05 0.77 -6.13 1.43 -9.23 1.97c-1.52 0.26 -3.04 0.5 -4.57 0.71c-0.72 0.1 -1.44 0.18 -2.16 0.26c-0.4 0.05 -0.8 0.09 -1.2 0.13l-0.48 0.05c-0.47 0 -0.43 0.04 0.12 0.13l0.94 0.94c0.07 0.1 -0.02 0.68 0.05 0.24c0 -0.03 0.05 -0.67 0.03 -0.51c0.03 -0.15 0.12 -0.46 0.19 -0.62c0.27 -0.64 0.74 -1.2 1.23 -1.7c1.13 -1.15 2.47 -2.02 3.82 -2.89c3.34 -2.16 6.99 -4.16 9.88 -6.93c2.61 -2.49 4.51 -5.98 4.19 -9.68c-0.32 -3.7 -2.8 -7.06 -6.69 -7.93c-2.09 -0.47 -4.18 -0.33 -6.27 -0.04c-2.22 0.31 -4.5 0.87 -6.72 0.27c-3.27 -0.88 -4.66 4.18 -1.4 5.06c2.73 0.74 5.41 0.36 8.15 -0.06c1.87 -0.29 4.12 -0.68 5.91 0.15c3.43 1.6 1.39 6.23 -0.61 8.24c-3.3 3.31 -7.79 5.24 -11.51 8.01c-1.77 1.32 -3.54 2.84 -4.53 4.85c-1.08 2.18 -1.7 5.72 0.81 7.21c1.14 0.68 2.36 0.52 3.61 0.38c1.52 -0.17 3.03 -0.36 4.54 -0.57c2.8 -0.39 5.58 -0.88 8.35 -1.46c2.77 -0.58 5.3 -1.18 7.91 -1.93c2.44 -0.7 4.64 -1.77 6.13 -3.9c2.51 -3.6 2.16 -8.85 2.05 -13.03c-0.12 -4.55 -0.75 -9.39 -3.29 -13.29c-5.97 -9.16 -22.32 -12.23 -28.26 -1.35c-1.62 2.97 2.91 5.62 4.53 2.65l0 0l0 -0.0001z"></path><path fill="#fff" d="m319.42 514.28c1.55 -6.22 1.18 -13.28 -2.64 -18.42c-5.25 -7.07 -15.18 -8.55 -23.98 -8.34c-12.12 0.29 -24.18 2.68 -35.49 7.03c-3.4 1.31 -6.83 2.86 -9.32 5.51c-2.49 2.65 -3.87 6.66 -2.5 10.03c11.61 -5.88 24.35 -9.93 37.36 -10.13c13.01 -0.2 26.33 3.7 36.18 12.21"></path><path fill="#000" d="m321.95 514.98c1.67 -6.93 1.33 -14.86 -3.12 -20.73c-4.03 -5.31 -10.35 -7.91 -16.79 -8.83c-7.52 -1.07 -15.22 -0.45 -22.7 0.64c-8.09 1.18 -16.08 3.28 -23.67 6.32c-3.8 1.53 -7.67 3.4 -10.27 6.68c-2.6 3.28 -3.94 7.7 -2.44 11.72c0.62 1.65 2.24 2.38 3.86 1.57c17.55 -8.84 38.21 -13.36 57.14 -6.14c4.79 1.83 9.33 4.47 13.23 7.81c1.08 0.92 2.66 1.06 3.71 0c0.94 -0.94 1.08 -2.79 0 -3.71c-16.37 -14 -39.27 -15.57 -59.25 -9.57c-6.03 1.81 -11.86 4.25 -17.48 7.08l3.86 1.57c-2.28 -6.09 4.55 -10.16 9.24 -12.02c6.74 -2.68 13.8 -4.62 20.95 -5.84c6.56 -1.12 13.39 -1.75 20.04 -1.28c5.21 0.37 10.92 1.64 14.82 5.36c4.85 4.62 5.32 11.79 3.83 17.97c-0.79 3.28 4.27 4.68 5.06 1.4l0 0l-0.02 0z"></path></g><g transform="translate(6.6926 47.7285)"><path fill="url('#eaf-6e18-2')" d="m88.78 401.97c0.19 11.53 2.17 23.01 5.89 33.92c0.93 2.71 5.18 2.38 5.16 -0.7c-0.01 -1.52 -0.02 -3.04 -0.03 -4.56c-0.02 -3.38 -5.27 -3.38 -5.25 0c0.01 1.52 0.02 3.04 0.03 4.56l5.16 -0.7c-3.58 -10.5 -5.52 -21.44 -5.7 -32.53c-0.06 -3.37 -5.31 -3.39 -5.25 0l0 0l-0.01 0.01z"></path><path fill="url('#eaf-6e18-3')" d="m91.5 397.04c-1.05 0.5 -1.9 1.58 -2.07 2.74c-0.32 2.12 1.13 3.52 3.23 3.23c4.8 -0.66 11.98 -0.37 13.69 5.29c1.71 5.66 -6.31 7.64 -10.41 8.13c-1.3 0.15 -2.41 0.88 -2.58 2.28c-0.16 1.32 0.61 2.48 1.88 2.88c3.88 1.22 7.76 2.45 11.64 3.67c1.8 0.57 3.78 1.5 5.67 1.62c2.19 0.15 4.43 -1.43 4.24 -3.81c-0.11 -1.41 -1.13 -2.62 -2.62 -2.62c-1.34 0 -2.73 1.2 -2.62 2.62l0.09 -0.47l0.94 -0.94c0.21 -0.16 0.57 0.17 0.08 -0.09c-0.26 -0.13 -0.61 -0.19 -0.89 -0.28c-0.7 -0.22 -1.4 -0.44 -2.1 -0.66c-1.47 -0.47 -2.95 -0.93 -4.42 -1.4c-2.87 -0.91 -5.74 -1.81 -8.62 -2.72l-0.7 5.16c4.34 -0.52 8.7 -1.25 12.13 -4.18c2.98 -2.53 4.4 -6.43 3.43 -10.26c-0.97 -3.83 -3.8 -6.73 -7.21 -8.22c-4.16 -1.82 -8.63 -1.69 -13.04 -1.08l3.23 3.23c-0.18 0.04 -0.29 0.18 -0.34 0.4c1.28 -0.61 1.62 -2.44 0.94 -3.59c-0.76 -1.31 -2.31 -1.56 -3.59 -0.94l0 0l0.02 0.0099z"></path><path fill="url('#eaf-6e18-4')" d="m131.08 395.16c-6.55 1.38 -10.36 8.25 -11.58 14.33c-1.34 6.69 0.7 15.12 7.83 17.67c3.32 1.19 7 -0.92 9.65 -2.82c2.65 -1.9 4.81 -4.11 6.46 -6.83c3.24 -5.3 4.19 -12.77 0.11 -17.91c-2.33 -2.93 -6.16 -4.27 -9.85 -3.94c-1.81 0.16 -3.96 0.54 -5.37 1.77c-1.64 1.42 -2.02 4.08 -0.28 5.62c1.06 0.94 2.67 1.05 3.71 0c0.96 -0.96 1.07 -2.77 0 -3.71l0.03 2.01l0 0.04c-0.11 0 0.47 -0.14 0.54 -0.16c0.45 -0.13 0.91 -0.25 1.37 -0.31c1.03 -0.13 2.09 -0.06 3.09 0.22c1.7 0.49 2.98 1.72 3.63 3.36c1.5 3.79 0.11 8.09 -2.11 11.28c-1.14 1.64 -2.65 3.1 -4.28 4.24c-1.25 0.86 -3.7 2.77 -5.27 2.07c-4.13 -1.82 -4.98 -7.28 -4.19 -11.21c0.86 -4.31 3.14 -9.66 7.91 -10.66c1.39 -0.29 2.19 -1.92 1.83 -3.23c-0.4 -1.44 -1.84 -2.13 -3.23 -1.83l0 0z"></path><path fill="url('#eaf-6e18-5')" d="m151.44 418.61c2.33 -10.01 6.67 -19.37 12.77 -27.63l-4.8 -0.63c2.62 8.83 2.7 18.05 2.76 27.18l5.16 -0.7c-0.17 -1.17 -0.79 -2.23 -1.65 -3.03c-2.47 -2.3 -6.19 1.4 -3.71 3.71c0.36 0.34 0.23 0.24 0.3 0.71c0.18 1.27 1.73 2.05 2.88 1.88c1.27 -0.19 2.28 -1.25 2.28 -2.58c-0.06 -9.58 -0.2 -19.32 -2.95 -28.58c-0.69 -2.33 -3.49 -2.39 -4.8 -0.63c-6.34 8.59 -10.88 18.49 -13.3 28.88c-0.76 3.29 4.3 4.69 5.06 1.4l0 0l0 0.02z"></path><path fill="url('#eaf-6e18-6')" d="m145.5 407.29c5.56 -0.1 11.12 -0.07 16.67 0.07c1.37 0.04 2.69 -1.23 2.62 -2.62c-0.07 -1.39 -1.15 -2.59 -2.62 -2.62c-5.56 -0.14 -11.12 -0.17 -16.67 -0.07c-1.37 0.02 -2.69 1.19 -2.62 2.62c0.07 1.43 1.15 2.65 2.62 2.62l0 0z"></path><path fill="url('#eaf-6e18-7')" d="m171.64 390.96c1.03 9.4 1.87 18.82 2.52 28.26c0.23 3.34 5.15 3.41 5.25 0c0.02 -0.53 0.03 -1.06 0.05 -1.58c0.1 -3.38 -5.15 -3.38 -5.25 0c-0.02 0.53 -0.03 1.06 -0.05 1.58l5.25 0c-0.66 -9.44 -1.5 -18.86 -2.52 -28.26c-0.15 -1.41 -1.1 -2.62 -2.62 -2.62c-1.3 0 -2.78 1.21 -2.62 2.62l0 0l-0.01 0z"></path><path fill="url('#eaf-6e18-8')" d="m174.9 392.51c3.71 0.76 7.45 2.1 10.5 4.41c2.55 1.93 4.7 5 4.38 8.34c-0.29 3.06 -2.85 5.2 -5.34 6.67c-3.42 2.01 -7.26 3.2 -10.51 5.52l3.18 4.12c0.43 -0.49 0.79 -0.72 1.39 -0.97c1.3 -0.56 1.59 -2.48 0.94 -3.59c-0.79 -1.35 -2.28 -1.5 -3.59 -0.94c-0.94 0.4 -1.77 1.03 -2.45 1.79c-0.87 0.97 -1.05 2.39 -0.21 3.45c0.75 0.95 2.3 1.45 3.39 0.68c3.66 -2.6 8.09 -3.79 11.78 -6.32c3.69 -2.53 6.57 -6.15 6.69 -10.79c0.24 -9.97 -10.29 -15.68 -18.75 -17.41c-1.39 -0.28 -2.84 0.4 -3.23 1.83c-0.36 1.3 0.44 2.94 1.83 3.23l0 0l0 -0.02z"></path><path fill="url('#eaf-6e18-9')" d="m207.49 413.3c1.15 -7.61 2.94 -15.11 5.34 -22.43l-4.39 1.16c2.39 2.52 4.78 5.04 7.17 7.55c2.08 2.19 4.9 6.59 8.41 4.57c1.31 -0.75 1.98 -2.22 2.75 -3.45c0.77 -1.23 1.64 -2.52 2.54 -3.73c1.84 -2.46 3.96 -4.7 6.21 -6.78l-4.48 -1.86c0.6 7.61 2.1 15.1 4.57 22.32c1.09 3.18 6.16 1.81 5.06 -1.4c-2.32 -6.77 -3.83 -13.79 -4.39 -20.93c-0.18 -2.27 -2.74 -3.46 -4.48 -1.86c-2.22 2.04 -4.26 4.25 -6.11 6.62c-0.93 1.19 -1.82 2.41 -2.66 3.68c-0.43 0.66 -0.85 1.32 -1.25 2c-0.05 0.09 -0.52 0.78 -0.49 0.83c0 0.02 1.73 -0.1 0.56 -0.2l1.32 0.36c-0.88 -0.38 -1.81 -1.75 -2.52 -2.5l-2.84 -2.99c-1.89 -1.99 -3.78 -3.98 -5.67 -5.97c-1.42 -1.5 -3.79 -0.65 -4.39 1.16c-2.4 7.32 -4.18 14.81 -5.34 22.43c-0.21 1.4 0.35 2.82 1.83 3.23c1.24 0.34 3.02 -0.42 3.23 -1.83l0 0l0.02 0.02z"></path><path fill="url('#eaf-6e18-10')" d="m248.06 415.43c2.24 -3.95 4.27 -8.01 6.07 -12.18c1.53 -3.55 2.89 -7.25 5.11 -10.45c0.9 -1.3 2.05 -2.64 3.44 -3.44c0.49 -0.29 1.17 -0.55 1.63 -0.59c0.39 -0.04 0.57 -0.08 0.75 0.29c0.76 1.54 0.93 3.69 1.1 5.39c0.21 2.12 0.24 4.26 0.08 6.38c-0.34 4.49 -1.64 8.91 -3.73 12.9l4.89 1.32c-0.16 -1.36 -0.32 -2.72 -0.48 -4.09c-0.16 -1.37 -1.09 -2.62 -2.62 -2.62c-1.29 0 -2.79 1.21 -2.62 2.62c0.17 1.41 0.32 2.72 0.48 4.09c0.14 1.17 0.72 2.2 1.93 2.53c1.08 0.3 2.43 -0.18 2.96 -1.21c2.34 -4.47 3.77 -9.26 4.32 -14.27c0.26 -2.4 0.29 -4.82 0.08 -7.23c-0.21 -2.41 -0.51 -4.93 -1.31 -7.19c-0.87 -2.45 -2.86 -4.09 -5.5 -4.16c-2.35 -0.06 -4.54 1.09 -6.31 2.55c-3.45 2.85 -5.51 6.99 -7.25 11.03c-2.3 5.35 -4.68 10.61 -7.56 15.69c-1.67 2.94 2.86 5.59 4.53 2.65l0 0l0.01 -0.01z"></path><path fill="url('#eaf-6e18-11')" d="m250.54 405.86c5.25 -1.74 10.57 -3.25 15.95 -4.54c1.34 -0.32 2.26 -1.91 1.83 -3.23c-0.45 -1.39 -1.8 -2.18 -3.23 -1.83c-5.38 1.29 -10.7 2.8 -15.95 4.54c-1.3 0.43 -2.29 1.83 -1.83 3.23c0.42 1.3 1.83 2.3 3.23 1.83l0 0l0 0z"></path><path fill="url('#eaf-6e18-12')" d="m279.48 412.64c0.58 -4.14 1.16 -8.27 1.74 -12.41c0.58 -4.14 0.88 -8.01 2.28 -11.76l-2.53 1.93c5.02 -0.06 9.92 3.02 11.99 7.68c0.26 0.58 0.87 1.88 0.61 2.42c-0.46 0.94 -2.7 1.19 -3.54 1.35c-1.44 0.27 -2.98 0.28 -4.43 0.1c-1.34 -0.17 -3.22 -0.5 -4.33 -1.32l0.94 0.94l0.05 0.25l0 1.4l0.02 -0.16l-1.21 1.57l0.14 -0.07c1.26 -0.64 1.63 -2.42 0.94 -3.59c-0.75 -1.29 -2.32 -1.58 -3.59 -0.94c-2.22 1.12 -1.64 4.16 0.23 5.28c1.62 0.97 3.76 1.47 5.61 1.74c3.66 0.53 7.8 0.29 11.11 -1.5c7.61 -4.12 0.53 -13.87 -4.15 -17.17c-3.01 -2.12 -6.72 -3.25 -10.4 -3.21c-1.24 0.01 -2.12 0.82 -2.53 1.93c-1.41 3.75 -1.73 7.82 -2.28 11.76c-0.58 4.14 -1.16 8.27 -1.74 12.41c-0.2 1.4 0.34 2.82 1.83 3.23c1.23 0.34 3.03 -0.42 3.23 -1.83l0 0l0.01 -0.03z"></path></g><g transform="translate(6.6926 47.7285)"><path fill="#000" d="m297.23 410.11c-1.37 7.54 -2.45 15.13 -3.26 22.75c-0.27 2.52 3.88 3.69 4.89 1.32c0.21 -0.5 0.44 -0.97 0.8 -1.38c0.94 -1.06 1.04 -2.67 0 -3.71c-0.96 -0.96 -2.76 -1.06 -3.71 0c-0.66 0.74 -1.23 1.52 -1.62 2.44l4.89 1.32c0.76 -7.15 1.79 -14.27 3.08 -21.35c0.25 -1.39 -0.38 -2.83 -1.83 -3.23c-1.27 -0.35 -2.97 0.43 -3.23 1.83l0 0l-0.01 0.01z"></path><path fill="#000" d="m312.15 409.57c-5.45 0.51 -8.59 5.44 -9.18 10.51c-0.28 2.38 0.06 4.9 0.94 7.12c0.88 2.22 2.39 4.93 4.62 6.12c2.62 1.39 5.62 0.16 7.94 -1.27c2.08 -1.29 3.83 -2.97 5.28 -4.94c1.35 -1.84 2.4 -4.03 2.87 -6.27c0.33 -1.57 0.33 -3.07 -0.36 -4.55c-0.56 -1.2 -1.5 -2.22 -2.53 -3.03c-4.72 -3.74 -11.85 -3.21 -15.69 1.57c-0.89 1.1 -1.08 2.63 0 3.71c0.92 0.92 2.82 1.11 3.71 0c1.05 -1.31 2.03 -2 3.55 -2.39c1.17 -0.3 2.84 -0.19 3.98 0.44c0.8 0.44 1.11 0.63 1.73 1.27c0.26 0.28 0.33 0.33 0.51 0.67c0.08 0.17 0.13 0.35 0.09 0.61c-0.26 1.65 -0.81 2.84 -1.69 4.26c-0.77 1.23 -1.72 2.32 -3.03 3.37c0.27 -0.22 -0.19 0.14 -0.26 0.19c-0.15 0.11 -0.31 0.22 -0.47 0.32c-0.35 0.23 -0.72 0.45 -1.09 0.65c-0.66 0.36 -1.29 0.63 -1.76 0.75c-0.08 0.02 -0.45 0.06 -0.22 0.03c0.13 -0.01 -0.04 0.02 -0.17 -0.08c0.27 0.2 -0.18 -0.17 -0.23 -0.23c-0.13 -0.14 -0.26 -0.28 -0.39 -0.42c-0.39 -0.45 -0.87 -1.27 -1.26 -2.02c-0.58 -1.12 -0.92 -2.83 -0.94 -4.16c-0.02 -1.11 0.04 -1.55 0.27 -2.47c0.27 -1.08 0.41 -1.42 0.88 -2.22c0.41 -0.69 0.81 -1.18 1.35 -1.61c-0.25 0.2 0.44 -0.29 0.38 -0.25c0.05 -0.03 0.62 -0.34 0.38 -0.23c-0.3 0.14 0.47 -0.15 0.42 -0.14c0.1 -0.03 0.82 -0.13 0.34 -0.09c1.41 -0.13 2.62 -1.11 2.62 -2.62c0 -1.32 -1.21 -2.76 -2.62 -2.62l0 0l0.03 0.02z"></path><path fill="#000" d="m326.11 416.31l-0.26 12.54c-0.04 1.99 -0.34 4.17 -0.04 6.14c0.36 2.33 2.63 3.13 4.69 3.43c3.62 0.52 7.23 -0.43 10.1 -2.7c2.87 -2.27 4.92 -6.43 2.53 -9.91c-1.2 -1.75 -3.05 -3.03 -5.14 -3.45c-2.44 -0.49 -4.86 -0.1 -7.27 0.36l1.4 5.06c2.72 -1.07 5.39 -2.27 7.03 -4.82c1.64 -2.55 1.46 -5.82 -0.62 -7.99c-1.05 -1.1 -2.5 -1.64 -4.01 -1.64c-0.69 0 -1.36 0.1 -2.04 0.05c-0.68 -0.05 -1.29 0 -1.94 0.17c-0.84 0.22 -1.74 0.46 -2.51 0.87c-1.41 0.74 -2.22 2.5 -1.28 3.96c0.76 1.19 2.33 1.68 3.59 0.94c1.19 -0.69 1.71 -2.39 0.94 -3.59l-0.04 -0.06l0.36 1.32l0 -0.06c-0.11 0.44 -0.23 0.88 -0.35 1.32c-0.23 0.46 -0.58 0.76 -1.04 0.89c0.12 -0.05 0.24 -0.09 0.36 -0.13c0.25 -0.08 0.51 -0.16 0.77 -0.23c0.16 -0.05 0.32 -0.1 0.48 -0.14c0.44 -0.11 -0.24 -0.12 0.37 -0.05c0.79 0.09 1.55 -0.03 2.34 -0.02c0.38 0 0.46 0 0.25 0.02c-0.22 -0.1 -0.2 -0.08 0.08 0.07c-0.19 -0.14 -0.17 -0.1 0.06 0.11c-0.11 -0.15 -0.12 -0.14 -0.03 0c0.08 0.16 0.09 0.15 0.02 -0.02c0.06 0.17 0.11 0.34 0.14 0.52c-0.04 -0.25 -0.05 -0.22 -0.03 0.1c0.04 -0.2 0.03 -0.14 -0.05 0.19c-0.11 0.38 -0.39 0.84 -0.7 1.16c-0.89 0.93 -2.31 1.51 -3.54 1.99c-1.32 0.52 -2.24 1.76 -1.83 3.23c0.41 1.47 1.83 2.1 3.23 1.83c1.4 -0.27 2.76 -0.54 4.16 -0.4c1.1 0.11 1.63 0.38 2.3 1.08c0.34 0.36 0.54 0.91 0.33 1.3c-0.43 0.83 -1.32 1.78 -1.93 2.16c-0.47 0.3 -0.94 0.58 -1.44 0.81c0.29 -0.13 -0.31 0.12 -0.4 0.15c-0.31 0.1 -0.62 0.19 -0.93 0.27c-0.11 0.03 -0.89 0.18 -0.53 0.13c-0.27 0.04 -0.55 0.05 -0.83 0.07c-0.28 0.02 -0.55 0.01 -0.83 0c-0.14 0 -0.28 -0.02 -0.41 -0.03c-0.45 -0.03 0.33 0.06 -0.12 -0.01c-0.27 -0.05 -0.54 -0.11 -0.81 -0.18c-0.66 -0.18 -0.89 -0.55 -0.18 0.55c0.71 1.1 0.48 0.67 0.5 -0.06l0.03 -1.33l0.1 -4.94c0.08 -3.67 0.15 -7.34 0.23 -11.02c0.03 -1.42 -1.23 -2.62 -2.62 -2.62c-1.39 0 -2.6 1.2 -2.62 2.62l0 0l-0.02 -0.0099z"></path><path fill="#000" d="m350.78 436.3c-0.45 -3.44 -0.91 -6.89 -1.36 -10.33c-0.09 -0.72 -0.23 -1.32 -0.77 -1.86c-0.46 -0.46 -1.2 -0.8 -1.86 -0.77c-0.66 0.03 -1.38 0.25 -1.86 0.77c-0.44 0.47 -0.86 1.18 -0.77 1.86c0.45 3.44 0.91 6.89 1.36 10.33c0.09 0.72 0.23 1.32 0.77 1.86c0.46 0.46 1.2 0.8 1.86 0.77c0.66 -0.03 1.38 -0.25 1.86 -0.77c0.44 -0.47 0.86 -1.19 0.77 -1.86l0 0z"></path><path fill="#000" d="m348.12 419.97l0 -0.21c0 -3.38 -5.25 -3.38 -5.25 0l0 0.21c0 3.38 5.25 3.38 5.25 0l0 -0.21c0 -3.38 -5.25 -3.38 -5.25 0l0 0.21c0 3.38 5.25 3.38 5.25 0l0 0z"></path><path fill="#000" d="m351.9 419.97c-0.15 5.96 -0.3 11.93 -0.45 17.89c-0.04 1.6 1.73 3.12 3.32 2.53c1.25 -0.46 2.31 -1.33 2.58 -2.71c0.27 -1.38 -0.39 -2.83 -1.83 -3.23c-1.29 -0.35 -2.95 0.44 -3.23 1.83l1.09 -0.96l3.32 2.53c0.15 -5.96 0.3 -11.93 0.45 -17.89c0.04 -1.42 -1.23 -2.62 -2.62 -2.62c-1.39 0 -2.59 1.2 -2.62 2.62l0 0l-0.01 0.01z"></path><path fill="#000" d="m364.01 421.95c-1.38 5.82 -3.29 11.56 -5.72 16.97l4.89 1.32l-0.48 0.94c0.92 -1.08 1.06 -2.65 0 -3.71c-0.94 -0.94 -2.79 -1.09 -3.71 0c-0.67 0.79 -1.16 1.69 -1.05 2.77c0.11 1.08 0.73 2.26 1.93 2.53c1.05 0.24 2.48 -0.13 2.96 -1.21c2.64 -5.87 4.76 -11.95 6.25 -18.22c0.32 -1.33 -0.42 -2.91 -1.83 -3.23c-1.41 -0.32 -2.89 0.4 -3.23 1.83l0 0l-0.01 0.01z"></path><path fill="#000" d="m369.06 428.3c-0.75 2.14 -1.54 4.27 -2.38 6.38c-0.41 1.04 -0.83 2.07 -1.25 3.1c-0.09 0.23 -0.19 0.46 -0.29 0.68c0.2 -0.47 -0.18 0.43 -0.22 0.51c-0.23 0.53 -0.46 1.06 -0.69 1.59l4.8 0.63c0.14 0.87 -0.02 -0.11 0.04 -0.09c0.04 0.01 -0.14 0.6 0.02 0.02c0.02 -0.06 0.03 -0.13 0.06 -0.19c0.06 -0.18 0.04 -0.13 -0.07 0.17c-0.02 -0.11 0.26 -0.43 0.32 -0.5c0.81 -1.11 0.22 -2.98 -0.94 -3.59c-1.36 -0.72 -2.72 -0.25 -3.59 0.94c-0.99 1.36 -1.15 3.02 -0.89 4.63c0.16 1.01 1.26 1.76 2.18 1.88c0.92 0.12 2.2 -0.31 2.62 -1.25c1.95 -4.44 3.74 -8.94 5.35 -13.51c0.46 -1.3 -0.52 -2.93 -1.83 -3.23c-1.47 -0.33 -2.74 0.45 -3.23 1.83l0 0l-0.0099 0z"></path><path fill="#000" d="m372.59 420.33l-0.67 1.33c-0.19 0.3 -0.3 0.63 -0.31 0.98c-0.08 0.35 -0.06 0.7 0.05 1.05c0.08 0.34 0.24 0.64 0.47 0.89c0.19 0.29 0.43 0.51 0.74 0.68l0.63 0.26c0.47 0.13 0.93 0.13 1.4 0l0.63 -0.26c0.39 -0.23 0.71 -0.55 0.94 -0.94l0.67 -1.33c0.19 -0.3 0.3 -0.63 0.31 -0.98c0.08 -0.35 0.06 -0.7 -0.05 -1.05c-0.08 -0.34 -0.24 -0.64 -0.47 -0.89c-0.19 -0.29 -0.43 -0.51 -0.74 -0.68l-0.63 -0.26c-0.47 -0.13 -0.93 -0.13 -1.4 0l-0.63 0.26c-0.39 0.23 -0.71 0.55 -0.94 0.94l0 0z"></path><path fill="#000" d="m381.84 430.21c-8.09 -2 -13.44 8.88 -8.97 15.05c1.1 1.52 2.65 2.67 4.53 2.99c2.06 0.35 4.07 -0.13 5.89 -1.11c3.24 -1.75 6.27 -5.31 6.12 -9.17c-0.09 -2.3 -1.14 -4.41 -3.08 -5.69c-1.8 -1.18 -4.09 -1.22 -6.16 -1.11c-1.37 0.08 -2.69 1.15 -2.62 2.62c0.06 1.36 1.16 2.71 2.62 2.62c0.61 -0.03 1.21 -0.06 1.82 -0.04c0.17 0 0.34 0.02 0.5 0.03l0.1 0c0.3 0.04 0.27 0.04 -0.1 0c0.08 -0.03 0.94 0.25 0.95 0.25c-0.03 0.08 -0.45 -0.26 -0.1 -0.03c0.14 0.09 0.28 0.17 0.42 0.25c0.3 0.17 -0.36 -0.42 -0.03 0c0.04 0.06 0.2 0.24 0.24 0.27c-0.32 -0.17 -0.22 -0.34 -0.1 -0.09c0.05 0.1 0.36 0.44 0.11 0.16l-0.06 -0.15c0.04 0.11 0.08 0.23 0.12 0.34c0.02 0.08 0.17 0.5 0.13 0.53c-0.01 0 -0.05 -0.69 -0.02 -0.15c0 0.12 0.01 0.24 0.01 0.37c0 0.15 -0.02 0.31 -0.02 0.46c0 0.37 0.17 -0.63 0 -0.06c-0.08 0.25 -0.14 0.51 -0.22 0.76c-0.19 0.61 0.19 -0.31 -0.01 0.02c-0.11 0.17 -0.19 0.36 -0.29 0.53c-0.09 0.15 -0.19 0.28 -0.27 0.43c-0.07 0.11 -0.21 0.42 0.05 -0.04c-0.14 0.25 -0.41 0.49 -0.61 0.69c-0.21 0.22 -0.43 0.44 -0.66 0.64c-0.1 0.09 -0.21 0.18 -0.31 0.27c-0.44 0.4 0.33 -0.21 -0.12 0.1c-0.45 0.31 -1.05 0.81 -1.61 0.94c0.55 -0.13 0.12 -0.05 -0.04 0c-0.16 0.05 -0.32 0.11 -0.48 0.15c-0.13 0.03 -0.26 0.06 -0.39 0.09c-0.61 0.14 0.53 0 -0.09 0c-0.16 0 -0.33 0.01 -0.49 0l-0.1 0c-0.3 -0.03 -0.26 -0.02 0.11 0.02c-0.09 0.04 -0.73 -0.13 -0.77 -0.22c0.07 0.12 0.5 0.28 0.11 0.03c-0.11 -0.07 -0.23 -0.14 -0.34 -0.21c-0.3 -0.17 0.12 -0.08 0.15 0.13c0 -0.04 -0.31 -0.29 -0.35 -0.32c-0.07 -0.08 -0.14 -0.16 -0.21 -0.23c-0.36 -0.38 0.2 0.39 0.07 0.09c-0.09 -0.21 -0.26 -0.41 -0.37 -0.62c-0.01 -0.02 -0.1 -0.27 -0.14 -0.29c0.26 0.18 0.17 0.49 0.06 0.09c-0.08 -0.3 -0.18 -0.58 -0.24 -0.88c-0.01 -0.06 -0.03 -0.3 -0.06 -0.33c0.14 0.14 0.05 0.56 0.03 0.2c-0.02 -0.28 -0.04 -0.56 -0.03 -0.84c0 -0.23 0.02 -0.45 0.04 -0.67c0.03 -0.57 -0.13 0.46 -0.01 0.12c0.05 -0.15 0.06 -0.33 0.1 -0.49c0.09 -0.36 0.21 -0.7 0.33 -1.05c0.12 -0.35 -0.07 -0.06 -0.03 0.07c-0.02 -0.07 0.24 -0.48 0.27 -0.54c0.16 -0.29 0.33 -0.6 0.55 -0.85c-0.39 0.44 -0.06 0.1 0.04 -0.01c0.14 -0.15 0.28 -0.29 0.43 -0.42l0.08 -0.07c0.22 -0.19 0.21 -0.17 -0.05 0.04c0.08 -0.13 0.39 -0.25 0.52 -0.32c0.07 -0.04 0.3 -0.19 0.36 -0.18c-0.29 0.12 -0.34 0.14 -0.16 0.08c0.1 -0.03 0.19 -0.07 0.29 -0.09c0.13 -0.04 0.26 -0.06 0.39 -0.1c0.55 -0.16 -0.43 -0.03 0.1 0c0.16 0 0.34 0.01 0.5 0c0.2 0.01 0.13 0 -0.2 -0.04c0.13 0.02 0.26 0.05 0.39 0.09c1.33 0.33 2.91 -0.43 3.23 -1.83c0.32 -1.4 -0.41 -2.88 -1.83 -3.23l0 0l-0.02 -0.0499z"></path><path fill="#000" d="m391.79 433.54c-1.76 4.48 -3.02 9.14 -3.76 13.9c-0.2 1.29 0.22 2.57 1.52 3.1c1.18 0.47 2.63 0.09 3.28 -1.07c1.14 -2.06 2.13 -3.36 3.84 -4.97c0.43 -0.41 0.88 -0.8 1.34 -1.17c-0.31 0.25 0.33 -0.25 0.34 -0.25c0.22 -0.16 0.45 -0.32 0.67 -0.47c0.46 -0.31 0.94 -0.59 1.42 -0.86l0.25 -0.13c-0.19 0.08 -0.14 0.06 0.16 -0.04l0.27 -0.07c-0.24 0.04 -0.2 0.05 0.13 0.04c-0.31 -0.04 -0.37 -0.04 -0.18 0.01c0.19 0.06 0.13 0.04 -0.16 -0.07c0.49 0.3 -0.26 -0.37 0.12 0.08c0.41 0.49 -0.2 -0.45 0.11 0.13c0.1 0.2 0.22 0.38 0.31 0.58c-0.25 -0.52 0.02 0.13 0.04 0.22c0.06 0.22 0.11 0.44 0.15 0.66c-0.12 -0.59 0 0.03 0 0.18c0.01 0.28 0.01 0.55 0 0.83c-0.01 0.28 -0.03 0.55 -0.06 0.82c0.05 -0.45 -0.05 0.31 -0.07 0.39c-0.11 0.54 -0.26 1.07 -0.44 1.59c-0.21 0.6 -0.96 1.94 -1.35 2.42l4.39 1.16c-0.04 -0.31 -0.08 -0.63 -0.13 -0.94c-0.19 -1.41 -1.99 -2.17 -3.23 -1.83c-1.52 0.42 -2.02 1.82 -1.83 3.23c0.04 0.31 0.08 0.63 0.13 0.94c0.26 1.9 3.22 2.59 4.39 1.16c2.09 -2.57 3.35 -5.61 3.46 -8.94c0.1 -3.02 -1.11 -6.42 -4.15 -7.57c-3.24 -1.22 -6.55 1.4 -8.88 3.36c-2.33 1.96 -4.15 4.27 -5.58 6.85l4.8 2.02c0.74 -4.76 2 -9.41 3.76 -13.9c0.5 -1.28 -0.55 -2.94 -1.83 -3.23c-1.51 -0.34 -2.69 0.46 -3.23 1.83l0 0l0 0.01z"></path></g><g transform="translate(6.6926 47.7285)"><path fill="#000" d="m367.62 475.45c-4.03 3.44 -6.46 8.68 -6.48 13.98c-0.02 4.99 2.11 9.68 5.28 13.45c7.05 8.36 18.88 10.5 29.28 9.77c2.91 -0.21 5.89 -0.73 8.42 -2.29c2.3 -1.42 4.14 -3.51 5.64 -5.73c2.75 -4.08 4.17 -9.13 4.1 -14.04c-0.13 -9.98 -6.6 -18.7 -15.8 -22.32c-11.88 -4.67 -24.23 1.74 -33.98 8.26c-1.18 0.79 -1.69 2.31 -0.94 3.59c0.68 1.17 2.41 1.73 3.59 0.94c7.39 -4.95 16.46 -10.47 25.77 -8.91c7.56 1.27 13.96 7.11 15.67 14.62c0.88 3.85 0.44 7.99 -1.02 11.64c-1.46 3.65 -4.25 7.42 -8.24 8.48c-2.16 0.58 -4.45 0.61 -6.68 0.62c-2.36 0 -4.74 -0.11 -7.06 -0.5c-4.29 -0.72 -8.62 -2.17 -12.05 -4.92c-3.43 -2.75 -5.98 -6.48 -6.6 -10.77c-0.67 -4.62 1.34 -9.16 4.83 -12.15c1.08 -0.92 0.95 -2.77 0 -3.71c-1.07 -1.07 -2.63 -0.92 -3.71 0l0 0l-0.0201 -0.01z"></path><path fill="#000" d="m380.82 482.88c3.38 0 3.38 -5.25 0 -5.25c-3.38 0 -3.38 5.25 0 5.25l0 0z"></path><path fill="#000" d="m392.42 483.14c3.38 0 3.38 -5.25 0 -5.25c-3.38 0 -3.38 5.25 0 5.25l0 0z"></path><path fill="#000" d="m369.91 486.64c-2.19 3.11 -1.78 7.51 0.58 10.4c2.79 3.4 8.09 3.59 12.13 3.92c2.32 0.19 4.65 0.26 6.98 0.2c2.33 -0.06 4.53 -0.16 6.62 -1.08c3.64 -1.59 5.81 -5.1 7.64 -8.45c0.94 -1.73 -0.23 -3.96 -2.27 -3.95c-0.37 0 -0.73 0 -1.1 0c-3.38 0.01 -3.38 5.26 0 5.25c0.37 0 0.73 0 1.1 0l-2.27 -3.95c-1.21 2.21 -2.52 4.83 -4.8 6.11c-1.34 0.75 -2.94 0.75 -4.45 0.8c-1.85 0.06 -3.69 0.05 -5.54 -0.05c-1.85 -0.1 -3.54 -0.25 -5.29 -0.51c-1.4 -0.21 -3.07 -0.36 -4.25 -1.2c-1.57 -1.13 -1.63 -3.32 -0.56 -4.84c0.82 -1.16 0.21 -2.92 -0.94 -3.59c-1.31 -0.77 -2.77 -0.22 -3.59 0.94l0 0l0.01 0z"></path></g><g transform="translate(6.6926 47.7285)"><path fill="#000" d="m111.09 497.13c-7.1 6.28 -7.53 17.83 -2.14 25.31c6.18 8.58 16.98 11.71 27.14 10.3c5.48 -0.76 10.92 -2.69 15.74 -5.39c4.82 -2.7 7.47 -6.85 7.69 -12.24c0.19 -4.86 -1.75 -9.51 -4.41 -13.49c-2.66 -3.98 -6.38 -7.93 -10.84 -10.15c-5.96 -2.97 -12.77 -2.37 -19.17 -1.48c-3.01 0.42 -5.75 1.16 -8.45 2.61c-2.52 1.36 -4.86 3.17 -6.78 5.3c-2.26 2.5 1.44 6.23 3.71 3.71c2.73 -3.03 6.4 -5.42 10.45 -6.19c4.7 -0.89 10.06 -1.52 14.76 -0.41c3.89 0.92 7.09 3.56 9.67 6.51c2.58 2.95 4.72 6.45 5.53 10.26c0.74 3.49 0.13 7.36 -2.76 9.7c-1.69 1.37 -3.81 2.3 -5.79 3.16c-2.19 0.96 -4.49 1.72 -6.81 2.29c-8.02 1.96 -17.14 0.94 -23.29 -5.02c-2.89 -2.8 -4.71 -6.5 -4.83 -10.54c-0.12 -4.04 1.24 -7.84 4.28 -10.53c1.06 -0.94 0.96 -2.75 0 -3.71c-1.06 -1.06 -2.65 -0.94 -3.71 0l0 0l0.01 0.0001z"></path><path fill="#000" d="m122.83 505.26c3.38 0 3.38 -5.25 0 -5.25c-3.38 0 -3.38 5.25 0 5.25l0 0z"></path><path fill="#000" d="m138.17 504.26c3.38 0 3.38 -5.25 0 -5.25c-3.38 0 -3.38 5.25 0 5.25l0 0z"></path><path fill="#000" d="m125.56 518.65c0.25 -1.21 0.39 -1.7 1.09 -2.62c-0.27 0.35 0.25 -0.24 0.26 -0.25c0 0 0.6 -0.54 0.25 -0.26c0.19 -0.15 0.4 -0.28 0.61 -0.4c0.11 -0.06 0.7 -0.31 0.2 -0.12c0.47 -0.18 0.96 -0.32 1.46 -0.43c0.26 -0.06 0.52 -0.11 0.79 -0.15c-0.37 0.06 0.09 0 0.23 -0.02c0.51 -0.05 1.03 -0.06 1.55 -0.05c0.24 0 0.47 0.04 0.71 0.05c0.2 0.02 0.15 0.02 -0.16 -0.02c0.13 0.02 0.25 0.05 0.38 0.07c0.43 0.09 0.86 0.19 1.28 0.32c0.21 0.07 0.42 0.14 0.63 0.21c0.58 0.2 -0.33 -0.2 0.15 0.07c0.35 0.19 0.69 0.39 1.03 0.6c0.52 0.32 -0.36 -0.36 0.08 0.06c0.14 0.13 0.29 0.26 0.43 0.39c0.14 0.13 0.27 0.28 0.4 0.43c0.1 0.11 0.44 0.6 0.09 0.1c0.24 0.35 0.48 0.7 0.69 1.07c0.49 0.85 0.89 1.74 1.27 2.64c0.55 1.31 2.48 1.59 3.59 0.94c1.35 -0.79 1.5 -2.28 0.94 -3.59c-0.85 -2.02 -1.9 -4.08 -3.56 -5.57c-1.83 -1.65 -4.14 -2.56 -6.56 -2.9c-2.63 -0.37 -5.58 -0.02 -7.97 1.19c-2.62 1.32 -4.34 4 -4.92 6.82c-0.28 1.39 0.4 2.84 1.83 3.23c1.3 0.36 2.94 -0.44 3.23 -1.83l0 0l0 0.0201z"></path></g><g transform="translate(6.6926 47.7285)"><g><path fill="#fff" d="m100.49 454.94c9.63 7.98 19.56 15.62 29.75 22.87c1.16 0.82 2.92 0.2 3.59 -0.94c0.77 -1.32 0.22 -2.77 -0.94 -3.59c-9.83 -7 -19.39 -14.35 -28.68 -22.05c-1.09 -0.9 -2.64 -1.07 -3.71 0c-0.93 0.93 -1.1 2.8 0 3.71l0 0l-0.01 0z"></path><path fill="#fff" d="m107.48 484.64c0.9 -6.14 4.56 -11.25 8.4 -15.94c4.29 -5.25 9 -10.14 14.05 -14.66c1.06 -0.95 0.96 -2.75 0 -3.71c-1.05 -1.05 -2.65 -0.95 -3.71 0c-5.28 4.72 -10.18 9.85 -14.63 15.37c-4.16 5.16 -8.19 10.84 -9.18 17.55c-0.21 1.4 0.35 2.82 1.83 3.23c1.24 0.34 3.02 -0.42 3.23 -1.83l0 0l0.01 -0.01z"></path></g><path fill="#fff" d="m136.52 467.23c4.01 0.81 8.11 1.19 12.2 0.99c3.82 -0.18 7.93 -0.49 10.96 -3.08c1.08 -0.92 0.95 -2.77 0 -3.71c-1.07 -1.07 -2.63 -0.92 -3.71 0c-0.83 0.71 -2.08 0.96 -3.26 1.16c-1.57 0.27 -3.18 0.36 -4.77 0.41c-3.37 0.1 -6.72 -0.17 -10.02 -0.84c-1.39 -0.28 -2.84 0.4 -3.23 1.83c-0.36 1.3 0.44 2.95 1.83 3.23l0 0l0 0.01z" opacity="0"><animate keyTimes="0;0.0875;1" calcMode="linear" dur="5333.3333ms" repeatCount="indefinite" attributeName="opacity" values="0;1;1"></animate></path><path fill="#fff" d="m176.15 454.29c0.94 -0.95 1.91 -1.87 2.92 -2.75c0.52 -0.45 1.05 -0.89 1.58 -1.33c0.12 -0.1 0.24 -0.19 0.36 -0.29c0.16 -0.13 0.4 -0.31 0.1 -0.08c0.27 -0.21 0.55 -0.42 0.82 -0.62c2.19 -1.61 4.49 -3.05 6.9 -4.31c1.22 -0.64 1.69 -2.44 0.94 -3.59c-0.8 -1.24 -2.29 -1.63 -3.59 -0.94c-5.07 2.66 -9.72 6.12 -13.75 10.19c-0.97 0.98 -1.05 2.75 0 3.71c1.05 0.96 2.68 1.04 3.71 0l0 0l0.01 0.01z" opacity="0"><animate keyTimes="0;0.0875;0.1668;1" calcMode="linear" dur="5333.3333ms" repeatCount="indefinite" attributeName="opacity" values="0;0;1;1"></animate></path><path fill="#fff" d="m207.51 437.2c0.19 0.02 0.37 0.05 0.56 0.07c-0.23 -0.03 -0.19 -0.03 0.14 0.02c0.28 0.04 0.56 0.08 0.84 0.12c0.65 0.1 1.3 0.21 1.94 0.34c1.2 0.23 2.39 0.49 3.57 0.79c2.46 0.62 4.87 1.4 7.24 2.31c1.28 0.5 2.94 -0.55 3.23 -1.83c0.34 -1.5 -0.46 -2.7 -1.83 -3.23c-5.06 -1.95 -10.31 -3.18 -15.69 -3.83c-1.37 -0.17 -2.68 1.33 -2.62 2.62c0.07 1.56 1.16 2.45 2.62 2.62l0 0z" opacity="0"><animate keyTimes="0;0.1668;0.25;1" calcMode="linear" dur="5333.3333ms" repeatCount="indefinite" attributeName="opacity" values="0;0;1;1"></animate></path><path fill="#fff" d="m237.11 442.14c3.06 4.22 5.72 8.7 7.96 13.4c0.59 1.24 2.47 1.67 3.59 0.94c1.28 -0.82 1.57 -2.26 0.94 -3.59c-2.24 -4.7 -4.9 -9.19 -7.96 -13.4c-0.8 -1.11 -2.32 -1.76 -3.59 -0.94c-1.1 0.71 -1.8 2.4 -0.94 3.59l0 0z" opacity="0"><animate keyTimes="0;0.25;0.3333;1" calcMode="linear" dur="5333.3333ms" repeatCount="indefinite" attributeName="opacity" values="0;0;1;1"></animate></path><path fill="#fff" d="m240.03 461.04c-2.56 4.08 -5.11 8.15 -7.68 12.23c-1.07 1.7 -2.15 3.38 -3.65 4.74c-1.29 1.17 -2.86 1.84 -4.49 1.76c-1.42 -0.07 -2.62 1.26 -2.62 2.62c0 1.48 1.2 2.56 2.62 2.62c5.34 0.26 9.22 -3.79 11.91 -7.91c2.89 -4.42 5.63 -8.94 8.44 -13.41c0.75 -1.2 0.25 -2.89 -0.94 -3.59c-1.26 -0.74 -2.84 -0.26 -3.59 0.94l0 0l0 0z" opacity="0"><animate keyTimes="0;0.3333;0.4165;1" calcMode="linear" dur="5333.3333ms" repeatCount="indefinite" attributeName="opacity" values="0;0;1;1"></animate></path><path fill="#fff" d="m205.79 480.04c-2.37 -2.33 -3.54 -5.54 -3.5 -8.8c0.02 -1.52 0.31 -3.13 0.94 -4.57c0.79 -1.79 2.3 -3.41 3.73 -4.88c2.36 -2.42 -1.35 -6.14 -3.71 -3.71c-1.83 1.88 -3.62 3.83 -4.68 6.25c-0.97 2.19 -1.49 4.51 -1.52 6.91c-0.06 4.63 1.72 9.26 5.04 12.51c2.41 2.37 6.13 -1.34 3.71 -3.71l0 0l-0.01 0z" opacity="0"><animate keyTimes="0;0.4168;0.5003;1" calcMode="linear" dur="5333.3333ms" repeatCount="indefinite" attributeName="opacity" values="0;0;1;1"></animate></path><path fill="#fff" d="m219.24 454.35c0.23 -0.18 0.23 -0.18 -0.02 0.01c0.12 -0.09 0.23 -0.18 0.35 -0.26c0.23 -0.17 0.47 -0.34 0.7 -0.51c0.47 -0.34 0.95 -0.66 1.44 -0.98c0.94 -0.61 1.91 -1.18 2.91 -1.71c1 -0.53 2.01 -1.01 3.04 -1.46c-0.59 0.26 0.27 -0.11 0.38 -0.15c0.27 -0.11 0.54 -0.21 0.81 -0.31c0.54 -0.2 1.09 -0.39 1.64 -0.57c1.3 -0.42 2.28 -1.84 1.83 -3.23c-0.42 -1.3 -1.83 -2.29 -3.23 -1.83c-4.96 1.61 -9.48 4.08 -13.57 7.29c-1.09 0.85 -0.96 2.83 0 3.71c1.15 1.06 2.55 0.91 3.71 0l0 0l0.01 0z" opacity="0"><animate keyTimes="0;0.5;0.5833;1" calcMode="linear" dur="5333.3333ms" repeatCount="indefinite" attributeName="opacity" values="0;0;1;1"></animate></path><path fill="#fff" d="m256.5 444.57c6.1 -0.19 12 0.87 17.69 3.12c1.32 0.52 2.88 -0.57 3.23 -1.83c0.41 -1.49 -0.51 -2.71 -1.83 -3.23c-6.05 -2.39 -12.59 -3.51 -19.09 -3.31c-1.42 0.04 -2.62 1.18 -2.62 2.62c0 1.44 1.2 2.67 2.62 2.62l0 0l0 0.01z" opacity="0"><animate keyTimes="0;0.5833;0.6665;1" calcMode="linear" dur="5333.3333ms" repeatCount="indefinite" attributeName="opacity" values="0;0;1;1"></animate></path><path fill="#fff" d="m283.71 459.58c6.22 5.4 12.94 12.42 21.97 11.49c1.41 -0.15 2.62 -1.1 2.62 -2.62c0 -1.31 -1.21 -2.77 -2.62 -2.62c-7.51 0.77 -13.07 -5.44 -18.26 -9.95c-1.07 -0.93 -2.66 -1.05 -3.71 0c-0.95 0.95 -1.07 2.78 0 3.71l0 0l0 -0.01z" opacity="0"><animate keyTimes="0;0.6667;0.7503;1" calcMode="linear" dur="5333.3333ms" repeatCount="indefinite" attributeName="opacity" values="0;0;1;1"></animate></path><path fill="#fff" d="m318.8 474.42c6 -0.55 12.19 -0.77 18.04 -2.33c1.37 -0.36 2.21 -1.87 1.83 -3.23c-0.38 -1.36 -1.85 -2.2 -3.23 -1.83c-5.41 1.44 -11.04 1.62 -16.65 2.14c-1.36 0.13 -2.69 1.12 -2.62 2.62c0.06 1.31 1.16 2.76 2.62 2.62l0 0l0.01 0.01z" opacity="0"><animate keyTimes="0;0.75;0.8333;1" calcMode="linear" dur="5333.3333ms" repeatCount="indefinite" attributeName="opacity" values="0;0;1;1"></animate></path><g opacity="0"><path fill="#fff" d="m348.12 471.83c5.77 -3.04 10.67 -7.47 14.42 -12.8c0.79 -1.13 0.24 -2.97 -0.94 -3.59c-1.35 -0.71 -2.75 -0.26 -3.59 0.94c-0.21 0.3 -0.43 0.6 -0.65 0.9c0 0 -0.4 0.53 -0.2 0.26c0.2 -0.27 -0.16 0.21 -0.2 0.26c-0.46 0.57 -0.94 1.14 -1.43 1.68c-0.99 1.09 -2.04 2.13 -3.14 3.1c-0.55 0.49 -1.12 0.95 -1.7 1.41c0.19 -0.15 0.21 -0.16 0 0c-0.18 0.13 -0.35 0.26 -0.53 0.39c-0.27 0.19 -0.54 0.39 -0.81 0.57c-1.24 0.86 -2.54 1.63 -3.88 2.34c-1.22 0.64 -1.69 2.44 -0.94 3.59c0.8 1.24 2.29 1.63 3.59 0.94l0 0l0 0.0099z"></path><path fill="#fff" d="m341.5 456.31c7.87 -0.45 15.99 -1.23 22.3 -6.44l-3.71 0c2.27 2.77 4.57 5.51 6.8 8.31c1.66 2.09 3.37 4.51 3.46 7.27l4.48 -1.86c-0.35 -0.29 -0.71 -0.59 -1.06 -0.88c-1.09 -0.91 -2.65 -1.07 -3.71 0c-0.93 0.93 -1.1 2.8 0 3.71c0.35 0.29 0.71 0.59 1.06 0.88c1.64 1.36 4.56 0.59 4.48 -1.86c-0.11 -3.72 -1.85 -6.9 -4.07 -9.8c-2.48 -3.24 -5.14 -6.34 -7.72 -9.5c-0.96 -1.17 -2.71 -0.83 -3.71 0c-5.08 4.2 -12.31 4.55 -18.59 4.9c-3.36 0.19 -3.38 5.44 0 5.25l0 0l-0.01 0.02z"></path><animate keyTimes="0;0.8333;0.9168;1" calcMode="linear" dur="5333.3333ms" repeatCount="indefinite" attributeName="opacity" values="0;0;1;1"></animate></g></g><g transform="translate(6.6926 47.7285)"><path fill="#000" d="m144.58 113.32c-6.31 2.96 -10.37 8.93 -13.92 14.68c-1.97 3.19 -3.99 6.44 -5.08 10.07c-1.18 3.95 -1.01 8.19 -0.82 12.26c0.11 2.37 0.29 4.74 0.54 7.1c0.13 1.22 0.27 2.44 0.43 3.66c0.08 0.64 0.17 1.28 0.26 1.91c0.03 0.24 0.07 0.49 0.11 0.73c0.01 0.08 0.15 1.03 0.1 0.56c0.16 1.41 1.09 2.62 2.62 2.62c1.3 0 2.79 -1.21 2.62 -2.62c-0.55 -4.91 -1.26 -9.74 -1.47 -14.69c-0.11 -2.53 -0.25 -5.14 0.1 -7.66c0.29 -2.07 1.01 -4.04 1.95 -5.89c1.91 -3.74 4.24 -7.42 6.72 -10.81c2.25 -3.07 4.98 -5.76 8.46 -7.39c1.28 -0.6 1.61 -2.45 0.94 -3.59c-0.77 -1.32 -2.3 -1.55 -3.59 -0.94l0 0l0.03 0z"></path><path fill="#000" d="m162.15 145.74c5.41 10.28 14.49 18.33 25.23 22.7c12.76 5.19 27.19 4.12 40.67 4.05c7.41 -0.04 14.82 -0.09 22.22 -0.19c7.4 -0.1 14.37 -0.1 21.51 -0.75c6.74 -0.61 13.31 -1.96 19.7 -4.21c6.39 -2.25 12.1 -4.92 18.02 -7.67c5.92 -2.75 11.29 -5.27 17.16 -7.35c6.25 -2.21 12.67 -3.56 19.26 -4.32c7.19 -0.83 14.43 -1.25 21.58 -2.45c5.81 -0.98 12.32 -2.44 16.44 -7.02c4.13 -4.6 5.09 -11.85 0.7 -16.62c-1.93 -2.11 -4.89 -3.5 -7.77 -3.36c-3.43 0.16 -6.06 2.2 -8.75 4.09c-5.2 3.64 -10.93 6.44 -17.01 8.25c-6.57 1.96 -13.34 2.33 -20.08 3.35c-6.74 1.02 -13.69 3.42 -20.36 5.77c-6.67 2.35 -13.97 4.93 -20.96 7.39c-6.99 2.46 -13.39 4.9 -20.18 7.03c-3.24 1.01 -6.54 1.86 -9.91 2.29c-3.37 0.43 -7.09 0.54 -10.64 0.56c-13.64 0.07 -27.46 -0.23 -40.91 -2.73c-3.31 -0.62 -6.6 -1.36 -9.85 -2.27c-3.25 -0.91 -6.32 -1.78 -9.26 -3.12c-2.72 -1.24 -3.51 -3.88 -4.7 -6.43c-1.25 -2.69 -2.61 -5.33 -4.28 -7.79c-3.4 -5 -8.03 -9.26 -14.04 -10.72c-5.54 -1.35 -11.77 -0.29 -15.71 4.1c-3.94 4.39 -5.74 10.74 -6.37 16.51c-0.63 5.77 0.26 11.65 3.07 16.66c3.01 5.36 8.14 8.84 13.67 11.23c6.29 2.72 12.89 4.78 19.43 6.78c13.65 4.16 27.57 7.94 41.71 9.98c12.86 1.86 25.74 1.95 38.6 0.06c12.86 -1.89 24.46 -5.5 35.83 -10.75c5.58 -2.57 10.97 -5.55 16.11 -8.91c2.57 -1.68 5.08 -3.45 7.52 -5.32c2.44 -1.87 4.74 -3.9 7.45 -5.31c2.97 -1.55 6.21 -1.44 9.47 -1.23c3.71 0.23 7.42 0.5 11.13 0.78c3.71 0.28 7.26 0.57 10.89 0.89c3.43 0.3 6.99 0.79 10.11 -1.04c2.65 -1.55 4.51 -4.24 6.31 -6.64c2.05 -2.73 3.91 -5.59 5.6 -8.56c0.72 -1.25 0.28 -2.84 -0.94 -3.59c-0.83 -0.51 -1.65 -1.02 -2.48 -1.53c-2.88 -1.78 -5.52 2.76 -2.65 4.53c0.83 0.51 1.65 1.02 2.48 1.53l-0.94 -3.59c-1.69 2.96 -3.56 5.83 -5.6 8.56c-1.45 1.94 -3.18 4.68 -5.7 5.26c-1.36 0.31 -2.84 0.11 -4.22 0c-1.9 -0.17 -3.79 -0.33 -5.69 -0.49c-3.55 -0.3 -7.1 -0.57 -10.65 -0.83c-6.66 -0.48 -13.82 -1.78 -19.97 1.52c-2.64 1.42 -4.91 3.4 -7.27 5.22c-2.36 1.82 -4.72 3.48 -7.17 5.09c-19.81 13.03 -43.31 20.29 -67.02 20.61c-13.23 0.18 -26.28 -2.02 -39.11 -5.13c-12.83 -3.11 -26.37 -6.84 -38.99 -11.75c-4.96 -1.93 -10.05 -4.55 -12.94 -9.21c-2.71 -4.36 -3.36 -9.58 -2.84 -14.61c0.27 -2.59 0.95 -5.16 1.85 -7.59c0.9 -2.43 2.13 -4.85 4.13 -6.51c3.58 -2.95 9.04 -2.4 12.92 -0.37c4.91 2.57 8.07 7.47 10.51 12.27c1.24 2.44 2.12 5.19 3.71 7.43c2.01 2.84 5.1 3.95 8.26 5.07c12.47 4.43 25.76 6.15 38.93 6.81c6.68 0.34 13.38 0.44 20.07 0.39c6.69 -0.05 13.55 -0.68 20.12 -2.62c6.57 -1.94 13.14 -4.48 19.66 -6.78c6.52 -2.3 13.35 -4.71 20.03 -7.06c6.68 -2.35 12.89 -4.73 19.6 -6.12c6.71 -1.39 13.33 -1.48 19.87 -2.98c6.11 -1.4 12.04 -3.75 17.47 -6.88c2.61 -1.5 4.96 -3.35 7.5 -4.96c2.12 -1.35 4.3 -1.88 6.43 -0.24c4 3.08 1.92 8.88 -1.5 11.45c-2.15 1.62 -4.76 2.49 -7.34 3.13c-3.02 0.75 -6.12 1.25 -9.2 1.64c-6.87 0.86 -13.79 1.27 -20.64 2.24c-6.39 0.9 -12.56 2.52 -18.58 4.82c-11.39 4.34 -22.03 10.47 -33.57 14.41c-6.15 2.1 -12.46 3.36 -18.94 3.86c-6.92 0.54 -13.88 0.55 -20.81 0.64c-6.93 0.09 -14.15 0.14 -21.22 0.18c-7.07 0.04 -13.8 0.22 -20.69 -0.12c-6.3 -0.31 -12.59 -1.24 -18.48 -3.6c-4.79 -1.92 -9.25 -4.79 -13.05 -8.26c-3.8 -3.47 -6.98 -7.58 -9.39 -12.17c-1.57 -2.99 -6.11 -0.34 -4.53 2.65l0 0l-0.03 -0.03z"></path><path fill="#000" d="m144.85 81.82c4.54 -1.56 6.7 -5.83 7.46 -10.33c0.81 -4.85 0.63 -9.83 1.13 -14.72c0.98 -9.66 3.6 -19.7 10.93 -26.54c3.81 -3.55 8.53 -6.05 13.3 -8.06c5.29 -2.23 10.81 -4.17 16.4 -5.47c9.22 -2.15 18.72 -1.57 27.68 1.46c8.96 3.03 16.41 8.06 22.49 14.8c3.09 3.43 5.65 7.31 7.64 11.47c2.45 5.12 4.14 10.56 6.58 15.69c1.19 2.51 2.57 4.92 4.24 7.15c1.81 2.44 3.84 4.7 5.71 7.08c3.29 4.19 6.1 8.95 8.1 13.89c2 4.94 3.35 10.36 3.45 15.79c0.05 2.43 0.01 5 -0.76 7.33c-0.81 2.46 -2.29 4.72 -3.72 6.87c-1.43 2.15 -2.69 4.05 -4.48 5.76c-1.92 1.83 -4.11 3.34 -6.29 4.85c-4.79 3.32 -9.51 6.27 -15.37 7.17c-5.86 0.9 -12.12 0.47 -18.06 0.16c-6.24 -0.33 -12.47 -0.92 -18.66 -1.82c-3.05 -0.44 -6.09 -0.96 -9.11 -1.53c-1.39 -0.26 -2.83 0.39 -3.23 1.83c-0.35 1.28 0.43 2.96 1.83 3.23c12.86 2.44 25.96 3.78 39.05 3.82c6.34 0.02 12.6 -0.6 18.35 -3.45c2.7 -1.33 5.19 -3.04 7.65 -4.75c2.46 -1.71 4.77 -3.3 6.93 -5.24c2.16 -1.94 3.69 -4.09 5.26 -6.4c1.57 -2.31 3 -4.54 4.09 -7.03c2.3 -5.27 2.04 -11.38 1.2 -16.96c-0.84 -5.58 -2.86 -11.21 -5.48 -16.34c-2.76 -5.41 -6.39 -10.11 -10.23 -14.78c-3.84 -4.67 -6.24 -9.63 -8.4 -15.09c-2.03 -5.16 -3.99 -10.36 -6.97 -15.06c-5.23 -8.26 -12.75 -15.04 -21.37 -19.63c-8.62 -4.59 -18.45 -7.11 -28.25 -6.86c-5.76 0.15 -11.42 1.34 -16.9 3.06c-5.48 1.72 -11.28 3.85 -16.54 6.56c-4.9 2.52 -9.51 5.82 -12.97 10.15c-3.46 4.33 -5.61 9.04 -7.07 14.16c-1.46 5.12 -2.15 10.53 -2.55 15.86c-0.33 4.54 0.1 9.36 -1.55 13.61c-0.57 1.46 -1.53 2.73 -2.9 3.2c-3.18 1.09 -1.81 6.16 1.4 5.06l0 0l-0.01 0.05z"></path><path fill="#000" d="m174.59 69.32c6.49 -2.77 13.17 -5.61 20.21 -6.59c7.04 -0.98 14.13 0.71 21.05 2.45c6.92 1.74 14.42 3.1 21.82 3.62c7.4 0.52 15.07 0.39 22.59 -0.1c7.52 -0.49 14.73 -1.31 22.07 -2.2c7.34 -0.89 14.84 -2.15 21.83 -5.23c3.19 -1.41 6.27 -3.09 9.53 -4.36c3.26 -1.27 6.96 -2.16 10.55 -2.76c6.91 -1.16 13.95 -1.49 20.8 -3.01c3.85 -0.85 7.75 -2.19 11.74 -1.85c2.64 0.22 4.49 1.33 6.25 3.27c1.61 1.77 2.77 4.09 3.35 6.48c0.55 2.23 0.52 4.78 -0.37 6.61c-0.62 1.28 -0.35 2.84 0.94 3.59c1.15 0.67 2.97 0.34 3.59 -0.94c2.42 -5.01 1.54 -10.88 -1.07 -15.64c-2.91 -5.31 -7.92 -8.71 -14.08 -8.66c-3.85 0.03 -7.58 1.13 -11.3 1.98c-3.49 0.8 -7.04 1.28 -10.6 1.7c-7.47 0.89 -15.05 1.64 -22.08 4.52c-3.51 1.44 -6.86 3.23 -10.34 4.73c-3.48 1.5 -6.96 2.42 -10.58 3.11c-7.57 1.45 -15.35 2.14 -23.02 2.85c-15.36 1.42 -31.02 1.77 -46.13 -1.75c-8.22 -1.91 -16.44 -4.58 -24.99 -3.82c-8.55 0.76 -16.56 4.12 -24.42 7.48c-1.3 0.56 -1.59 2.48 -0.94 3.59c0.79 1.35 2.28 1.5 3.59 0.94l0 0l0.01 -0.01z"></path><path fill="#000" d="m279.37 94.95c5.85 2.3 12.12 -0.11 17.18 -3.21c5.06 -3.1 9.59 -7.11 14.5 -10.49c2.4 -1.65 4.88 -3.18 7.45 -4.56c1.34 -0.72 2.71 -1.36 4.06 -2.04c0.13 -0.06 0.69 -0.29 0.03 -0.02c0.15 -0.06 0.3 -0.12 0.45 -0.17c0.43 -0.15 0.86 -0.3 1.29 -0.44c3.95 -1.22 8.2 -1.8 12.2 -2.28c10.59 -1.28 21.22 -1.53 31.85 -2.17c2.75 -0.17 5.71 -0.54 8.42 0.12c1.98 0.48 4.62 1.44 5.51 3.22c0.4 0.81 0.52 1.68 0.26 2.62c-0.29 1.04 -0.86 1.53 -1.58 1.73c-0.88 0.25 -1.86 0.23 -2.93 0.23c-1.67 0 -3.35 -0.02 -5.02 -0.02c-12.98 0.03 -26.06 0.7 -38.79 3.43c-6.25 1.34 -12.34 3.24 -18.21 5.77c-2.8 1.21 -5.53 2.56 -8.11 4.18c-2.09 1.32 -4.1 2.8 -6.37 3.8c-4.29 1.88 -8.78 2.2 -13.36 1.55c-2.24 -0.32 -4.68 -0.92 -6.59 -1.83c-0.8 -0.38 -2.04 -1.1 -2.47 -1.45c-0.93 -0.74 -1.6 -1.71 -2.44 -2.54c-1 -0.99 -2.15 -1.81 -3.22 -2.72c-1.18 -1 -2.23 -2.08 -3.59 -2.86c-2.43 -1.38 -5.19 -2.14 -7.87 -2.85c-6.87 -1.83 -13.87 -3.11 -20.93 -3.91c-14.11 -1.61 -28.33 -1.06 -42.38 0.84c-11.64 1.58 -24.24 3.67 -33.85 10.98c-2.28 1.73 -4.33 3.66 -6.09 5.93c-0.84 1.09 -1.15 2.65 0 3.71c6.48 5.99 13.98 10.69 22.16 13.99c3.94 1.59 8.02 2.8 12.19 3.64c4.17 0.84 8.78 1.39 13.13 2.32c4.35 0.93 8.15 2.17 11.74 4.5c1.8 1.17 3.51 2.49 5.41 3.51c2.16 1.17 4.44 1.85 6.88 2.16c4.42 0.57 9.02 0.34 13.44 -0.12c4.42 -0.46 8.8 -1.23 13.09 -2.38c9.64 -2.59 18.83 -6.95 26.89 -12.84l-3.18 -0.41c12.84 15.45 34.44 18.57 53.28 16.08c5.68 -0.75 11.3 -1.91 16.87 -3.27c4.83 -1.18 9.73 -2.33 14.37 -4.13c4.64 -1.8 8.79 -4.34 12.32 -7.94c2.97 -3.03 5.41 -6.58 7.13 -10.47c2.03 -4.6 3.24 -9.24 3.35 -14.29c0.11 -5.05 -1.77 -10.33 -6.91 -12.07c-3.21 -1.08 -4.59 3.99 -1.4 5.06c3.19 1.07 3.16 5.42 3.02 8.08c-0.19 3.68 -1.11 7.18 -2.59 10.56c-3.18 7.25 -8.88 13.12 -16.31 15.99c-4.34 1.68 -8.92 2.78 -13.43 3.9c-5.02 1.25 -10.08 2.36 -15.2 3.13c-9.15 1.39 -18.64 1.6 -27.67 -0.62c-9.03 -2.22 -17.19 -6.62 -23.11 -13.74c-0.68 -0.81 -2.31 -1.05 -3.18 -0.41c-13.64 9.98 -30.47 15.4 -47.39 14.88c-2.11 -0.06 -4.25 -0.25 -6.24 -1.03c-1.81 -0.71 -3.45 -1.92 -5.04 -3.01c-3.59 -2.47 -7.4 -4.29 -11.62 -5.44c-8.16 -2.23 -16.66 -2.62 -24.71 -5.34c-8.72 -2.95 -16.79 -7.77 -23.55 -14.02l0 3.71c7.15 -9.24 18.93 -12.49 29.95 -14.38c14.02 -2.4 28.32 -3.42 42.52 -2.4c7.14 0.51 14.22 1.57 21.19 3.18c3.03 0.7 6.12 1.41 9.04 2.49c2.56 0.94 4.39 2.8 6.46 4.51c1.93 1.6 3.34 3.6 5.48 4.98c2.14 1.38 4.6 2.27 7.04 2.86c4.83 1.17 10.17 1.42 15.02 0.21c2.77 -0.69 5.44 -1.81 7.87 -3.3c2.2 -1.35 4.29 -2.84 6.58 -4.05c5.74 -3.05 11.95 -5.18 18.24 -6.77c12.59 -3.18 25.64 -3.99 38.58 -4.11c3.1 -0.03 6.25 0.16 9.35 -0.03c2.87 -0.18 5.58 -1.2 7.05 -3.83c1.54 -2.77 1.48 -6.36 -0.25 -9.02c-1.59 -2.45 -4.18 -3.78 -6.85 -4.73c-2.88 -1.03 -5.94 -1.08 -8.96 -0.93c-2.71 0.13 -5.42 0.27 -8.14 0.39c-5.46 0.23 -10.91 0.53 -16.36 0.97c-5.45 0.44 -10.7 0.96 -16 1.82c-4.04 0.66 -7.9 1.55 -11.59 3.35c-5.52 2.7 -10.58 6.08 -15.47 9.78c-4.89 3.7 -9.46 7.76 -15.16 9.51c-2.48 0.76 -4.85 0.84 -7.29 -0.12c-1.32 -0.52 -2.88 0.57 -3.23 1.83c-0.41 1.49 0.51 2.71 1.83 3.23l0 0l-0.0401 0.03z"></path><path fill="#000" d="m247.4 31.08c14.08 -7.37 29.58 -12.17 45.38 -13.94c4.03 -0.45 8.08 -0.72 12.14 -0.79c4.06 -0.07 8.52 -0.08 12.67 0.74c6.83 1.35 13.09 4.79 18.26 9.4c2.98 2.66 5.75 5.68 7.94 9.03c2.19 3.35 3.81 7 3.25 10.91c-0.2 1.4 0.34 2.82 1.83 3.23c1.23 0.34 3.03 -0.42 3.23 -1.83c1.21 -8.53 -3.65 -15.84 -9.24 -21.82c-5.35 -5.72 -12 -10.31 -19.45 -12.8c-8.23 -2.75 -17.37 -2.4 -25.92 -1.75c-8.55 0.65 -17.19 2.11 -25.53 4.38c-9.42 2.57 -18.56 6.19 -27.21 10.71c-2.99 1.57 -0.34 6.1 2.65 4.53l0 0l0 0z"></path><path fill="#000" d="m145.47 63.75c-5.59 3.32 -11.51 6.17 -16.75 10.06c-5.24 3.89 -9.74 9.15 -12.78 15.23c-6.39 12.74 -7.27 27.2 -7.23 41.2c0.02 7.89 0.26 15.79 -0.21 23.68c-0.44 7.45 -1.37 14.93 -0.71 22.4c1.13 12.86 7.67 24.4 18.32 31.76c2.51 1.74 5.22 3.13 8.05 4.27c3.13 1.26 6.43 1.97 9.64 2.99c6.93 2.19 12.94 6.54 19.69 9.2c6.75 2.66 14.1 4.17 21.34 5.38c7.24 1.21 14.69 2.17 22.08 2.77c15.01 1.21 30.11 0.94 45.03 -1.16c14.92 -2.1 28.94 -6.24 42.64 -11.98c7 -2.93 13.87 -6.17 20.67 -9.53c3.3 -1.63 6.59 -3.28 9.88 -4.94c3.06 -1.54 6.14 -3.07 9.01 -4.95c10.99 -7.21 18.65 -19.59 22.45 -31.97c0.91 -2.97 1.6 -6 2.07 -9.07c0.22 -1.4 -0.36 -2.82 -1.83 -3.23c-1.24 -0.34 -3.01 0.42 -3.23 1.83c-1.88 12.18 -7.28 23.85 -15.94 32.7c-2.21 2.26 -4.57 4.25 -7.27 5.91c-2.88 1.78 -5.94 3.26 -8.96 4.78c-6.44 3.24 -12.88 6.47 -19.43 9.5c-13.14 6.08 -26.69 11.14 -40.9 14.07c-14.21 2.93 -28.26 3.86 -42.5 3.45c-14.24 -0.41 -28.51 -1.97 -42.33 -5.16c-3.5 -0.81 -6.96 -1.79 -10.33 -3.04c-3.37 -1.25 -6.36 -2.83 -9.44 -4.49c-3.08 -1.66 -6.25 -3.33 -9.58 -4.54c-3.33 -1.21 -6.72 -1.88 -10.01 -3.05c-10.19 -3.63 -18.59 -12.34 -22.05 -22.57c-2.22 -6.55 -2.27 -13.49 -1.89 -20.33c0.42 -7.61 1.06 -15.16 1.05 -22.8c-0.02 -13.98 -0.87 -28.24 3.1 -41.82c1.71 -5.86 4.33 -11.64 8.27 -16.35c3.94 -4.71 9.19 -7.99 14.49 -11c2.74 -1.55 5.5 -3.05 8.2 -4.66c2.9 -1.72 0.26 -6.26 -2.65 -4.53l0 0l0.0399 -0.01z"></path><path fill="#000" d="m380.04 122.14c3 -3.37 5.24 -7.34 6.5 -11.69c1.26 -4.35 1.86 -9.55 0.19 -13.78c-0.52 -1.32 -1.76 -2.24 -3.23 -1.83c-1.25 0.34 -2.36 1.9 -1.83 3.23c1.36 3.44 0.82 7.52 -0.19 10.99c-1.01 3.47 -2.75 6.68 -5.15 9.37c-0.94 1.06 -1.04 2.67 0 3.71c0.96 0.96 2.77 1.06 3.71 0l0 0z"></path></g><g transform="translate(6.6926 47.7285)"><path fill="#000" d="m124.96 206.44c-10.94 9.26 -19.59 20.87 -27.22 32.92c-3.83 6.05 -7.43 12.24 -11.02 18.43c-1.87 3.23 -3.69 6.5 -4.97 10.01c-1.36 3.71 -1.79 7.65 -2.15 11.57c-0.36 3.92 -0.86 7.59 -1.76 11.35c-0.9 3.76 -2.05 7.65 -2.98 11.5c-1.91 7.89 -3.23 15.91 -4.01 23.99c-0.78 8.08 -1.04 15.76 -0.61 23.61c0.1 1.8 0.4 3.57 1.75 4.88c1.35 1.31 3.34 1.63 5.17 1.61c4.09 -0.03 8.2 -0.26 12.29 -0.39c18.57 -0.62 37.13 -1.36 55.69 -2.21c1.42 -0.07 2.61 -1.15 2.62 -2.62c0.13 -18.75 -0.33 -37.48 -0.94 -56.22c-0.15 -4.57 -0.23 -9.45 1.6 -13.73c0.56 -1.3 0.39 -2.81 -0.94 -3.59c-1.11 -0.65 -3.03 -0.37 -3.59 0.94c-3.64 8.48 -2.22 18.13 -1.94 27.09c0.31 9.7 0.5 19.4 0.56 29.1c0.04 5.47 0.04 10.95 0 16.42l2.62 -2.62c-15.91 0.73 -31.82 1.37 -47.73 1.93c-3.98 0.14 -7.96 0.28 -11.94 0.41c-1.99 0.06 -3.98 0.13 -5.97 0.19c-0.9 0.03 -1.8 0.08 -2.7 0.07c-0.15 0 -0.98 0.02 -1.1 -0.08c-0.25 -0.21 -0.2 -0.89 -0.21 -1.17c-0.05 -0.96 -0.08 -1.93 -0.1 -2.89c-0.05 -1.93 -0.07 -3.86 -0.06 -5.79c0.03 -3.86 0.19 -7.72 0.48 -11.57c0.58 -7.63 1.71 -15.2 3.36 -22.67c1.65 -7.47 4.18 -14.8 5.17 -22.43c0.47 -3.61 0.55 -7.27 1.25 -10.84c0.7 -3.57 2.13 -6.82 3.87 -9.99c3.33 -6.09 6.93 -12.06 10.56 -17.97c7.99 -13.02 16.94 -25.58 28.67 -35.51c1.08 -0.92 0.94 -2.77 0 -3.71c-1.07 -1.07 -2.63 -0.92 -3.71 0l0 0l-0.01 -0.02z"></path><path fill="#000" d="m144.88 331.13c5 0.72 9.87 0.15 14.83 -0.58c4.96 -0.73 9.58 -1.35 14.39 -1.92c9.76 -1.17 19.56 -2.09 29.37 -2.74c4.91 -0.33 9.82 -0.59 14.73 -0.79c4.91 -0.2 9.87 -0.41 14.76 0.2c4.89 0.61 9.59 1.74 14.46 2.21c4.87 0.47 9.79 0.58 14.68 0.76c5.59 0.21 11.18 0.41 16.78 0.62c2.71 0.1 5.43 0.2 8.14 0.3c2.71 0.1 5.62 0 8.36 0.33l-1.32 -0.36l0.09 0.05l-1.3 -2.27l0 0.05c0.43 -0.76 0.86 -1.51 1.29 -2.27l-0.06 0.04l1.32 -0.36l-0.07 0c0.62 0.26 1.24 0.52 1.86 0.77l-0.05 -0.04l0.68 2.55l-0.12 0.33c1.86 -2.83 -2.69 -5.47 -4.53 -2.65c-0.99 1.52 -0.34 3.7 1.47 4.2c1.81 0.5 3.25 -0.9 3.46 -2.62c0.11 -0.86 -0.57 -1.88 -1.3 -2.27c-1.02 -0.54 -2.24 -0.45 -3.36 -0.5c-1.23 -0.05 -2.47 -0.09 -3.7 -0.14c-2.47 -0.09 -4.93 -0.18 -7.4 -0.27c-5.02 -0.18 -10.03 -0.37 -15.05 -0.55c-5.02 -0.18 -9.83 -0.31 -14.74 -0.58c-4.91 -0.27 -9.55 -0.92 -14.31 -1.77c-4.76 -0.85 -9.84 -1.29 -14.86 -1.18c-5.02 0.11 -10 0.37 -14.99 0.66c-9.82 0.57 -19.62 1.4 -29.39 2.48c-5.61 0.62 -11.21 1.33 -16.79 2.12c-5.21 0.73 -10.64 1.9 -15.91 1.14c-1.4 -0.2 -2.82 0.35 -3.23 1.83c-0.34 1.23 0.42 3.03 1.83 3.23l0 0l-0.02 -0.0101z"></path><path fill="#000" d="m296.6 290.11c-1.79 20.44 -3.58 40.88 -5.37 61.33c-0.13 1.46 1.31 2.57 2.62 2.62c21.99 0.93 43.98 1.86 65.97 2.79c6.16 0.26 12.33 0.52 18.49 0.78c1.04 0.04 2.36 -0.84 2.53 -1.93c3.5 -22.74 1.45 -45.82 -3.29 -68.23c-2.3 -10.91 -5.04 -21.82 -8.83 -32.32c-3.59 -9.93 -8.35 -19.32 -14.46 -27.94c-6.66 -9.39 -14.54 -17.84 -23.17 -25.44c-1.01 -0.89 -2.73 -1.12 -3.71 0c-9.05 10.32 -19.38 19.69 -31.63 26.07c-12.25 6.38 -27.2 9.17 -41.48 9.98c-7.34 0.41 -14.7 0.42 -22.04 0.32c-7.9 -0.11 -15.79 -0.38 -23.66 -1.01c-14.73 -1.17 -29.41 -3.67 -43.4 -8.5c-13.65 -4.72 -26.19 -12.03 -36.51 -22.18c-2.41 -2.37 -6.13 1.34 -3.71 3.71c9.71 9.56 21.28 16.74 33.93 21.72c13.87 5.47 28.65 8.37 43.44 9.92c15.69 1.65 31.65 2.02 47.41 1.47c15.76 -0.55 30.23 -2.56 44.12 -8.7c13.89 -6.14 26.84 -17.21 37.25 -29.08l-3.71 0c14.93 13.16 27.62 28.89 34.95 47.54c4.02 10.22 6.81 20.91 9.23 31.6c2.43 10.74 4.3 21.61 5.21 32.59c1.02 12.34 0.89 24.83 -0.99 37.09l2.53 -1.93c-21.99 -0.93 -43.98 -1.86 -65.97 -2.79c-6.16 -0.26 -12.33 -0.52 -18.49 -0.78l2.62 2.62c1.79 -20.44 3.58 -40.88 5.37 -61.33c0.12 -1.41 -1.3 -2.62 -2.62 -2.62c-1.52 0 -2.5 1.21 -2.62 2.62l0 0l-0.0101 0.0099z"></path></g><g transform="translate(0.0224 32.8317)"><path fill="#dcebf2" d="m78.06 95.63c-0.16 -4.77 0.55 -9.56 2.08 -14.08c1.16 -3.44 2.82 -6.83 2.81 -10.46c-0.01 -4.31 -2.35 -8.21 -4.25 -12.08c-3.72 -7.58 -5.95 -15.88 -6.54 -24.3c-0.06 -0.92 -0.1 -1.87 0.29 -2.71c0.69 -1.49 2.51 -2.1 4.15 -2.14c5.12 -0.13 9.91 4.36 10.11 9.47c0 -2.63 0.81 -5.26 2.27 -7.45c0.26 -0.39 0.55 -0.77 0.97 -0.98c1.07 -0.53 2.28 0.36 3.07 1.26c1.94 2.23 3.33 4.94 4.01 7.82c0.65 -2.09 1.31 -4.21 2.52 -6.03c1.21 -1.82 3.07 -3.33 5.24 -3.6c3.79 -0.47 7.31 3.78 6.14 7.42c-0.96 2.98 -4.04 4.6 -6.49 6.55c-7.2 5.74 -9.6 15.51 -11.03 24.61c-1.46 9.31 -2.37 18.77 -1.59 28.16c-7.21 0.31 -14.4 0.78 -21.59 1.42c0.8 -9.99 1.55 -20.37 -2 -29.74c-3.45 -9.11 -10.74 -16.59 -12.97 -26.06c-2.39 -10.14 1.59 -20.97 8.2 -29.04c2.73 -3.34 5.98 -6.36 9.91 -8.14c2.9 -1.31 6.07 -1.9 9.21 -2.48c1.69 -0.31 3.41 -0.63 5.13 -0.51c1.56 0.11 3.06 0.57 4.56 1.03c3 0.92 6 1.84 8.95 2.92c2.22 0.81 4.43 1.71 6.33 3.09c2.37 1.72 4.16 4.11 5.91 6.46c4.4 5.9 8.97 12.23 9.59 19.57c0.61 7.38 -2.93 14.49 -7.18 20.55c-4.25 6.06 -9.35 11.61 -12.57 18.28c-3.69 7.62 -4.71 16.28 -4.62 24.75c-5.32 0.13 -10.66 -0.3 -15.89 -1.3"><animate keyTimes="0;0.25;0.5;0.75;1" calcMode="linear" dur="5333.3333ms" repeatCount="indefinite" attributeName="fill" values="#dcebf2;#ff0;#dceaf2;#ff0;#dceaf2"></animate></path><path fill="#000" d="m80.68 95.63c-0.08 -2.85 0.11 -5.68 0.67 -8.48c0.56 -2.8 1.57 -5.59 2.56 -8.33c0.99 -2.74 1.84 -5.64 1.63 -8.58c-0.21 -2.94 -1.21 -5.62 -2.45 -8.26c-1.16 -2.47 -2.48 -4.85 -3.54 -7.37c-1.06 -2.52 -2.02 -5.36 -2.77 -8.13c-0.75 -2.77 -1.29 -5.41 -1.65 -8.17c-0.17 -1.32 -0.32 -2.66 -0.38 -3.99c-0.03 -0.85 -0.07 -1.31 0.56 -1.58c1.8 -0.77 4.23 0.09 5.77 1.28c1.66 1.28 2.86 3.25 2.99 5.32c0.2 3.35 5.18 3.41 5.25 0c0.03 -1.43 0.28 -2.84 0.84 -4.18c0.22 -0.53 0.69 -1.06 0.85 -1.6c0.12 -0.43 0.75 -0.61 -0.42 -0.19c-0.28 0.1 -0.56 -0.45 0 0.1c2 1.92 3.22 4.56 3.89 7.21c0.67 2.65 4.32 2.4 5.06 0c0.74 -2.4 1.55 -5.34 3.73 -6.95c1.64 -1.2 3.32 -0.92 4.46 0.51c1.14 1.43 0.97 3.03 -0.44 4.48c-1.75 1.81 -4.02 3.02 -5.87 4.72c-8.37 7.7 -10.04 20.13 -11.42 30.8c-0.98 7.57 -1.44 15.22 -0.82 22.85l2.62 -2.62c-7.21 0.31 -14.4 0.79 -21.59 1.42l2.62 2.62c0.65 -8.11 1.21 -16.31 -0.37 -24.35c-1.5 -7.6 -5.55 -13.93 -9.45 -20.48c-3.64 -6.1 -6.36 -12.3 -5.74 -19.55c0.58 -6.83 3.82 -13.52 8.15 -18.76c2.34 -2.83 5.02 -5.41 8.31 -7.11c3.29 -1.7 7.6 -2.49 11.37 -2.99c3.77 -0.5 7.92 1.26 11.59 2.46c3.67 1.2 7.44 2.24 10.25 4.77c2.81 2.53 4.79 5.57 6.86 8.51c2.07 2.94 4.16 6.13 5.39 9.59c1.23 3.46 1.6 7.04 0.85 10.62c-0.75 3.58 -2.33 7.02 -4.25 10.2c-3.98 6.59 -9.4 12.18 -13.27 18.83c-4.11 7.05 -5.91 15.05 -6.39 23.14c-0.11 1.93 -0.15 3.87 -0.13 5.81l2.62 -2.62c-5.1 0.11 -10.18 -0.27 -15.19 -1.2c-1.39 -0.26 -2.83 0.39 -3.23 1.83c-0.35 1.28 0.43 2.97 1.83 3.23c5.47 1.02 11.02 1.51 16.59 1.39c1.41 -0.03 2.64 -1.18 2.62 -2.62c-0.06 -8.02 0.78 -16.33 4.36 -23.62c3.58 -7.29 9.28 -13.13 13.68 -19.87c4.46 -6.84 7.54 -14.84 5.92 -23.09c-1.53 -7.81 -6.86 -14.69 -11.72 -20.77c-2.71 -3.39 -5.94 -5.65 -9.96 -7.26c-4.02 -1.61 -8.08 -2.88 -12.18 -4.01c-4.46 -1.23 -8.89 -0.3 -13.31 0.7c-4.13 0.93 -7.83 2.6 -11.16 5.22c-6.04 4.77 -10.6 11.81 -13.08 19.05c-2.48 7.24 -2.54 15.25 0.4 22.44c2.94 7.19 7.77 13.08 10.89 20.04c3.37 7.52 3.43 16 2.96 24.08c-0.12 2.13 -0.29 4.27 -0.46 6.4c-0.11 1.33 1.29 2.74 2.62 2.62c7.18 -0.63 14.38 -1.1 21.59 -1.42c1.33 -0.06 2.74 -1.16 2.62 -2.62c-0.6 -7.46 -0.18 -14.95 0.76 -22.36c0.77 -6.11 1.71 -12.34 3.88 -18.13c0.92 -2.47 2.17 -4.91 3.8 -6.99c1.79 -2.3 4.1 -3.85 6.36 -5.62c2.26 -1.77 4.25 -4.11 4.51 -7.15c0.26 -3.04 -1.4 -5.86 -3.76 -7.58c-2.92 -2.13 -6.79 -1.93 -9.67 0.17c-3.28 2.39 -4.67 6.12 -5.83 9.86l5.06 0c-0.56 -2.26 -1.48 -4.47 -2.75 -6.42c-1.27 -1.95 -3.01 -4.29 -5.52 -4.67c-5.25 -0.78 -7.12 7.3 -7.19 11.14l5.25 0c-0.34 -5.55 -4.45 -10.63 -9.98 -11.81c-2.72 -0.58 -5.86 -0.34 -8 1.61c-2.51 2.3 -1.87 5.94 -1.5 8.95c0.8 6.55 2.48 12.88 5.07 18.96c2.29 5.37 6.53 10.78 5.02 16.91c-0.88 3.56 -2.52 6.87 -3.36 10.45c-0.84 3.58 -1.26 7.46 -1.15 11.23c0.09 3.37 5.34 3.39 5.25 0l0 0l0.02 -0.02z"></path><path fill="#bfbfbf" d="m74.36 131.61c0 2.53 0.25 5.3 2.02 7.11c1.91 1.95 5.1 2.12 7.64 1.13c2.54 -0.99 4.59 -2.91 6.56 -4.8c1.21 -1.17 2.43 -2.36 3.27 -3.81"></path><path fill="#000" d="m71.73 131.61c0.01 2.76 0.31 5.72 2 8c1.83 2.47 4.89 3.7 7.94 3.42c3.05 -0.28 5.8 -1.79 8.22 -3.79c2.42 -2 4.69 -4.1 6.23 -6.67c1.74 -2.91 -2.8 -5.55 -4.53 -2.65c-1.12 1.88 -2.92 3.4 -4.54 4.86c-1.53 1.37 -3.19 2.58 -5.22 2.98c-1.29 0.25 -2.93 -0.05 -3.76 -1.06c0.08 0.1 -0.24 -0.36 -0.28 -0.44c0 0 -0.34 -0.71 -0.22 -0.41c-0.18 -0.45 -0.3 -0.93 -0.39 -1.4c-0.15 -0.76 -0.19 -1.79 -0.19 -2.84c-0.02 -3.38 -5.27 -3.38 -5.25 0l0 0l-0.01 0z"></path><path fill="#bfbfbf" d="m99.86 101.82c-0.2 4.48 1.38 8.84 1.65 13.31c0.36 5.98 -1.6 11.84 -3.55 17.51c-5.88 -0.53 -11.8 -0.71 -17.7 -0.55c-2.36 0.06 -4.74 0.18 -7.04 -0.34c-2.3 -0.52 -4.54 -1.77 -5.69 -3.83c-0.85 -1.52 -1.01 -3.31 -1.17 -5.05c-0.58 -6.61 -1.15 -13.27 -0.45 -19.86c0.06 -0.54 0.13 -1.11 0.44 -1.56c0.38 -0.56 1.04 -0.85 1.68 -1.07c5.31 -1.8 11.12 -0.53 16.72 -0.87c3.63 -0.23 7.21 -1.15 10.85 -1.16c2.46 -0.01 5.34 0.7 6.26 2.98"></path><path fill="#000" d="m97.23 101.82c-0.16 5.15 1.77 10.07 1.69 15.2c-0.08 5.13 -1.84 10.11 -3.49 14.92l2.53 -1.93c-6.37 -0.56 -12.73 -0.66 -19.12 -0.51c-2.59 0.06 -5.52 0.13 -7.73 -1.46c-1.99 -1.43 -2.01 -3.91 -2.21 -6.14c-0.27 -3.15 -0.53 -6.3 -0.64 -9.45c-0.05 -1.53 -0.07 -3.07 -0.03 -4.61c0.02 -0.73 0.05 -1.45 0.09 -2.18c0.05 -0.8 -0.04 -1.88 0.22 -2.66c0.09 -0.25 -0.06 -0.01 -0.12 0.04c-0.07 0.06 0.29 -0.13 0.31 -0.13c0.58 -0.09 1.16 -0.35 1.74 -0.48c1.46 -0.32 2.95 -0.4 4.45 -0.41c2.98 -0.03 5.95 0.26 8.93 0.16c3.48 -0.12 6.87 -0.95 10.34 -1.16c1.23 -0.08 2.4 -0.11 3.5 0.19c1.01 0.27 1.5 0.55 1.92 1.45c0.59 1.29 2.46 1.61 3.59 0.94c1.33 -0.78 1.53 -2.3 0.94 -3.59c-2.89 -6.34 -12.05 -3.95 -17.25 -3.32c-3.46 0.42 -6.9 0.17 -10.37 0.1c-3.47 -0.07 -7.32 0 -10.44 1.59c-3.36 1.7 -3.01 6.25 -3.08 9.48c-0.09 3.72 0.13 7.44 0.43 11.15c0.27 3.36 0.17 7.23 1.85 10.25c1.56 2.8 4.64 4.55 7.72 5.14c3.99 0.77 8.16 0.26 12.2 0.29c4.27 0.02 8.53 0.23 12.78 0.61c1.19 0.1 2.18 -0.9 2.53 -1.93c1.76 -5.14 3.48 -10.37 3.67 -15.85c0.19 -5.48 -1.84 -10.38 -1.68 -15.67c0.1 -3.38 -5.15 -3.38 -5.25 0l0 0l-0.02 -0.03z"></path><path fill="#000" d="m68.25 109.76c9.65 1.82 19.49 2.35 29.28 1.44c3.33 -0.31 3.42 -5.08 0 -5.25c-0.34 -0.02 -0.68 -0.03 -1.02 -0.05c-3.38 -0.17 -3.37 5.08 0 5.25c0.34 0.02 0.68 0.03 1.02 0.05l0 -5.25c-9.31 0.86 -18.69 0.48 -27.88 -1.25c-1.39 -0.26 -2.83 0.39 -3.23 1.83c-0.35 1.28 0.43 2.96 1.83 3.23l0 0z"></path><path fill="#000" d="m69.4 118.91c9.39 0.77 18.81 0.98 28.22 0.61c3.37 -0.13 3.38 -5.38 0 -5.25c-9.41 0.36 -18.83 0.16 -28.22 -0.61c-1.41 -0.12 -2.62 1.29 -2.62 2.62c0 1.52 1.21 2.51 2.62 2.62l0 0l0 0.01z"></path><animateTransform attributeName="transform" type="translate" from="0 0" to="0 0" calcMode="discrete" dur="5333.3333ms" repeatCount="indefinite"></animateTransform><animateMotion keyTimes="0;0.25;0.5;0.75;1" calcMode="spline" keySplines="0.42 0 0.58 1;0.42 0 0.58 1;0.42 0 0.58 1;0.42 0 0.58 1" dur="5333.3333ms" repeatCount="indefinite" attributeName="transform" keyPoints="0;0.25;0.5;0.75;1" path="m88.8189 104.3675l0 -21.3965l0 21.3965l0 -21.3965l0 21.3965" additive="sum"></animateMotion><animateTransform attributeName="transform" type="translate" from="-88.7965 -71.5357" to="-88.7965 -71.5357" calcMode="discrete" dur="5333.3333ms" repeatCount="indefinite" additive="sum"></animateTransform></g><g transform="translate(6.6926 47.7285)"><path fill="#000" d="m311.64 126.27c-1.56 -10.16 -0.34 -20.73 3.48 -30.27c0.87 -2.17 1.89 -4.32 3.41 -6.1c2.28 -2.66 5.51 -4.31 8.76 -5.61c4.17 -1.67 8.51 -2.9 12.94 -3.64c1.93 -0.33 3.91 -0.56 5.83 -0.21c2.35 0.43 4.44 1.7 6.48 2.95c4.22 2.59 8.72 5.52 10.44 10.16c0.78 2.11 0.9 4.39 0.87 6.64c-0.04 3.33 -0.41 6.66 -1.1 9.93c-0.62 2.97 -1.6 6.04 -3.81 8.12c-1.64 1.54 -3.79 2.39 -5.91 3.13c-11.31 4 -23.24 6.25 -35.23 6.63c-1.11 0.04 -2.26 0.05 -3.3 -0.35c-2.42 -0.92 -3.53 -3.7 -4.06 -6.24c-2.54 -12.25 2.69 -25.77 12.82 -33.13"></path><path fill="#000" d="m314.17 125.57c-0.99 -6.62 -0.72 -13.48 0.74 -20c1.31 -5.9 3.19 -13.08 8.61 -16.5c2.59 -1.63 5.49 -2.73 8.39 -3.67c3.27 -1.07 6.69 -1.97 10.1 -2.38c1.54 -0.19 3.07 -0.2 4.56 0.26c1.4 0.43 2.66 1.2 3.91 1.95c2.46 1.48 4.97 2.99 7.05 4.98c2.08 1.99 3.32 4.23 3.59 7.07c0.33 3.38 0.02 6.94 -0.56 10.28c-0.48 2.79 -1.01 6.07 -2.94 8.27c-1.93 2.2 -5.27 3.05 -7.99 3.94c-6.67 2.18 -13.56 3.78 -20.52 4.7c-3.6 0.48 -7.22 0.77 -10.85 0.9c-1.05 0.04 -2.48 0.22 -3.32 -0.4c-0.8 -0.59 -1.24 -1.62 -1.55 -2.57c-1.81 -5.64 -1.09 -12.14 0.84 -17.64c1.93 -5.5 5.57 -10.69 10.34 -14.19c1.14 -0.84 1.71 -2.28 0.94 -3.59c-0.66 -1.13 -2.44 -1.79 -3.59 -0.94c-10.59 7.79 -16.21 21.07 -14.37 34.1c0.43 3.03 1.28 6.44 3.67 8.55c3.03 2.67 7.33 1.99 11.05 1.72c8.1 -0.57 16.16 -1.95 23.99 -4.14c3.71 -1.04 7.54 -2.13 11.02 -3.8c3.48 -1.67 5.74 -4.58 7.04 -8.18c1.3 -3.6 1.79 -7.66 2.03 -11.48c0.24 -3.82 0.18 -8 -1.57 -11.62c-1.5 -3.09 -4.15 -5.44 -6.89 -7.42c-2.74 -1.98 -5.89 -4.05 -9.14 -5.28c-3.73 -1.42 -7.73 -0.73 -11.52 0.06c-3.79 0.79 -7.6 1.95 -11.22 3.45c-3.32 1.38 -6.63 3.05 -9.09 5.76c-2.64 2.91 -4.12 6.65 -5.37 10.32c-2.51 7.35 -3.57 15.27 -3.1 23.02c0.12 1.97 0.36 3.93 0.65 5.88c0.21 1.4 1.98 2.18 3.23 1.83c1.5 -0.41 2.04 -1.82 1.83 -3.23l0 0l0.01 -0.01z"></path><path fill="#000" d="m198.5 105.34c-0.29 -4.54 1.87 -6.48 2.33 -11c0.21 -2.03 3.41 -3.8 4.22 -5.67c0.9 -2.07 2.65 -3.17 4.11 -4.89c2.01 -2.36 2.51 -1.22 5.39 -2.36c2 -0.79 4.19 -0.88 6.34 -0.91c3.72 -0.04 7.47 0.1 11.11 0.89c7.35 1.61 14.06 6 18.49 12.09c4.43 6.09 6.53 13.82 5.81 21.31c-0.18 1.83 -0.53 3.67 -1.38 5.3c-1.55 2.98 -4.61 4.92 -7.78 6.01c-2.32 0.8 -4.76 1.21 -7.22 1.23c-12.8 0.08 -23.45 -10.4 -36.14 -12.11c-1.62 -0.22 -3.44 -0.38 -4.49 -1.63c-1.72 -2.05 -0.05 -5.18 -0.5 -7.82"></path><path fill="#000" d="m201.13 105.34c-0.11 -2.37 0.67 -4.34 1.4 -6.56c0.44 -1.32 0.52 -2.69 0.88 -4.01c0.12 -0.45 0.81 -1.11 1.41 -1.71c0.8 -0.8 1.64 -1.61 2.24 -2.58c0.64 -1.03 1.08 -1.92 1.96 -2.79c0.88 -0.87 1.67 -1.71 2.5 -2.59c0.69 -0.73 -0.1 0.14 0.21 -0.22c0.11 -0.12 0.61 -0.28 0.04 -0.07c0.38 -0.14 0.79 -0.18 1.19 -0.24c0.95 -0.16 1.8 -0.45 2.71 -0.75c1.43 -0.48 2.88 -0.61 4.38 -0.65c3.11 -0.08 6.29 -0.05 9.36 0.43c5.05 0.79 9.95 2.86 13.91 6.12c3.96 3.26 7.16 7.66 8.87 12.62c0.88 2.55 1.44 5.2 1.59 7.89c0.15 2.69 0.13 5.57 -0.87 8.04c-1.88 4.64 -8 6.35 -12.52 6.47c-4.99 0.13 -9.78 -1.57 -14.26 -3.61c-5.38 -2.45 -10.58 -5.38 -16.24 -7.16c-1.4 -0.44 -2.82 -0.81 -4.27 -1.06c-1.2 -0.21 -2.81 -0.15 -3.93 -0.71c-0.75 -0.37 -0.59 -1.13 -0.53 -1.89c0.11 -1.51 0.47 -2.98 0.26 -4.5c-0.19 -1.41 -1.07 -2.62 -2.62 -2.62c-1.27 0 -2.81 1.21 -2.62 2.62c0.4 3.03 -1.11 6.01 0.64 8.86c1.75 2.85 4.93 2.83 7.78 3.37c5.64 1.07 10.76 3.74 15.89 6.21c5.13 2.47 10.81 4.99 16.78 5.61c5.97 0.62 13.36 -0.95 17.77 -5.5c4.63 -4.78 4.54 -12.43 3.46 -18.56c-1.08 -6.14 -3.95 -11.93 -8.11 -16.56c-4.02 -4.48 -9.32 -7.83 -15.06 -9.64c-3.4 -1.07 -6.99 -1.51 -10.55 -1.65c-3.3 -0.13 -6.92 -0.29 -10.12 0.68c-1.27 0.38 -2.44 0.71 -3.74 0.98c-1.21 0.25 -2.26 0.92 -3.13 1.79c-1.14 1.13 -2.35 2.31 -3.39 3.53c-0.87 1.02 -1.49 2.5 -2.24 3.35c-1.04 1.16 -2.25 2.13 -3.1 3.46c-0.85 1.33 -0.82 2.82 -1.2 4.29c-0.82 3.19 -2.16 5.93 -1.99 9.32c0.17 3.39 5.41 3.38 5.25 0l0 0l0.01 -0.01z"></path><path fill="#fff" d="m230.11 105.73c-0.22 -0.27 -0.67 -0.21 -0.92 0.03c-0.25 0.24 -0.34 0.6 -0.42 0.94c-0.26 1.07 -0.51 2.16 -0.51 3.26c0 1.1 0.29 2.24 1 3.08c1.17 1.37 3.19 1.64 4.99 1.53c1.05 -0.06 2.12 -0.23 3.06 -0.72c0.94 -0.49 1.73 -1.32 1.96 -2.36c0.09 -0.41 0.08 -0.86 -0.13 -1.23c-0.24 -0.42 -0.69 -0.66 -1.08 -0.94c-1.15 -0.81 -1.94 -2.04 -3.01 -2.96c-1.07 -0.92 -2.69 -1.5 -3.87 -0.73"></path><path fill="#fff" d="m230.64 105.2c-0.4 -0.38 -0.91 -0.49 -1.43 -0.31c-0.64 0.22 -0.95 0.83 -1.12 1.44c-0.36 1.29 -0.66 2.72 -0.57 4.07c0.09 1.21 0.47 2.39 1.31 3.3c0.76 0.82 1.86 1.3 2.95 1.5c2.29 0.41 5.23 0.19 7.01 -1.48c0.86 -0.81 1.52 -2.11 1.2 -3.31c-0.32 -1.2 -1.59 -1.65 -2.38 -2.44c-0.97 -0.97 -1.79 -2.13 -3.01 -2.81c-1.22 -0.68 -2.61 -0.88 -3.81 -0.16c-0.83 0.49 -0.08 1.79 0.76 1.3c1.56 -0.92 3.17 0.75 4.13 1.8c0.62 0.69 1.24 1.36 2 1.9c0.27 0.19 0.66 0.36 0.81 0.67c0.19 0.38 0.02 0.89 -0.16 1.24c-0.87 1.65 -3.06 1.94 -4.73 1.95c-1.52 0 -3.28 -0.32 -4.1 -1.75c-0.51 -0.89 -0.56 -1.96 -0.46 -2.96c0.06 -0.55 0.18 -1.09 0.3 -1.63c0.07 -0.29 0.12 -0.58 0.21 -0.86c0.02 -0.07 0.06 -0.15 0.08 -0.23c0.07 -0.34 0.19 0.07 -0.05 -0.16c0.7 0.67 1.76 -0.39 1.06 -1.06l0 0l0 -0.01z"></path><path fill="#fff" d="m244.63 96.91c-1.2 1.79 -2.58 3.45 -4.11 4.96c0.81 1.54 2.61 2.36 4.35 2.4c1.74 0.04 3.41 -0.6 4.97 -1.38c0.34 -0.17 0.7 -0.37 0.87 -0.71c0.13 -0.27 0.13 -0.58 0.12 -0.88c-0.02 -0.71 -0.04 -1.42 -0.28 -2.09c-0.39 -1.06 -1.35 -1.89 -2.46 -2.11c-1.11 -0.22 -2.32 0.18 -3.07 1.02"></path><path fill="#fff" d="m243.98 96.53c-1.17 1.74 -2.51 3.34 -4 4.81c-0.24 0.24 -0.28 0.62 -0.12 0.91c0.73 1.33 2.07 2.22 3.53 2.58c1.7 0.41 3.48 0.1 5.09 -0.53c0.79 -0.31 1.7 -0.63 2.36 -1.17c0.74 -0.61 0.74 -1.48 0.69 -2.36c-0.08 -1.64 -0.68 -3.17 -2.2 -3.99c-1.61 -0.86 -3.62 -0.5 -4.88 0.82c-0.67 0.7 0.39 1.76 1.06 1.06c0.99 -1.04 2.62 -1.16 3.67 -0.14c0.53 0.51 0.75 1.17 0.82 1.89c0.04 0.39 0.1 0.86 0.04 1.25c-0.05 0.34 -0.34 0.44 -0.62 0.58c-2.48 1.27 -6.6 2.32 -8.29 -0.75l-0.12 0.91c1.58 -1.56 2.99 -3.27 4.23 -5.11c0.54 -0.8 -0.76 -1.55 -1.3 -0.76l0 0l0.04 0z"></path><path fill="#fff" d="m250.64 110.42c-2.62 2.95 -6.18 5 -8.52 8.18c-0.08 0.11 -0.17 0.25 -0.14 0.39c0.03 0.14 0.17 0.22 0.3 0.29c0.99 0.52 2.03 1.06 3.15 1.07c1.72 0.02 3.2 -1.19 4.32 -2.49c0.84 -0.98 1.59 -2.07 2.02 -3.29c0.43 -1.22 0.51 -2.59 0.06 -3.8"></path><path fill="#fff" d="m250.11 109.89c-1.36 1.52 -2.94 2.79 -4.49 4.11c-0.76 0.65 -1.52 1.3 -2.23 2.01c-0.71 0.71 -1.53 1.47 -2 2.33c-0.69 1.24 0.91 1.83 1.79 2.21c0.98 0.42 2 0.65 3.06 0.48c2.03 -0.34 3.61 -2 4.79 -3.57c1.45 -1.95 2.36 -4.48 1.51 -6.88c-0.32 -0.9 -1.77 -0.51 -1.45 0.4c0.88 2.5 -0.57 4.99 -2.25 6.77c-0.76 0.81 -1.67 1.55 -2.78 1.8c-0.58 0.13 -1.17 0.04 -1.73 -0.14c-0.31 -0.1 -0.6 -0.22 -0.89 -0.36c-0.17 -0.08 -0.74 -0.26 -0.82 -0.43l0.1 0.38l0 -0.14c-0.03 0.13 -0.07 0.25 -0.1 0.38c0.17 -0.41 0.54 -0.77 0.83 -1.11c0.34 -0.38 0.69 -0.75 1.05 -1.11c0.71 -0.7 1.47 -1.36 2.23 -2c1.53 -1.3 3.09 -2.56 4.43 -4.05c0.64 -0.72 -0.41 -1.78 -1.06 -1.06l0 0l0.01 -0.02z"></path><path fill="#fff" d="m342.26 100.95c-2 -0.27 -3.82 1.24 -4.91 2.93c-0.49 0.77 -0.91 1.67 -0.73 2.56c0.24 1.17 1.4 1.89 2.47 2.42c0.95 0.47 1.93 0.92 2.97 1.09c1.04 0.17 2.18 0.04 3.05 -0.57c1.35 -0.94 1.74 -2.72 2.04 -4.34c0.13 -0.72 0.24 -1.53 -0.21 -2.11c-0.29 -0.38 -0.76 -0.56 -1.21 -0.72c-0.8 -0.28 -1.61 -0.52 -2.44 -0.72"></path><path fill="#fff" d="m342.26 100.2c-2.24 -0.25 -4.17 1.3 -5.38 3.04c-0.68 0.98 -1.25 2.19 -0.98 3.41c0.23 1.03 1.02 1.8 1.88 2.35c1.83 1.17 4.29 2.22 6.48 1.61c2.19 -0.61 3.11 -2.8 3.53 -4.89c0.22 -1.13 0.49 -2.5 -0.42 -3.42c-0.44 -0.45 -1.05 -0.66 -1.63 -0.86c-0.74 -0.25 -1.49 -0.47 -2.25 -0.66c-0.94 -0.23 -1.34 1.21 -0.4 1.45c0.94 0.24 1.92 0.46 2.8 0.86c0.81 0.38 0.65 1.18 0.51 1.92c-0.26 1.43 -0.6 3.22 -2.02 3.95c-1.65 0.84 -3.62 -0.07 -5.11 -0.85c-0.64 -0.33 -1.37 -0.73 -1.74 -1.37c-0.44 -0.77 -0.05 -1.63 0.37 -2.32c0.92 -1.51 2.48 -2.93 4.36 -2.71c0.41 0.05 0.75 -0.38 0.75 -0.75c0 -0.44 -0.35 -0.7 -0.75 -0.75l0 0l0 -0.01z"></path><path fill="#fff" d="m354.93 91.83c-1.65 0.21 -3.26 0.81 -4.64 1.74c-0.94 0.63 -1.85 1.54 -1.88 2.67c-0.03 1.1 0.83 2.07 1.84 2.5c1.01 0.43 2.15 0.42 3.25 0.34c0.62 -0.04 1.25 -0.11 1.81 -0.39c0.56 -0.28 1 -0.75 1.37 -1.25c0.74 -0.99 1.28 -2.24 1.03 -3.46c-0.25 -1.22 -1.56 -2.23 -2.73 -1.82"></path><path fill="#fff" d="m354.74 91.11c-2.04 0.28 -4.17 1.11 -5.72 2.5c-0.72 0.65 -1.28 1.5 -1.35 2.49c-0.07 0.99 0.38 1.87 1.05 2.51c1.52 1.44 3.96 1.45 5.91 1.08c1.95 -0.37 3.52 -2.46 3.83 -4.38c0.18 -1.11 -0.06 -2.22 -0.85 -3.05c-0.72 -0.76 -1.81 -1.15 -2.83 -0.83c-0.92 0.28 -0.53 1.73 0.4 1.45c0.54 -0.17 1.05 0.08 1.41 0.49c0.43 0.49 0.51 1.15 0.38 1.77c-0.28 1.35 -1.32 2.84 -2.74 3.1c-1.34 0.25 -3.24 0.34 -4.35 -0.6c-0.44 -0.38 -0.8 -0.94 -0.71 -1.54c0.09 -0.65 0.59 -1.17 1.07 -1.57c1.36 -1.12 3.16 -1.74 4.89 -1.97c0.4 -0.06 0.62 -0.57 0.52 -0.92c-0.12 -0.43 -0.52 -0.58 -0.92 -0.52l0 0l0.01 -0.01z"></path><path fill="#fff" d="m356.28 105.57c-2.45 1.38 -4.1 4.1 -4.18 6.91c0 0.26 0 0.53 0.14 0.75c0.15 0.24 0.43 0.37 0.69 0.48c1.58 0.68 3.39 1.21 4.99 0.58c1.07 -0.42 1.87 -1.3 2.61 -2.18c0.38 -0.45 0.75 -0.91 0.95 -1.46c0.35 -1 0.05 -2.11 -0.31 -3.11c-0.28 -0.78 -0.6 -1.57 -1.17 -2.17c-0.57 -0.6 -1.45 -0.97 -2.24 -0.74"></path><path fill="#fff" d="m355.91 104.93c-1.78 1.02 -3.14 2.63 -3.91 4.53c-0.37 0.91 -0.59 1.89 -0.63 2.88c-0.02 0.55 0.04 1.12 0.44 1.53c0.37 0.39 0.92 0.56 1.4 0.76c1.06 0.42 2.22 0.74 3.37 0.69c1.15 -0.05 2.18 -0.48 3.08 -1.21c0.8 -0.66 1.56 -1.51 2.13 -2.37c0.65 -0.99 0.72 -2.12 0.47 -3.25c-0.48 -2.17 -1.94 -5.25 -4.68 -4.57c-0.94 0.23 -0.54 1.68 0.4 1.45c1.64 -0.41 2.4 1.96 2.73 3.11c0.24 0.84 0.32 1.67 -0.17 2.44c-0.42 0.67 -1 1.29 -1.58 1.83c-0.58 0.54 -1.3 0.97 -2.13 1.06c-0.83 0.09 -1.7 -0.1 -2.5 -0.36c-0.38 -0.13 -0.77 -0.26 -1.13 -0.43c-0.15 -0.07 -0.26 -0.11 -0.32 -0.26c-0.06 -0.15 0 -0.46 0.02 -0.63c0.06 -0.73 0.24 -1.45 0.51 -2.13c0.63 -1.58 1.8 -2.92 3.28 -3.77c0.84 -0.48 0.08 -1.78 -0.76 -1.3l0 0l-0.02 0z"></path><path fill="#000" d="m314.17 125.57c-0.99 -6.62 -0.72 -13.48 0.74 -20c1.31 -5.9 3.19 -13.08 8.61 -16.5c2.59 -1.63 5.49 -2.73 8.39 -3.67c3.27 -1.07 6.69 -1.97 10.1 -2.38c1.54 -0.19 3.07 -0.2 4.56 0.26c1.4 0.43 2.66 1.2 3.91 1.95c2.46 1.48 4.97 2.99 7.05 4.98c2.08 1.99 3.32 4.23 3.59 7.07c0.33 3.38 0.02 6.94 -0.56 10.28c-0.48 2.79 -1.01 6.07 -2.94 8.27c-1.93 2.2 -5.27 3.05 -7.99 3.94c-6.67 2.18 -13.56 3.78 -20.52 4.7c-3.6 0.48 -7.22 0.77 -10.85 0.9c-1.05 0.04 -2.48 0.22 -3.32 -0.4c-0.8 -0.59 -1.24 -1.62 -1.55 -2.57c-1.81 -5.64 -1.09 -12.14 0.84 -17.64c1.93 -5.5 5.57 -10.69 10.34 -14.19c1.14 -0.84 1.71 -2.28 0.94 -3.59c-0.66 -1.13 -2.44 -1.79 -3.59 -0.94c-10.59 7.79 -16.21 21.07 -14.37 34.1c0.43 3.03 1.28 6.44 3.67 8.55c3.03 2.67 7.33 1.99 11.05 1.72c8.1 -0.57 16.16 -1.95 23.99 -4.14c3.71 -1.04 7.54 -2.13 11.02 -3.8c3.48 -1.67 5.74 -4.58 7.04 -8.18c1.3 -3.6 1.79 -7.66 2.03 -11.48c0.24 -3.82 0.18 -8 -1.57 -11.62c-1.5 -3.09 -4.15 -5.44 -6.89 -7.42c-2.74 -1.98 -5.89 -4.05 -9.14 -5.28c-3.73 -1.42 -7.73 -0.73 -11.52 0.06c-3.79 0.79 -7.6 1.95 -11.22 3.45c-3.32 1.38 -6.63 3.05 -9.09 5.76c-2.64 2.91 -4.12 6.65 -5.37 10.32c-2.51 7.35 -3.57 15.27 -3.1 23.02c0.12 1.97 0.36 3.93 0.65 5.88c0.21 1.4 1.98 2.18 3.23 1.83c1.5 -0.41 2.04 -1.82 1.83 -3.23l0 0l0.01 -0.01z"></path><path fill="#000" d="m201.13 105.34c-0.11 -2.37 0.67 -4.34 1.4 -6.56c0.44 -1.32 0.52 -2.69 0.88 -4.01c0.12 -0.45 0.81 -1.11 1.41 -1.71c0.8 -0.8 1.64 -1.61 2.24 -2.58c0.64 -1.03 1.08 -1.92 1.96 -2.79c0.88 -0.87 1.67 -1.71 2.5 -2.59c0.69 -0.73 -0.1 0.14 0.21 -0.22c0.11 -0.12 0.61 -0.28 0.04 -0.07c0.38 -0.14 0.79 -0.18 1.19 -0.24c0.95 -0.16 1.8 -0.45 2.71 -0.75c1.43 -0.48 2.88 -0.61 4.38 -0.65c3.11 -0.08 6.29 -0.05 9.36 0.43c5.05 0.79 9.95 2.86 13.91 6.12c3.96 3.26 7.16 7.66 8.87 12.62c0.88 2.55 1.44 5.2 1.59 7.89c0.15 2.69 0.13 5.57 -0.87 8.04c-1.88 4.64 -8 6.35 -12.52 6.47c-4.99 0.13 -9.78 -1.57 -14.26 -3.61c-5.38 -2.45 -10.58 -5.38 -16.24 -7.16c-1.4 -0.44 -2.82 -0.81 -4.27 -1.06c-1.2 -0.21 -2.81 -0.15 -3.93 -0.71c-0.75 -0.37 -0.59 -1.13 -0.53 -1.89c0.11 -1.51 0.47 -2.98 0.26 -4.5c-0.19 -1.41 -1.07 -2.62 -2.62 -2.62c-1.27 0 -2.81 1.21 -2.62 2.62c0.4 3.03 -1.11 6.01 0.64 8.86c1.75 2.85 4.93 2.83 7.78 3.37c5.64 1.07 10.76 3.74 15.89 6.21c5.13 2.47 10.81 4.99 16.78 5.61c5.97 0.62 13.36 -0.95 17.77 -5.5c4.63 -4.78 4.54 -12.43 3.46 -18.56c-1.08 -6.14 -3.95 -11.93 -8.11 -16.56c-4.02 -4.48 -9.32 -7.83 -15.06 -9.64c-3.4 -1.07 -6.99 -1.51 -10.55 -1.65c-3.3 -0.13 -6.92 -0.29 -10.12 0.68c-1.27 0.38 -2.44 0.71 -3.74 0.98c-1.21 0.25 -2.26 0.92 -3.13 1.79c-1.14 1.13 -2.35 2.31 -3.39 3.53c-0.87 1.02 -1.49 2.5 -2.24 3.35c-1.04 1.16 -2.25 2.13 -3.1 3.46c-0.85 1.33 -0.82 2.82 -1.2 4.29c-0.82 3.19 -2.16 5.93 -1.99 9.32c0.17 3.39 5.41 3.38 5.25 0l0 0l0.01 -0.01z"></path></g><path fill="none" stroke="#c7c7c7" stroke-width="6" stroke-linecap="round" d="m0 0q10.5415 -11.5901 5.91 -17.2101c-4.6315 -5.62 -0.7799 -13.7948 3.55 -18.5099" transform="translate(275.1194 558.5186)"><animate keyTimes="0;0.1668;0.3333;0.5;0.6665;0.6667;0.8335;1" calcMode="linear" dur="5333.3333ms" repeatCount="indefinite" attributeName="d" values="m0 0q10.5415 -11.5901 5.91 -17.2101c-4.6315 -5.62 -0.7799 -13.7948 3.55 -18.5099;m4.14 -3.9878q5.91 -10.858 5.91 -17.2101c0 -6.3521 -2.4021 -11.058 1.905 -19.3269;m0 0q10.5415 -11.5901 5.91 -17.2101c-4.6315 -5.62 -0.7799 -13.7948 3.55 -18.5099;m4.14 -3.9878q5.91 -10.858 5.91 -17.2101c0 -6.3521 -2.4021 -11.058 1.905 -19.3269;m0 0q10.5415 -11.5901 5.91 -17.2101c-4.6315 -5.62 -0.7799 -13.7948 3.55 -18.5099;m0 0q10.5415 -11.5901 5.91 -17.2101c-4.6315 -5.62 -0.7799 -13.7948 3.55 -18.5099;m4.14 -3.9878q5.91 -10.858 5.91 -17.2101c0 -6.3521 -2.4021 -11.058 1.905 -19.3269;m0 0q10.5415 -11.5901 5.91 -17.2101c-4.6315 -5.62 -0.7799 -13.7948 3.55 -18.5099"></animate></path><path fill="none" stroke="#c7c7c7" stroke-width="6" stroke-linecap="round" d="m0 0q10.5415 -11.5901 5.91 -17.2101c-4.6315 -5.62 -0.7799 -13.7948 3.55 -18.5099" transform="translate(287.7626 558.5186)"><animate keyTimes="0;0.1668;0.3333;0.5;0.6665;0.6667;0.8335;1" calcMode="linear" dur="5333.3333ms" repeatCount="indefinite" attributeName="d" values="m0 0q10.5415 -11.5901 5.91 -17.2101c-4.6315 -5.62 -0.7799 -13.7948 3.55 -18.5099;m4.14 -3.9878q5.91 -10.858 5.91 -17.2101c0 -6.3521 -2.4021 -11.058 1.905 -19.3269;m0 0q10.5415 -11.5901 5.91 -17.2101c-4.6315 -5.62 -0.7799 -13.7948 3.55 -18.5099;m4.14 -3.9878q5.91 -10.858 5.91 -17.2101c0 -6.3521 -2.4021 -11.058 1.905 -19.3269;m0 0q10.5415 -11.5901 5.91 -17.2101c-4.6315 -5.62 -0.7799 -13.7948 3.55 -18.5099;m0 0q10.5415 -11.5901 5.91 -17.2101c-4.6315 -5.62 -0.7799 -13.7948 3.55 -18.5099;m4.14 -3.9878q5.91 -10.858 5.91 -17.2101c0 -6.3521 -2.4021 -11.058 1.905 -19.3269;m0 0q10.5415 -11.5901 5.91 -17.2101c-4.6315 -5.62 -0.7799 -13.7948 3.55 -18.5099"></animate></path></g></g></svg>